<svg id="Capa_1" enable-background="new 0 0 512 512" height="512" viewBox="0 0 512 512" width="512" xmlns="http://www.w3.org/2000/svg"><path d="m427.969 357.776-20.969-8.577v-103.766c13.918-11.262 19.31-29.686 13.986-46.433h3.014c8.284 0 15-6.716 15-15 0-34.224-24.34-62.867-56.618-69.534-6.316-64.167-60.583-114.466-126.382-114.466s-120.066 50.299-126.382 114.466c-32.278 6.667-56.618 35.31-56.618 69.534 0 8.284 6.716 15 15 15h3.014c-5.316 16.722.05 35.156 13.986 46.433v103.767l-20.969 8.577c-35.86 14.668-59.031 49.184-59.031 87.933v51.29c0 8.284 6.716 15 15 15h432c8.284 0 15-6.716 15-15v-51.29c0-38.749-23.171-73.266-59.031-87.934zm-74.969 67.224h-194v-65.477l42-17.181v1.658c0 30.327 24.673 55 55 55s55-24.673 55-55v-1.657l42 17.181zm-170-226h146v41c0 40.252-32.748 73-73 73s-73-32.748-73-73zm48 140.926c15.891 3.977 33.134 4.221 50 0v4.074c0 13.785-11.215 25-25 25s-25-11.215-25-25zm94.566-24.038c17.05-15.643 28.829-36.939 32.339-60.888h19.095v81.927zm67.434-103.888c0 7.168-5.832 13-13 13h-21v-26h21c7.168 0 13 5.832 13 13zm-137-182c48.732 0 89.18 36.125 95.986 83h-191.972c6.806-46.875 47.254-83 95.986-83zm-112 113h224c17.315 0 32.159 10.791 38.159 26h-300.318c6-15.209 20.843-26 38.159-26zm9 56v26h-21c-7.168 0-13-5.832-13-13s5.832-13 13-13zm-18 56h19.096c3.51 23.948 15.289 45.245 32.338 60.888l-51.434 21.039zm-80 190.71c0-26.514 15.854-50.131 40.389-60.166l33.611-13.749v110.205h-74zm104 36.29v-27h194v27zm298 0h-74v-110.205l33.611 13.749c24.535 10.035 40.389 33.652 40.389 60.166z"/></svg>