<?xml version="1.0" encoding="UTF-8"?>
<svg xmlns="http://www.w3.org/2000/svg" xmlns:xlink="http://www.w3.org/1999/xlink" version="1.1" id="Layer_1" x="0px" y="0px" viewBox="0 0 512 512" style="enable-background:new 0 0 512 512;" xml:space="preserve" width="512" height="512">
<g>
	<path style="fill:none;stroke:#000000;stroke-width:30;stroke-linecap:round;stroke-linejoin:round;stroke-miterlimit:10;" d="&#10;&#9;&#9;M171.65,352.4c-26.59,0-48.2,21.577-48.2,48.2c0,26.598,21.61,48.2,48.2,48.2c26.591,0,48.2-21.577,48.2-48.2v-48.2H171.65z"/>
	<path style="fill:none;stroke:#000000;stroke-width:30;stroke-linecap:round;stroke-linejoin:round;stroke-miterlimit:10;" d="&#10;&#9;&#9;M348.383,167.633c-22.172,0-40.167,17.987-40.167,40.167c0,22.172,17.995,40.167,40.167,40.167&#10;&#9;&#9;c22.172,0,40.167-17.987,40.167-40.167v-40.167H348.383z"/>
	<path style="fill:none;stroke:#000000;stroke-width:30;stroke-linecap:round;stroke-linejoin:round;stroke-miterlimit:10;" d="&#10;&#9;&#9;M264.033,256c-24.422,0-44.183,19.778-44.183,44.183c0,24.389,19.762,44.183,44.183,44.183s44.183-19.778,44.183-44.183V256&#10;&#9;&#9;H264.033z"/>
	<path style="fill:none;stroke:#000000;stroke-width:30;stroke-linecap:round;stroke-linejoin:round;stroke-miterlimit:10;" d="&#10;&#9;&#9;M424.7,87.3c-20.003,0-36.15,16.187-36.15,36.15c0,19.955,16.227,36.15,36.15,36.15s36.15-16.187,36.15-36.15V87.3H424.7z"/>
	<path style="fill:none;stroke:#000000;stroke-width:30;stroke-linecap:round;stroke-linejoin:round;stroke-miterlimit:10;" d="&#10;&#9;&#9;M264.033,167.633c-24.422,0-44.183,19.778-44.183,44.183c0,24.389,19.762,44.183,44.183,44.183s44.183-19.778,44.183-44.183&#10;&#9;&#9;v-44.183H264.033z"/>
	<path style="fill:none;stroke:#000000;stroke-width:30;stroke-linecap:round;stroke-linejoin:round;stroke-miterlimit:10;" d="&#10;&#9;&#9;M460.85,15c-20.003,0-36.15,16.187-36.15,36.15c0,19.955,16.227,36.15,36.15,36.15S497,71.113,497,51.15V15H460.85z"/>
	<path style="fill:none;stroke:#000000;stroke-width:30;stroke-linecap:round;stroke-linejoin:round;stroke-miterlimit:10;" d="&#10;&#9;&#9;M171.65,256c-26.59,0-48.2,21.577-48.2,48.2c0,26.598,21.61,48.2,48.2,48.2c26.591,0,48.2-21.577,48.2-48.2V256H171.65z"/>
	<path style="fill:none;stroke:#000000;stroke-width:30;stroke-linecap:round;stroke-linejoin:round;stroke-miterlimit:10;" d="&#10;&#9;&#9;M348.383,87.3c-22.172,0-40.167,17.987-40.167,40.167c0,22.172,17.995,40.167,40.167,40.167c22.172,0,40.167-17.987,40.167-40.167&#10;&#9;&#9;V87.3H348.383z"/>
	
		<line style="fill:none;stroke:#000000;stroke-width:30;stroke-linecap:round;stroke-linejoin:round;stroke-miterlimit:10;" x1="125.539" y1="386.437" x2="15" y2="497"/>
</g>















</svg>
