<?xml version="1.0" encoding="UTF-8"?>
<svg xmlns="http://www.w3.org/2000/svg" xmlns:xlink="http://www.w3.org/1999/xlink" version="1.1" id="Layer_1" x="0px" y="0px" viewBox="0 0 512 512" style="enable-background:new 0 0 512 512;" xml:space="preserve" width="512" height="512">
<g>
	
		<circle style="fill:none;stroke:#000000;stroke-width:30;stroke-linecap:round;stroke-linejoin:round;stroke-miterlimit:10;" cx="256" cy="256" r="67.081"/>
	<path style="fill:none;stroke:#000000;stroke-width:30;stroke-linecap:round;stroke-linejoin:round;stroke-miterlimit:10;" d="&#10;&#9;&#9;M295.309,352.685l25.367,53.848c3.344,7.131,7.688,13.973,13.594,19.879c25.686,25.686,67.483,25.442,92.863-0.732&#10;&#9;&#9;c24.069-24.822,24.411-64.677,0.752-89.889c-6.716-7.157-14.751-12.171-23.134-15.864c-34.607-15.247,0,0-86.603-38.477"/>
	<path style="fill:none;stroke:#000000;stroke-width:30;stroke-linecap:round;stroke-linejoin:round;stroke-miterlimit:10;" d="&#10;&#9;&#9;M169.53,291.337l-64.062,29.341c-7.131,3.344-13.973,7.688-19.879,13.594c-25.686,25.686-25.442,67.483,0.732,92.863&#10;&#9;&#9;c24.822,24.069,64.677,24.411,89.89,0.752c7.157-6.716,12.171-14.751,15.864-23.134c15.247-34.607,0,0,38.477-86.603"/>
	<path style="fill:none;stroke:#000000;stroke-width:30;stroke-linecap:round;stroke-linejoin:round;stroke-miterlimit:10;" d="&#10;&#9;&#9;M350.659,217.462l55.873-26.14c7.131-3.344,13.973-7.688,19.879-13.594c25.686-25.686,25.442-67.483-0.732-92.863&#10;&#9;&#9;c-24.822-24.069-64.677-24.411-89.889-0.752c-7.157,6.716-12.171,14.751-15.864,23.134c-15.247,34.607,0,0-38.477,86.603"/>
	<path style="fill:none;stroke:#000000;stroke-width:30;stroke-linecap:round;stroke-linejoin:round;stroke-miterlimit:10;" d="&#10;&#9;&#9;M193.85,230.552c-86.603-38.477-51.996-23.23-86.603-38.477c-8.383-3.693-16.418-8.707-23.134-15.864&#10;&#9;&#9;c-23.66-25.212-23.317-65.067,0.752-89.89c25.38-26.174,67.177-26.418,92.863-0.732c5.906,5.906,10.25,12.748,13.594,19.879&#10;&#9;&#9;l25.158,53.361"/>
	<g>
		<path style="fill:none;stroke:#000000;stroke-width:30;stroke-linecap:round;stroke-linejoin:round;stroke-miterlimit:10;" d="&#10;&#9;&#9;&#9;M350.443,295.81l57.734,20.899c7.407,2.678,15.317,4.444,23.669,4.444c36.326,0,65.708-29.728,65.146-66.182&#10;&#9;&#9;&#9;c-0.533-34.571-28.472-62.995-63.03-64.093c-9.81-0.312-19.037,1.825-27.576,5.141c-35.252,13.69,0,0-88.445,34.03"/>
		<path style="fill:none;stroke:#000000;stroke-width:30;stroke-linecap:round;stroke-linejoin:round;stroke-miterlimit:10;" d="&#10;&#9;&#9;&#9;M194.059,281.951c-88.445,34.03-53.193,20.341-88.445,34.03c-8.539,3.316-17.766,5.452-27.576,5.141&#10;&#9;&#9;&#9;c-34.558-1.098-62.497-29.522-63.03-64.093c-0.562-36.454,28.821-66.182,65.146-66.182c8.352,0,16.262,1.766,23.669,4.444&#10;&#9;&#9;&#9;l55.097,19.732"/>
	</g>
	<g>
		<path style="fill:none;stroke:#000000;stroke-width:30;stroke-linecap:round;stroke-linejoin:round;stroke-miterlimit:10;" d="&#10;&#9;&#9;&#9;M295.686,161.812l21.023-57.988c2.678-7.407,4.444-15.317,4.444-23.669c0-36.326-29.728-65.708-66.182-65.146&#10;&#9;&#9;&#9;c-34.571,0.533-62.995,28.472-64.093,63.03c-0.312,9.81,1.825,19.037,5.141,27.576c13.69,35.252,0,0,34.03,88.445"/>
		<path style="fill:none;stroke:#000000;stroke-width:30;stroke-linecap:round;stroke-linejoin:round;stroke-miterlimit:10;" d="&#10;&#9;&#9;&#9;M219.856,342.143l-24.565,66.033c-2.678,7.407-4.444,15.317-4.444,23.669c0,36.326,29.728,65.708,66.182,65.146&#10;&#9;&#9;&#9;c34.571-0.533,62.995-28.472,64.093-63.03c0.312-9.81-1.825-19.037-5.141-27.576c-13.69-35.252,0,0-34.03-88.445"/>
	</g>
</g>















</svg>
