<?xml version="1.0" encoding="UTF-8" standalone="no"?>
<!-- Created with Inkscape (http://www.inkscape.org/) -->

<svg
   version="1.1"
   id="svg3849"
   xml:space="preserve"
   width="682.66669"
   height="682.66669"
   viewBox="0 0 682.66669 682.66669"
   xmlns="http://www.w3.org/2000/svg"
   xmlns:svg="http://www.w3.org/2000/svg"><defs
     id="defs3853"><clipPath
       clipPathUnits="userSpaceOnUse"
       id="clipPath3867"><path
         d="M 0,512 H 512 V 0 H 0 Z"
         id="path3865" /></clipPath></defs><g
     id="g3855"
     transform="matrix(1.3333333,0,0,-1.3333333,0,682.66667)"><g
       id="g3857"
       transform="translate(447.6709,427.0029)"><path
         d="M 0,0 H -384.02"
         style="fill:none;stroke:#000000;stroke-width:30;stroke-linecap:round;stroke-linejoin:round;stroke-miterlimit:10;stroke-dasharray:none;stroke-opacity:1"
         id="path3859" /></g><g
       id="g3861"><g
         id="g3863"
         clip-path="url(#clipPath3867)"><g
           id="g3869"
           transform="translate(447.6064,360.4727)"><path
             d="m 0,0 c 3.498,-9.359 -5.995,-18.313 -15.134,-14.274 l -11.708,5.173 c -18.058,7.98 -39.802,4.786 -54.049,-7.942 l -9.391,-8.39 c -18.272,-16.322 -48.17,-16.321 -66.441,0.003 -18.27,16.325 -48.169,16.326 -66.441,0.003 l -0.006,-0.006 c -18.272,-16.322 -48.171,-16.321 -66.441,0.003 l -9.383,8.384 c -14.247,12.729 -35.991,15.925 -54.052,7.943 l -12.979,-5.735 c -8.949,-3.954 -18.346,4.57 -15.281,13.859 l 22.279,67.509 0.749,25.261 c 0.739,24.897 23.541,44.736 51.417,44.736 h 228.729 c 27.129,0 49.593,-18.825 51.329,-43.013 l 1.937,-26.984 z"
             style="fill:none;stroke:#000000;stroke-width:30;stroke-linecap:round;stroke-linejoin:round;stroke-miterlimit:10;stroke-dasharray:none;stroke-opacity:1"
             id="path3871" /></g><g
           id="g3873"
           transform="translate(426.2246,348.96)"><path
             d="m 0,0 v -246.842 c 0,-48.114 -39.005,-87.118 -87.119,-87.118 h -162.883 c -48.114,0 -87.118,39.004 -87.118,87.118 V 0"
             style="fill:none;stroke:#000000;stroke-width:30;stroke-linecap:round;stroke-linejoin:round;stroke-miterlimit:10;stroke-dasharray:none;stroke-opacity:1"
             id="path3875" /></g><g
           id="g3877"
           transform="translate(257.6641,170.4883)"><path
             d="m 0,0 v -40.137 l 34.76,-20.069 34.761,20.069 V 0 L 34.76,20.068 Z"
             style="fill:none;stroke:#000000;stroke-width:30;stroke-linecap:round;stroke-linejoin:round;stroke-miterlimit:10;stroke-dasharray:none;stroke-opacity:1"
             id="path3879" /></g><g
           id="g3881"
           transform="translate(222.9043,230.6084)"><path
             d="M 0,0 V -40.137 L 34.76,-60.12 69.52,-40.052 V 0 L 34.76,20.069 Z"
             style="fill:none;stroke:#000000;stroke-width:30;stroke-linecap:round;stroke-linejoin:round;stroke-miterlimit:10;stroke-dasharray:none;stroke-opacity:1"
             id="path3883" /></g><g
           id="g3885"
           transform="translate(188.1445,170.4453)"><path
             d="M 0,0 V -40.137 L 34.76,-60.12 69.52,-40.094 V 0.043 L 34.76,20.026 Z"
             style="fill:none;stroke:#000000;stroke-width:30;stroke-linecap:round;stroke-linejoin:round;stroke-miterlimit:10;stroke-dasharray:none;stroke-opacity:1"
             id="path3887" /></g></g></g></g></svg>
