<?xml version="1.0" encoding="UTF-8" standalone="no"?>
<!-- Created with Inkscape (http://www.inkscape.org/) -->

<svg
   version="1.1"
   id="svg3468"
   xml:space="preserve"
   width="682.66669"
   height="682.66669"
   viewBox="0 0 682.66669 682.66669"
   xmlns="http://www.w3.org/2000/svg"
   xmlns:svg="http://www.w3.org/2000/svg"><defs
     id="defs3472"><clipPath
       clipPathUnits="userSpaceOnUse"
       id="clipPath3482"><path
         d="M 0,512 H 512 V 0 H 0 Z"
         id="path3480" /></clipPath><clipPath
       clipPathUnits="userSpaceOnUse"
       id="clipPath3502"><path
         d="M 0,512 H 512 V 0 H 0 Z"
         id="path3500" /></clipPath><clipPath
       clipPathUnits="userSpaceOnUse"
       id="clipPath3526"><path
         d="M 0,512 H 512 V 0 H 0 Z"
         id="path3524" /></clipPath><clipPath
       clipPathUnits="userSpaceOnUse"
       id="clipPath3550"><path
         d="M 0,512 H 512 V 0 H 0 Z"
         id="path3548" /></clipPath></defs><g
     id="g3474"
     transform="matrix(1.3333333,0,0,-1.3333333,0,682.66667)"><g
       id="g3476"><g
         id="g3478"
         clip-path="url(#clipPath3482)"><g
           id="g3484"
           transform="translate(151.5,357.9375)"><path
             d="M 0,0 V -30.062 -60.125 L -26.125,-75.156 -52.25,-90.188 -78.375,-75.156 -104.5,-60.125 V -30.062 0"
             style="fill:none;stroke:#000000;stroke-width:30;stroke-linecap:round;stroke-linejoin:round;stroke-miterlimit:22.926;stroke-dasharray:none;stroke-opacity:1"
             id="path3486" /></g></g></g><g
       id="g3488"
       transform="translate(256,357.9375)"><path
         d="M 0,0 V -30.062 -60.125 L -26.125,-75.156 -52.25,-90.188 -78.375,-75.156 -104.5,-60.125 V -30.062 0"
         style="fill:none;stroke:#000000;stroke-width:30;stroke-linecap:round;stroke-linejoin:round;stroke-miterlimit:22.926;stroke-dasharray:none;stroke-opacity:1"
         id="path3490" /></g><g
       id="g3492"
       transform="translate(360.5,357.9375)"><path
         d="M 0,0 V -30.062 -60.125 L -26.125,-75.156 -52.25,-90.188 -78.375,-75.156 -104.5,-60.125 V -30.062 0"
         style="fill:none;stroke:#000000;stroke-width:30;stroke-linecap:round;stroke-linejoin:round;stroke-miterlimit:22.926;stroke-dasharray:none;stroke-opacity:1"
         id="path3494" /></g><g
       id="g3496"><g
         id="g3498"
         clip-path="url(#clipPath3502)"><g
           id="g3504"
           transform="translate(465,357.9375)"><path
             d="M 0,0 V -30.062 -60.125 L -26.125,-75.156 -52.25,-90.188 -78.375,-75.156 -104.5,-60.125 V -30.062 0"
             style="fill:none;stroke:#000000;stroke-width:30;stroke-linecap:round;stroke-linejoin:round;stroke-miterlimit:22.926;stroke-dasharray:none;stroke-opacity:1"
             id="path3506" /></g></g></g><g
       id="g3508"
       transform="translate(151.5005,297.8115)"><path
         d="M 0,0 26.125,-15.031 52.25,-30.062 V -60.125 -90.188 L 26.125,-105.219 0,-120.25 l -26.125,15.031 -26.125,15.031 v 30.063 30.063 l 26.125,15.031 z"
         style="fill:none;stroke:#000000;stroke-width:30;stroke-linecap:round;stroke-linejoin:round;stroke-miterlimit:22.926;stroke-dasharray:none;stroke-opacity:1"
         id="path3510" /></g><g
       id="g3512"
       transform="translate(256.0005,297.8115)"><path
         d="M 0,0 26.125,-15.031 52.25,-30.062 V -60.125 -90.188 L 26.125,-105.219 0,-120.25 l -26.125,15.031 -26.125,15.031 v 30.063 30.063 l 26.125,15.031 z"
         style="fill:none;stroke:#000000;stroke-width:30;stroke-linecap:round;stroke-linejoin:round;stroke-miterlimit:22.926;stroke-dasharray:none;stroke-opacity:1"
         id="path3514" /></g><g
       id="g3516"
       transform="translate(360.5005,297.8115)"><path
         d="M 0,0 26.125,-15.031 52.25,-30.062 V -60.125 -90.188 L 26.125,-105.219 0,-120.25 l -26.125,15.031 -26.125,15.031 v 30.063 30.063 l 26.125,15.031 z"
         style="fill:none;stroke:#000000;stroke-width:30;stroke-linecap:round;stroke-linejoin:round;stroke-miterlimit:22.926;stroke-dasharray:none;stroke-opacity:1"
         id="path3518" /></g><g
       id="g3520"><g
         id="g3522"
         clip-path="url(#clipPath3526)"><g
           id="g3528"
           transform="translate(465,177.5615)"><path
             d="M 0,0 -26.125,15.031 -52.25,30.062 V 60.125 90.188 L -26.125,105.219 0,120.25"
             style="fill:none;stroke:#000000;stroke-width:30;stroke-linecap:round;stroke-linejoin:round;stroke-miterlimit:22.926;stroke-dasharray:none;stroke-opacity:1"
             id="path3530" /></g><g
           id="g3532"
           transform="translate(99.2261,207.6377)"><path
             d="M 0,0 26.125,-15.031 52.25,-30.062 V -60.125 -90.188 L 26.125,-105.219 0,-120.249 l -26.125,15.03 -26.125,15.031 v 30.063 30.063 l 26.125,15.031 z"
             style="fill:none;stroke:#000000;stroke-width:30;stroke-linecap:round;stroke-linejoin:round;stroke-miterlimit:22.926;stroke-dasharray:none;stroke-opacity:1"
             id="path3534" /></g></g></g><g
       id="g3536"
       transform="translate(203.7261,207.6377)"><path
         d="M 0,0 26.125,-15.031 52.25,-30.062 V -60.125 -90.188 L 26.125,-105.219 0,-120.249 l -26.125,15.03 -26.125,15.031 v 30.063 30.063 l 26.125,15.031 z"
         style="fill:none;stroke:#000000;stroke-width:30;stroke-linecap:round;stroke-linejoin:round;stroke-miterlimit:22.926;stroke-dasharray:none;stroke-opacity:1"
         id="path3538" /></g><g
       id="g3540"
       transform="translate(308.2256,207.6377)"><path
         d="M 0,0 26.125,-15.031 52.25,-30.062 V -60.125 -90.188 L 26.125,-105.219 0,-120.249 l -26.125,15.03 -26.125,15.031 v 30.063 30.063 l 26.125,15.031 z"
         style="fill:none;stroke:#000000;stroke-width:30;stroke-linecap:round;stroke-linejoin:round;stroke-miterlimit:22.926;stroke-dasharray:none;stroke-opacity:1"
         id="path3542" /></g><g
       id="g3544"><g
         id="g3546"
         clip-path="url(#clipPath3550)"><g
           id="g3552"
           transform="translate(412.7261,207.6377)"><path
             d="M 0,0 26.125,-15.031 52.25,-30.062 V -60.125 -90.188 L 26.125,-105.219 0,-120.249 l -26.125,15.03 -26.125,15.031 v 30.063 30.063 l 26.125,15.031 z"
             style="fill:none;stroke:#000000;stroke-width:30;stroke-linecap:round;stroke-linejoin:round;stroke-miterlimit:22.926;stroke-dasharray:none;stroke-opacity:1"
             id="path3554" /></g><g
           id="g3556"
           transform="translate(99.231,32)"><path
             d="M 0,0 V 25.325 55.389 L 26.125,70.42 52.25,85.45 78.375,70.42 104.5,55.389 V 25.325 5.263"
             style="fill:none;stroke:#000000;stroke-width:30;stroke-linecap:round;stroke-linejoin:round;stroke-miterlimit:22.926;stroke-dasharray:none;stroke-opacity:1"
             id="path3558" /></g><g
           id="g3560"
           transform="translate(203.731,37.2627)"><path
             d="M 0,0 V 20.062 50.126 L 26.125,65.157 52.25,80.188 78.375,65.157 104.5,50.126 V 20.062 0"
             style="fill:none;stroke:#000000;stroke-width:30;stroke-linecap:round;stroke-linejoin:round;stroke-miterlimit:22.926;stroke-dasharray:none;stroke-opacity:1"
             id="path3562" /></g><g
           id="g3564"
           transform="translate(308.2305,37.2627)"><path
             d="M 0,0 V 20.062 50.126 L 26.125,65.157 52.25,80.188 78.375,65.157 104.5,50.126 V 20.062 0"
             style="fill:none;stroke:#000000;stroke-width:30;stroke-linecap:round;stroke-linejoin:round;stroke-miterlimit:22.926;stroke-dasharray:none;stroke-opacity:1"
             id="path3566" /></g><g
           id="g3568"
           transform="translate(412.731,37.2627)"><path
             d="m 0,0 v 20.062 30.064 l 26.125,15.031 26.144,15.02"
             style="fill:none;stroke:#000000;stroke-width:30;stroke-linecap:round;stroke-linejoin:round;stroke-miterlimit:22.926;stroke-dasharray:none;stroke-opacity:1"
             id="path3570" /></g><path
           d="m 15,360 h 482 v 60 H 15 Z"
           style="fill:none;stroke:#000000;stroke-width:30;stroke-linecap:round;stroke-linejoin:round;stroke-miterlimit:22.926;stroke-dasharray:none;stroke-opacity:1"
           id="path3572" /><path
           d="M 47,32 H 465 V 360 H 47 Z"
           style="fill:none;stroke:#000000;stroke-width:30;stroke-linecap:round;stroke-linejoin:round;stroke-miterlimit:22.926;stroke-dasharray:none;stroke-opacity:1"
           id="path3574" /><g
           id="g3576"
           transform="translate(238.0869,480)"><path
             d="m 0,0 h 35.826 c 16.5,0 30,-13.504 30,-30 V -60 H -30 v 30 c 0,16.5 13.5,30 30,30 z"
             style="fill:none;stroke:#000000;stroke-width:30;stroke-linecap:round;stroke-linejoin:round;stroke-miterlimit:22.926;stroke-dasharray:none;stroke-opacity:1"
             id="path3578" /></g></g></g></g></svg>
