<svg xmlns="http://www.w3.org/2000/svg" height="512pt" version="1.1" viewBox="-91 0 512 512" width="512pt">
<g id="surface1">
<path d="M 175.882812 4.679688 C 173.050781 1.691406 169.117188 0 165 0 C 160.882812 0 156.949219 1.691406 154.117188 4.679688 C 105.722656 55.714844 0 181.914062 0 256 C 0 341.925781 66.023438 412.707031 150 420.3125 L 150 497 C 150 505.285156 156.714844 512 165 512 C 173.285156 512 180 505.285156 180 497 L 180 420.3125 C 263.976562 412.707031 330 341.925781 330 256 C 330 181.84375 223.179688 54.558594 175.882812 4.679688 Z M 180 390.160156 L 180 352.214844 L 265.605469 266.605469 C 271.464844 260.75 271.464844 251.253906 265.605469 245.394531 C 259.75 239.535156 250.25 239.535156 244.394531 245.394531 L 180 309.785156 L 180 262.214844 L 235.605469 206.605469 C 241.464844 200.75 241.464844 191.253906 235.605469 185.394531 C 229.75 179.535156 220.25 179.535156 214.394531 185.394531 L 180 219.785156 L 180 136 C 180 127.714844 173.285156 121 165 121 C 156.714844 121 150 127.714844 150 136 L 150 219.785156 L 115.605469 185.394531 C 109.75 179.535156 100.25 179.535156 94.394531 185.394531 C 88.535156 191.253906 88.535156 200.75 94.394531 206.605469 L 150 262.214844 L 150 309.785156 L 85.605469 245.394531 C 79.75 239.535156 70.25 239.535156 64.394531 245.394531 C 58.535156 251.253906 58.535156 260.75 64.394531 266.605469 L 150 352.214844 L 150 390.160156 C 82.59375 382.675781 30 325.367188 30 256 C 30 198.035156 119.144531 87.691406 165 37.085938 C 210.855469 87.691406 300 198.035156 300 256 C 300 325.367188 247.40625 382.675781 180 390.160156 Z M 180 390.160156 " style=" stroke:none;fill-rule:nonzero;fill:rgb(0%,0%,0%);fill-opacity:1;" />
</g>
</svg>