<?xml version="1.0" encoding="UTF-8" standalone="no"?>
<!-- Created with Inkscape (http://www.inkscape.org/) -->

<svg
   version="1.1"
   id="svg900"
   xml:space="preserve"
   width="682.66669"
   height="682.66669"
   viewBox="0 0 682.66669 682.66669"
   xmlns="http://www.w3.org/2000/svg"
   xmlns:svg="http://www.w3.org/2000/svg"><defs
     id="defs904"><clipPath
       clipPathUnits="userSpaceOnUse"
       id="clipPath914"><path
         d="M 0,512 H 512 V 0 H 0 Z"
         id="path912" /></clipPath></defs><g
     id="g906"
     transform="matrix(1.3333333,0,0,-1.3333333,0,682.66667)"><g
       id="g908"><g
         id="g910"
         clip-path="url(#clipPath914)"><g
           id="g916"
           transform="translate(466,196)"><path
             d="m 0,0 c 0,-82.8 -60,-120 -120,-120 -60,0 -66.599,30 -90,30 -23.401,0 -30,-30 -90,-30 -60,0 -120,37.2 -120,120 0,120 210,211 210,301 C -210,211 0,120 0,0 Z"
             style="fill:none;stroke:#000000;stroke-width:30;stroke-linecap:round;stroke-linejoin:round;stroke-miterlimit:10;stroke-dasharray:none;stroke-opacity:1"
             id="path918" /></g><g
           id="g920"
           transform="translate(256,495)"><path
             d="M 0,0 V -480"
             style="fill:none;stroke:#000000;stroke-width:30;stroke-linecap:round;stroke-linejoin:round;stroke-miterlimit:10;stroke-dasharray:none;stroke-opacity:1"
             id="path922" /></g><g
           id="g924"
           transform="translate(211,331)"><path
             d="M 0,0 45,-45"
             style="fill:none;stroke:#000000;stroke-width:30;stroke-linecap:round;stroke-linejoin:round;stroke-miterlimit:10;stroke-dasharray:none;stroke-opacity:1"
             id="path926" /></g><g
           id="g928"
           transform="translate(256,286)"><path
             d="M 0,0 45,45"
             style="fill:none;stroke:#000000;stroke-width:30;stroke-linecap:round;stroke-linejoin:round;stroke-miterlimit:10;stroke-dasharray:none;stroke-opacity:1"
             id="path930" /></g><g
           id="g932"
           transform="translate(181,271)"><path
             d="M 0,0 75,-75"
             style="fill:none;stroke:#000000;stroke-width:30;stroke-linecap:round;stroke-linejoin:round;stroke-miterlimit:10;stroke-dasharray:none;stroke-opacity:1"
             id="path934" /></g><g
           id="g936"
           transform="translate(256,196)"><path
             d="M 0,0 75,75"
             style="fill:none;stroke:#000000;stroke-width:30;stroke-linecap:round;stroke-linejoin:round;stroke-miterlimit:10;stroke-dasharray:none;stroke-opacity:1"
             id="path938" /></g><g
           id="g940"
           transform="translate(151,211)"><path
             d="M 0,0 105,-105"
             style="fill:none;stroke:#000000;stroke-width:30;stroke-linecap:round;stroke-linejoin:round;stroke-miterlimit:10;stroke-dasharray:none;stroke-opacity:1"
             id="path942" /></g><g
           id="g944"
           transform="translate(256,106)"><path
             d="M 0,0 105,105"
             style="fill:none;stroke:#000000;stroke-width:30;stroke-linecap:round;stroke-linejoin:round;stroke-miterlimit:10;stroke-dasharray:none;stroke-opacity:1"
             id="path946" /></g></g></g></g></svg>
