<?xml version="1.0" encoding="UTF-8" standalone="no"?>
<!-- Created with Inkscape (http://www.inkscape.org/) -->

<svg
   version="1.1"
   id="svg861"
   xml:space="preserve"
   width="682.66669"
   height="682.66669"
   viewBox="0 0 682.66669 682.66669"
   xmlns="http://www.w3.org/2000/svg"
   xmlns:svg="http://www.w3.org/2000/svg"><defs
     id="defs865"><clipPath
       clipPathUnits="userSpaceOnUse"
       id="clipPath875"><path
         d="M 0,512 H 512 V 0 H 0 Z"
         id="path873" /></clipPath><clipPath
       clipPathUnits="userSpaceOnUse"
       id="clipPath899"><path
         d="M 0,512 H 512 V 0 H 0 Z"
         id="path897" /></clipPath></defs><g
     id="g867"
     transform="matrix(1.3333333,0,0,-1.3333333,0,682.66667)"><g
       id="g869"><g
         id="g871"
         clip-path="url(#clipPath875)"><g
           id="g877"
           transform="translate(245.0244,457.5)"><path
             d="m 0,0 41.996,-24.247 41.996,-24.245 v -48.493 -48.493 L 41.996,-169.724 0,-193.97 l -41.996,24.246 -41.996,24.246 v 48.493 48.493 l 41.996,24.245 z"
             style="fill:none;stroke:#000000;stroke-width:30;stroke-linecap:round;stroke-linejoin:round;stroke-miterlimit:22.926;stroke-dasharray:none;stroke-opacity:1"
             id="path879" /></g><g
           id="g881"
           transform="translate(413.0078,457.5)"><path
             d="m 0,0 41.996,-24.247 41.996,-24.245 v -48.493 -48.493 L 41.996,-169.724 0,-193.97 l -41.996,24.246 -41.996,24.246 v 48.493 48.493 l 41.996,24.245 z"
             style="fill:none;stroke:#000000;stroke-width:30;stroke-linecap:round;stroke-linejoin:round;stroke-miterlimit:22.926;stroke-dasharray:none;stroke-opacity:1"
             id="path883" /></g></g></g><g
       id="g885"
       transform="translate(161.0327,312.0225)"><path
         d="m 0,0 41.996,-24.247 41.996,-24.246 v -48.492 -48.493 L 41.996,-169.724 0,-193.971 l -41.996,24.247 -41.996,24.246 v 48.493 48.492 l 41.996,24.246 z"
         style="fill:none;stroke:#000000;stroke-width:30;stroke-linecap:round;stroke-linejoin:round;stroke-miterlimit:22.926;stroke-dasharray:none;stroke-opacity:1"
         id="path887" /></g><g
       id="g889"
       transform="translate(329.0161,312.0225)"><path
         d="m 0,0 41.996,-24.247 41.996,-24.246 v -48.492 -48.493 L 41.996,-169.724 0,-193.971 l -41.996,24.247 -41.996,24.246 v 48.493 48.492 l 41.996,24.246 z"
         style="fill:none;stroke:#000000;stroke-width:30;stroke-linecap:round;stroke-linejoin:round;stroke-miterlimit:22.926;stroke-dasharray:none;stroke-opacity:1"
         id="path891" /></g><g
       id="g893"><g
         id="g895"
         clip-path="url(#clipPath899)"><g
           id="g901"
           transform="translate(72,168)"><path
             d="M 0,0 -57,-32.909"
             style="fill:none;stroke:#000000;stroke-width:30;stroke-linecap:round;stroke-linejoin:round;stroke-miterlimit:22.926;stroke-dasharray:none;stroke-opacity:1"
             id="path903" /></g><g
           id="g905"
           transform="translate(72,266.5913)"><path
             d="M 0,0 -57,32.909"
             style="fill:none;stroke:#000000;stroke-width:30;stroke-linecap:round;stroke-linejoin:round;stroke-miterlimit:22.926;stroke-dasharray:none;stroke-opacity:1"
             id="path907" /></g><g
           id="g909"
           transform="translate(161.0327,120.3174)"><path
             d="M 0,0 V -65.817"
             style="fill:none;stroke:#000000;stroke-width:30;stroke-linecap:round;stroke-linejoin:round;stroke-miterlimit:22.926;stroke-dasharray:none;stroke-opacity:1"
             id="path911" /></g></g></g></g></svg>
