<svg viewBox="0 0 512.00018 512" xmlns="http://www.w3.org/2000/svg"><path d="m437.027344 74.972656c-48.347656-48.347656-112.628906-74.972656-181-74.972656-8.285156 0-15 6.714844-15 15 0 8.28125 6.714844 14.996094 15 14.996094 124.601562 0 225.972656 101.375 225.976562 225.976562 0 8.285156 6.714844 15 14.996094 15 8.285156 0 15-6.714844 15-15 0-68.371094-26.628906-132.652344-74.972656-181zm0 0"/><path d="m256.027344 80.324219c-8.285156 0-15 6.714843-15 15 0 8.28125 6.714844 14.996093 15 14.996093 80.308594.003907 145.648437 65.34375 145.652344 145.65625 0 8.28125 6.714843 14.996094 14.996093 14.996094 8.285157 0 15-6.714844 15-15-.003906-96.847656-78.796875-175.644531-175.648437-175.648437zm0 0"/><path d="m321.351562 255.972656c0 8.285156 6.714844 15 15 15 8.28125 0 14.996094-6.714844 14.996094-15 0-52.558594-42.761718-95.320312-95.320312-95.320312-8.285156 0-15 6.714844-15 15 0 8.28125 6.714844 14.996094 15 14.996094 36.019531 0 65.324218 29.304687 65.324218 65.324218zm0 0"/><path d="m415.09375 370.195312c-.03125-.03125-.0625-.066406-.097656-.101562l-41.847656-41.847656c-10.417969-10.417969-24.269532-16.15625-39.003907-16.15625-14.707031 0-28.539062 5.71875-38.953125 16.105468-.011718.011719-.019531.019532-.03125.03125-.015625.015626-.03125.027344-.042968.042969-.007813.007813-.011719.011719-.015626.015625l-26.90625 26.90625-111.429687-111.433594 26.878906-26.882812c.03125-.03125.058594-.058594.089844-.089844 21.480469-21.507812 21.46875-56.480468-.027344-77.980468l-41.671875-41.671876c-.035156-.039062-.070312-.074218-.105468-.105468-.023438-.023438-.046876-.046875-.070313-.066406-.128906-.128907-.261719-.257813-.394531-.378907-10.363282-10.109375-24.003906-15.675781-38.503906-15.675781-14.644532 0-28.421876 5.667969-38.824219 15.976562-.0625.058594-.121094.117188-.179688.175782-.066406.066406-.132812.136718-.199219.203125l-37.246093 37.246093c-27.617188 27.613282-33.902344 72.1875-17.703125 125.507813 15.21875 50.085937 48.792968 102.871094 94.546875 148.625 63.722656 63.722656 141.425781 103.308594 202.78125 103.308594h.003906c29.363281 0 54.035156-9.148438 71.332031-26.453125.515625-.511719 19.757813-19.75 37.308594-37.304688.101562-.097656.199219-.195312.292969-.296875 21.066406-21.214843 21.285156-55.515625.59375-77.085937-.183594-.210938-.378907-.414063-.574219-.613282zm-21.296875 56.5625c-.027344.027344-.058594.054688-.085937.082032-17.578126 17.582031-36.914063 36.910156-37.4375 37.4375-11.726563 11.726562-28.59375 17.671875-50.132813 17.671875-53.695313 0-123.269531-36.21875-181.574219-94.519531-83.625-83.632813-118.816406-189.742188-76.84375-231.710938l37.433594-37.433594c.035156-.035156.074219-.074218.109375-.109375 4.742187-4.691406 11.019531-7.273437 17.695313-7.273437 6.714843 0 13.027343 2.613281 17.722656 7.296875.03125.03125.066406.066406.09375.097656l41.71875 41.71875c9.8125 9.8125 9.8125 25.777344 0 35.585937-.046875.050782-.097656.097657-.144532.144532l-37.402343 37.410156c-5.855469 5.855469-5.855469 15.351562 0 21.207031l132.640625 132.644531c2.8125 2.8125 6.628906 4.394532 10.605468 4.394532 3.976563 0 7.792969-1.582032 10.605469-4.394532l37.511719-37.511718c0-.003906 0-.003906 0-.003906.027344-.027344.054688-.054688.082031-.078126 4.746094-4.726562 11.050781-7.328124 17.75-7.328124 6.722657 0 13.042969 2.617187 17.792969 7.371093l41.722656 41.722657.125.121093c9.71875 9.789063 9.714844 25.671875.011719 35.457031zm0 0"/></svg>