<?xml version="1.0" encoding="UTF-8"?>
<svg xmlns="http://www.w3.org/2000/svg" xmlns:xlink="http://www.w3.org/1999/xlink" version="1.1" id="Capa_1" x="0px" y="0px" viewBox="0 0 511.597 511.597" style="enable-background:new 0 0 511.597 511.597;" xml:space="preserve" width="512" height="512">
<g>
	<path style="fill:none;stroke:#000000;stroke-width:30;stroke-linecap:round;stroke-linejoin:round;stroke-miterlimit:10;" d="&#10;&#9;&#9;M385.644,391.349L76.39,235.569v31.787c0,99.047,80.294,179.341,179.341,179.341h0c99.047,0,179.341-80.294,179.341-179.341&#10;&#9;&#9;l0.134-30.983L126.065,391.22"/>
	
		<line style="fill:none;stroke:#000000;stroke-width:30;stroke-linecap:round;stroke-linejoin:round;stroke-miterlimit:10;" x1="255.799" y1="446.697" x2="255.799" y2="496.597"/>
	<g>
		<path style="fill:none;stroke:#000000;stroke-width:30;stroke-linecap:round;stroke-linejoin:round;stroke-miterlimit:10;" d="&#10;&#9;&#9;&#9;M365.826,271.128c21.976-25.419,35.283-59.597,35.283-95.836l0.108-25.052L153.445,274.398"/>
		<path style="fill:none;stroke:#000000;stroke-width:30;stroke-linecap:round;stroke-linejoin:round;stroke-miterlimit:10;" d="&#10;&#9;&#9;&#9;M359.041,274.484L111.09,149.591v25.702c0,35.96,14.101,70.446,35.776,95.787"/>
	</g>
	<g>
		<path style="fill:none;stroke:#000000;stroke-width:30;stroke-linecap:round;stroke-linejoin:round;stroke-miterlimit:10;" d="&#10;&#9;&#9;&#9;M345.214,178.287c16.646-20.056,26.71-46.824,26.71-74.924l0.087-20.008l-196.748,98.517"/>
		<path style="fill:none;stroke:#000000;stroke-width:30;stroke-linecap:round;stroke-linejoin:round;stroke-miterlimit:10;" d="&#10;&#9;&#9;&#9;M337.564,182.17L140.296,82.835v20.527c0,27.548,9.362,53.858,25.424,73.738"/>
	</g>
	
		<polyline style="fill:none;stroke:#000000;stroke-width:30;stroke-linecap:round;stroke-linejoin:round;stroke-miterlimit:10;" points="&#10;&#9;&#9;180.327,102.979 256.206,15 333.3,102.739 &#9;"/>
</g>















</svg>
