<svg height="512pt" viewBox="0 0 512 512" width="512pt" xmlns="http://www.w3.org/2000/svg"><path d="m467 241h-116.523438c1.667969-4.695312 2.582032-9.742188 2.582032-15v-181c0-24.8125-20.1875-45-45-45h-181c-24.8125 0-45 20.1875-45 45v181c0 5.257812.914062 10.304688 2.578125 15h-39.636719c-24.8125 0-45 20.1875-45 45v181c0 24.8125 20.1875 45 45 45h181c11.515625 0 22.03125-4.351562 30-11.496094 7.96875 7.144532 18.484375 11.496094 30 11.496094h181c24.8125 0 45-20.1875 45-45v-181c0-24.8125-20.1875-45-45-45zm-354.941406-15v-181c0-8.269531 6.726562-15 15-15h181c8.269531 0 15 6.730469 15 15v181c0 8.269531-6.730469 15-15 15h-181c-8.273438 0-15-6.730469-15-15zm113.941406 256h-181c-8.269531 0-15-6.726562-15-15v-181c0-8.273438 6.730469-15 15-15h181c8.269531 0 15 6.726562 15 15v181c0 8.273438-6.730469 15-15 15zm256-15c0 8.273438-6.730469 15-15 15h-181c-8.269531 0-15-6.726562-15-15v-181c0-8.273438 6.730469-15 15-15h181c8.269531 0 15 6.726562 15 15zm0 0"/><path d="m245.867188 192.472656c1.078124 3.78125 4.679687 5.222656 9.179687 5.222656 7.738281 0 18-4.859374 18-11.519531 0-.542969-.179687-1.261719-.359375-1.980469l-33.660156-109.796874c-1.980469-6.300782-10.082032-9.359376-18.359375-9.359376-8.28125 0-16.378907 3.058594-18.359375 9.359376l-33.480469 109.792968c-.179687.722656-.359375 1.441406-.359375 1.980469 0 6.660156 10.261719 11.519531 18 11.519531 4.5 0 8.101562-1.4375 9.179688-5.21875l6.121093-22.5h37.976563zm-38.339844-44.097656 13.140625-48.238281 13.140625 48.238281zm0 0"/><path d="m161.8125 367.902344c9.539062-4.140625 15.296875-13.679688 15.296875-28.257813 0-25.558593-18-32.039062-35.996094-32.039062h-36.898437c-6.121094 0-12.238282 2.878906-12.238282 8.640625v114.476562c0 4.5 4.679688 8.457032 12.238282 8.457032h39.957031c20.339844 0 36.179687-10.257813 36.179687-38.695313v-3.78125c0-18-7.5625-24.660156-18.539062-28.800781zm-41.941406-35.816406h18.902344c6.839843 0 10.257812 6.300781 10.257812 12.597656 0 6.121094-3.417969 12.421875-10.257812 12.421875h-18.902344zm32.402344 66.058593c0 11.519531-5.402344 16.558594-14.402344 16.558594h-18v-36h18c9 0 14.402344 4.320313 14.402344 16.558594zm0 0"/><path d="m373.300781 332.085938c15.300781 0 15.839844 11.519531 16.019531 16.199218.359376 6.480469 6.480469 8.457032 14.039063 8.457032 9.539063 0 14.039063-2.519532 14.039063-13.316407 0-22.859375-19.4375-35.820312-45.179688-35.820312-23.578125 0-43.195312 11.523437-43.195312 42.480469v47.695312c0 30.960938 19.617187 42.480469 43.195312 42.480469 25.742188 0 45.179688-13.679688 45.179688-37.617188 0-10.800781-4.5-13.320312-14.21875-13.320312-7.199219 0-13.320313 1.800781-13.859376 8.460937-.539062 7.019532-1.4375 18-15.839843 18-10.441407 0-16.378907-5.761718-16.378907-18v-47.699218c0-12.242188 5.9375-18 16.199219-18zm0 0"/></svg>