<?xml version="1.0" encoding="UTF-8" standalone="no"?>
<!-- Created with Inkscape (http://www.inkscape.org/) -->

<svg
   version="1.1"
   id="svg2670"
   xml:space="preserve"
   width="682.66669"
   height="682.66669"
   viewBox="0 0 682.66669 682.66669"
   xmlns="http://www.w3.org/2000/svg"
   xmlns:svg="http://www.w3.org/2000/svg"><defs
     id="defs2674"><clipPath
       clipPathUnits="userSpaceOnUse"
       id="clipPath2684"><path
         d="M 0,512 H 512 V 0 H 0 Z"
         id="path2682" /></clipPath></defs><g
     id="g2676"
     transform="matrix(1.3333333,0,0,-1.3333333,0,682.66667)"><g
       id="g2678"><g
         id="g2680"
         clip-path="url(#clipPath2684)"><g
           id="g2686"
           transform="translate(316,383.2158)"><path
             d="m 0,0 -51.211,51.211 c -11.719,11.719 -11.719,30.703 0,42.422 11.719,11.719 30.703,11.719 42.422,0 L 0,84.844 8.789,93.633 c 11.719,11.719 30.703,11.719 42.422,0 11.719,-11.719 11.719,-30.703 0,-42.422 z"
             style="fill:none;stroke:#000000;stroke-width:30;stroke-linecap:butt;stroke-linejoin:miter;stroke-miterlimit:10;stroke-dasharray:none;stroke-opacity:1"
             id="path2688" /></g><g
           id="g2690"
           transform="translate(46,317)"><path
             d="m 0,0 v -62 c 0,-33.137 26.863,-60 60,-60 h 240 c 33.137,0 60,26.863 60,60 V 0 Z"
             style="fill:none;stroke:#000000;stroke-width:30;stroke-linecap:butt;stroke-linejoin:miter;stroke-miterlimit:10;stroke-dasharray:none;stroke-opacity:1"
             id="path2692" /></g><g
           id="g2694"
           transform="translate(166,60)"><path
             d="m 0,0 c 0,-24.853 -20.147,-45 -45,-45 -24.853,0 -45,20.147 -45,45 0,24.853 20.147,45 45,45 C -20.147,45 0,24.853 0,0 Z"
             style="fill:none;stroke:#000000;stroke-width:30;stroke-linecap:butt;stroke-linejoin:miter;stroke-miterlimit:10;stroke-dasharray:none;stroke-opacity:1"
             id="path2696" /></g><g
           id="g2698"
           transform="translate(376,60)"><path
             d="m 0,0 c 0,-24.853 -20.147,-45 -45,-45 -24.853,0 -45,20.147 -45,45 0,24.853 20.147,45 45,45 C -20.147,45 0,24.853 0,0 Z"
             style="fill:none;stroke:#000000;stroke-width:30;stroke-linecap:butt;stroke-linejoin:miter;stroke-miterlimit:10;stroke-dasharray:none;stroke-opacity:1"
             id="path2700" /></g><g
           id="g2702"
           transform="translate(157.6206,86.1577)"><path
             d="M 0,0 68.379,48.842 136.759,0"
             style="fill:none;stroke:#000000;stroke-width:30;stroke-linecap:butt;stroke-linejoin:miter;stroke-miterlimit:10;stroke-dasharray:none;stroke-opacity:1"
             id="path2704" /></g><g
           id="g2706"
           transform="translate(226,195)"><path
             d="M 0,0 V -60.001"
             style="fill:none;stroke:#000000;stroke-width:30;stroke-linecap:butt;stroke-linejoin:miter;stroke-miterlimit:10;stroke-dasharray:none;stroke-opacity:1"
             id="path2708" /></g><g
           id="g2710"
           transform="translate(46,317)"><path
             d="m 0,0 v 90 c 0,49.706 40.294,90 90,90 h 60 V 0"
             style="fill:none;stroke:#000000;stroke-width:30;stroke-linecap:butt;stroke-linejoin:miter;stroke-miterlimit:10;stroke-dasharray:none;stroke-opacity:1"
             id="path2712" /></g><g
           id="g2714"
           transform="translate(481,407)"><path
             d="M 0,0 H -45 C -61.568,0 -75,-13.432 -75,-30 V -90"
             style="fill:none;stroke:#000000;stroke-width:30;stroke-linecap:butt;stroke-linejoin:miter;stroke-miterlimit:10;stroke-dasharray:none;stroke-opacity:1"
             id="path2716" /></g></g></g></g></svg>
