<svg version="1.1" id="Layer_1" xmlns="http://www.w3.org/2000/svg" xmlns:xlink="http://www.w3.org/1999/xlink" x="0px" y="0px" viewBox="0 0 512 512" style="enable-background:new 0 0 512 512;" xml:space="preserve">
<g>
	<g>
		<g>
			<path style="fill:none;stroke:#000000;stroke-width:30;stroke-linecap:round;stroke-linejoin:round;stroke-miterlimit:10;" d="&#10;&#9;&#9;&#9;&#9;M284.111,80.663h-56.778c-84.48,0-152.964,68.484-152.964,152.964v236.074c0,15.077,12.222,27.299,27.299,27.299h308.107&#10;&#9;&#9;&#9;&#9;c15.077,0,27.299-12.222,27.299-27.299V233.627C437.075,149.147,368.591,80.663,284.111,80.663z"/>
			<path style="fill:none;stroke:#000000;stroke-width:30;stroke-linecap:round;stroke-linejoin:round;stroke-miterlimit:10;" d="&#10;&#9;&#9;&#9;&#9;M279.905,143.447H231.54c-52.081,0-94.301,42.22-94.301,94.301v22.024h236.968v-22.024&#10;&#9;&#9;&#9;&#9;C374.206,185.667,331.986,143.447,279.905,143.447z"/>
			
				<rect x="137.239" y="320.934" style="fill:none;stroke:#000000;stroke-width:30;stroke-linecap:round;stroke-linejoin:round;stroke-miterlimit:10;" width="236.968" height="117.215"/>
		</g>
		<path style="fill:none;stroke:#000000;stroke-width:30;stroke-linecap:round;stroke-linejoin:round;stroke-miterlimit:10;" d="&#10;&#9;&#9;&#9;M101.701,496.971H41.112C26.691,496.971,15,485.282,15,470.862V362.242c0-23.853,19.363-43.19,43.248-43.19H74.37"/>
		<path style="fill:none;stroke:#000000;stroke-width:30;stroke-linecap:round;stroke-linejoin:round;stroke-miterlimit:10;" d="&#10;&#9;&#9;&#9;M409.745,496.971h61.143c14.421,0,26.112-11.689,26.112-26.109V362.242c0-23.853-19.363-43.19-43.248-43.19H437.63"/>
		<g>
			
				<polyline style="fill:none;stroke:#000000;stroke-width:30;stroke-linecap:round;stroke-linejoin:round;stroke-miterlimit:10;" points="&#10;&#9;&#9;&#9;&#9;105.192,141.584 105.192,15.065 167.739,15.065 167.739,92.753 &#9;&#9;&#9;"/>
			
				<polyline style="fill:none;stroke:#000000;stroke-width:30;stroke-linecap:round;stroke-linejoin:round;stroke-miterlimit:10;" points="&#10;&#9;&#9;&#9;&#9;343.706,92.753 343.706,15.065 406.253,15.065 406.253,141.584 &#9;&#9;&#9;"/>
		</g>
		<path style="fill:none;stroke:#000000;stroke-width:30;stroke-linecap:round;stroke-linejoin:round;stroke-miterlimit:10;" d="&#10;&#9;&#9;&#9;M285.594,80.663V44.832C285.594,28.356,272.22,15,255.723,15h0c-16.498,0-29.872,13.356-29.872,29.832v35.831"/>
	</g>
	
		<line style="fill:none;stroke:#000000;stroke-width:30;stroke-linecap:round;stroke-linejoin:round;stroke-miterlimit:10;" x1="196.522" y1="320.934" x2="196.522" y2="365.706"/>
</g>
<g>
</g>
<g>
</g>
<g>
</g>
<g>
</g>
<g>
</g>
<g>
</g>
<g>
</g>
<g>
</g>
<g>
</g>
<g>
</g>
<g>
</g>
<g>
</g>
<g>
</g>
<g>
</g>
<g>
</g>
</svg>