<svg id="Layer_1" enable-background="new 0 0 512 512" height="512" viewBox="0 0 512 512" width="512" xmlns="http://www.w3.org/2000/svg"><g><path d="m431.393 175.667c0-96.863-78.804-175.667-175.667-175.667-226.472 13.198-227.136 305.875-37.496 361.705l-19.865 39.758c-1.907 3.816-2.099 8.266-.526 12.232 1.573 3.967 4.761 7.076 8.766 8.549 8.818 3.244 17.697 5.675 26.375 7.258-2.252 13.34 1.753 27.561 12.117 37.925 5.212 5.236 5.208 13.753 0 18.985-5.796 5.82-5.84 15.355-.095 21.1 5.527 5.527 15.194 6.463 21.525-.104 17.168-17.433 16.168-44.99-.249-61.241-4.006-3.963-4.919-9.897-2.774-14.774 13.233-.893 27.367-4.004 41.345-9.147 8.224-2.816 12.298-13.115 8.231-20.797l-19.908-39.733c65.061-18.791 138.221-83.648 138.221-186.049zm-175.667 226c-7.083 0-14.705-.931-22.562-2.732l15.854-31.729c4.501.259 8.831.26 13.349.001l15.899 31.733c-7.847 1.798-15.463 2.727-22.54 2.727zm0-64.267c-25.031 0-145.667-31.422-145.667-161.733 7.999-193.243 283.36-193.195 291.334.001 0 106.3-92.006 161.732-145.667 161.732z"/><path d="m293.193 107.113c-16.278 0-28.73 7.093-37.491 15.699-8.76-8.606-21.212-15.699-37.492-15.699-31.894 0-57.842 25.948-57.842 57.842 0 67.683 85.356 108.297 88.99 109.993 4.021 1.876 8.666 1.876 12.688 0 3.634-1.696 88.989-42.31 88.989-109.993 0-31.894-25.947-57.842-57.842-57.842zm-37.502 137.35c-29.515-16.217-65.322-45.698-65.322-79.509 0-15.352 12.49-27.842 27.842-27.842 15.723 0 23 16.048 23.585 17.4 4.889 12.778 22.928 12.771 27.813 0 .588-1.359 7.866-17.4 23.585-17.4 15.352 0 27.842 12.49 27.842 27.842-.001 33.778-35.659 63.17-65.345 79.509z"/></g></svg>