<?xml version="1.0" encoding="UTF-8" standalone="no"?>
<!-- Created with Inkscape (http://www.inkscape.org/) -->

<svg
   version="1.1"
   id="svg711"
   xml:space="preserve"
   width="682.66669"
   height="682.66669"
   viewBox="0 0 682.66669 682.66669"
   xmlns="http://www.w3.org/2000/svg"
   xmlns:svg="http://www.w3.org/2000/svg"><defs
     id="defs715"><clipPath
       clipPathUnits="userSpaceOnUse"
       id="clipPath725"><path
         d="M 0,512 H 512 V 0 H 0 Z"
         id="path723" /></clipPath><clipPath
       clipPathUnits="userSpaceOnUse"
       id="clipPath757"><path
         d="M 0,512 H 512 V 0 H 0 Z"
         id="path755" /></clipPath></defs><g
     id="g717"
     transform="matrix(1.3333333,0,0,-1.3333333,0,682.66667)"><g
       id="g719"><g
         id="g721"
         clip-path="url(#clipPath725)"><path
           d="M 31.067,207.8 H 480.933 V 465.086 H 31.067 Z"
           style="fill:none;stroke:#000000;stroke-width:30;stroke-linecap:round;stroke-linejoin:round;stroke-miterlimit:10;stroke-dasharray:none;stroke-opacity:1"
           id="path727" /><g
           id="g729"
           transform="translate(256,497)"><path
             d="M 0,0 V -32.133"
             style="fill:none;stroke:#000000;stroke-width:30;stroke-linecap:round;stroke-linejoin:round;stroke-miterlimit:10;stroke-dasharray:none;stroke-opacity:1"
             id="path731" /></g><path
           d="M 15,143.533 H 497 V 207.8 H 15 Z"
           style="fill:none;stroke:#000000;stroke-width:30;stroke-linecap:round;stroke-linejoin:round;stroke-miterlimit:10;stroke-dasharray:none;stroke-opacity:1"
           id="path733" /><g
           id="g735"
           transform="translate(111.3999,15)"><path
             d="M 0,0 48.2,128.533"
             style="fill:none;stroke:#000000;stroke-width:30;stroke-linecap:round;stroke-linejoin:round;stroke-miterlimit:10;stroke-dasharray:none;stroke-opacity:1"
             id="path737" /></g><g
           id="g739"
           transform="translate(400.6001,15)"><path
             d="M 0,0 -48.2,128.533"
             style="fill:none;stroke:#000000;stroke-width:30;stroke-linecap:round;stroke-linejoin:round;stroke-miterlimit:10;stroke-dasharray:none;stroke-opacity:1"
             id="path741" /></g></g></g><g
       id="g743"
       transform="translate(87.2998,272.0669)"><path
         d="M 0,0 48.2,128.533 96.4,0"
         style="fill:none;stroke:#000000;stroke-width:30;stroke-linecap:round;stroke-linejoin:round;stroke-miterlimit:10;stroke-dasharray:none;stroke-opacity:1"
         id="path745" /></g><g
       id="g747"
       transform="translate(99.3501,304.2002)"><path
         d="M 0,0 H 72.3"
         style="fill:none;stroke:#000000;stroke-width:30;stroke-linecap:round;stroke-linejoin:round;stroke-miterlimit:10;stroke-dasharray:none;stroke-opacity:1"
         id="path749" /></g><g
       id="g751"><g
         id="g753"
         clip-path="url(#clipPath757)"><g
           id="g759"
           transform="translate(231.8999,272.0669)"><path
             d="m 0,0 v 128.533 h 32.551 c 8.411,0 16.476,-3.342 22.429,-9.286 5.945,-5.953 9.287,-14.018 9.287,-22.43 v -0.016 c 0,-8.627 -3.431,-16.902 -9.528,-23.007 -6.105,-6.097 -14.38,-9.527 -23.007,-9.527 H 0 32.551 c 8.411,0 16.476,-3.343 22.429,-9.287 5.945,-5.953 9.287,-14.018 9.287,-22.429 V 32.535 C 64.267,23.907 60.836,15.632 54.739,9.527 48.634,3.43 40.359,0 31.732,0 Z"
             style="fill:none;stroke:#000000;stroke-width:30;stroke-linecap:round;stroke-linejoin:round;stroke-miterlimit:10;stroke-dasharray:none;stroke-opacity:1"
             id="path761" /></g><g
           id="g763"
           transform="translate(416.6665,304.2002)"><path
             d="m 0,0 v -0.017 c 0,-17.737 -14.379,-32.116 -32.117,-32.116 h -0.016 c -17.746,0 -32.134,14.387 -32.134,32.133 v 64.267 c 0,17.745 14.388,32.133 32.134,32.133 C -14.387,96.4 0,82.012 0,64.267"
             style="fill:none;stroke:#000000;stroke-width:30;stroke-linecap:round;stroke-linejoin:round;stroke-miterlimit:10;stroke-dasharray:none;stroke-opacity:1"
             id="path765" /></g></g></g></g></svg>
