<?xml version="1.0" encoding="iso-8859-1"?>
<!-- Generator: Adobe Illustrator 19.0.0, SVG Export Plug-In . SVG Version: 6.00 Build 0)  -->
<svg version="1.1" id="Layer_1" xmlns="http://www.w3.org/2000/svg" xmlns:xlink="http://www.w3.org/1999/xlink" x="0px" y="0px"
	 viewBox="0 0 512 512" style="enable-background:new 0 0 512 512;" xml:space="preserve">
<g>
	<g>
		<path d="M512,212.023c0-20.03-7.8-38.862-21.964-53.026c-11.223-11.223-25.38-18.431-40.738-20.949
			c5.344-24.434-1.793-50.578-20.254-69.039c-11.733-11.732-26.672-19.082-42.839-21.265c-9.989-23.314-29.157-40.07-52.866-45.676
			c-25.521-6.033-51.815,1.423-70.34,19.947c-2.544,2.544-4.874,5.243-6.999,8.069c-2.125-2.826-4.455-5.524-6.999-8.069
			c-18.524-18.525-44.82-25.979-70.34-19.947c-23.709,5.606-42.878,22.361-52.867,45.676c-16.167,2.184-31.106,9.533-42.839,21.265
			c-18.461,18.461-25.597,44.606-20.253,69.04c-15.358,2.519-29.515,9.727-40.738,20.949C7.8,173.161,0,191.993,0,212.023
			c0,16.449,5.269,32.083,14.994,44.994C5.269,269.929,0,285.563,0,302.012c0,20.03,7.8,38.862,21.964,53.026
			c11.229,11.229,25.395,18.439,40.762,20.953c-1.141,5.234-1.734,10.6-1.734,16.009c0,38.313,28.887,69.986,66.021,74.435
			c11.467,26.756,38.058,45.549,68.961,45.549c24.524,0,46.334-11.833,60.025-30.09c13.691,18.257,35.501,30.09,60.025,30.09
			c30.903,0,57.495-18.794,68.961-45.549c37.134-4.449,66.021-36.122,66.021-74.435c0-5.409-0.593-10.775-1.734-16.01
			c15.367-2.515,29.533-9.725,40.762-20.953C504.2,340.873,512,322.041,512,302.011c0-16.449-5.269-32.083-14.994-44.994
			C506.731,244.107,512,228.472,512,212.023z M241.032,77.041v149.981c0,24.81-20.184,44.994-44.994,44.994
			c-8.283,0-14.998,6.715-14.998,14.998c0,8.283,6.715,14.998,14.998,14.998c16.869,0,32.452-5.602,44.994-15.039v148.717
			c-0.037,0.431-0.066,0.865-0.066,1.305c0.003,24.81-20.181,44.994-44.991,44.994s-44.994-20.184-44.994-44.994
			c0-8.283-6.715-14.998-14.998-14.998c-7.428,0-13.578,5.406-14.772,12.494c-17.574-6.127-30.222-22.855-30.222-42.491
			c0-6.074,1.222-12.056,3.566-17.583c12.537-3.366,24.037-9.954,33.463-19.38c2.522-2.522,4.832-5.198,6.943-7.997
			c0.341-0.007,0.682-0.035,1.024-0.035c24.81,0,44.994,20.184,44.994,44.994c0,8.283,6.715,14.998,14.998,14.998
			c8.283,0,14.998-6.715,14.998-14.998c0-37.169-27.188-68.093-62.718-73.969c1.128-5.206,1.726-10.565,1.726-16.019
			c0-20.03-7.8-38.862-21.964-53.026c-5.856-5.857-15.353-5.857-21.21,0s-5.857,15.353,0,21.21
			c8.499,8.499,13.178,19.797,13.178,31.816c0,12.018-4.68,23.317-13.179,31.816c-8.498,8.499-19.796,13.178-31.815,13.178
			c-12.018,0-23.317-4.68-31.816-13.178c-8.499-8.498-13.179-19.797-13.179-31.816c0-9.032,2.645-17.657,7.565-24.993
			c11.262,6.509,24.074,9.995,37.429,9.995c8.283,0,14.998-6.715,14.998-14.998c0-8.283-6.715-14.998-14.998-14.998
			c-12.018,0-23.317-4.68-31.816-13.178c-8.499-8.498-13.178-19.797-13.178-31.816c0-12.018,4.68-23.317,13.178-31.816
			s19.797-13.178,31.816-13.178c12.018,0,23.317,4.68,31.815,13.178c5.856,5.857,15.353,5.856,21.21,0
			c5.857-5.857,5.857-15.353,0-21.21c-9.428-9.428-20.929-16.017-33.471-19.383c-7.102-16.682-3.504-36.271,9.621-49.396
			c8.499-8.499,19.797-13.178,31.816-13.178s23.317,4.68,31.815,13.178c5.857,5.856,15.353,5.857,21.21,0s5.857-15.353,0-21.21
			c-8.731-8.731-19.24-15.034-30.705-18.593c6.577-9.761,15.994-16.493,27.26-19.157c15.326-3.625,31.111,0.85,42.227,11.965
			c8.499,8.499,13.178,19.797,13.178,31.816c0,0.538,0.031,1.069,0.086,1.593C241.049,76.771,241.032,76.904,241.032,77.041z
			 M437.011,287.014c13.355,0,26.169-3.486,37.429-9.995c4.92,7.336,7.565,15.961,7.565,24.993
			c-0.001,12.017-4.681,23.316-13.179,31.815c-8.499,8.499-19.797,13.178-31.816,13.178c-12.018,0-23.317-4.68-31.816-13.178
			c-8.499-8.498-13.178-19.797-13.178-31.816c0-12.018,4.68-23.317,13.178-31.816c5.857-5.857,5.857-15.353,0-21.21
			c-5.856-5.857-15.353-5.857-21.21,0c-14.164,14.164-21.964,32.995-21.964,53.026c0,5.454,0.598,10.813,1.726,16.019
			c-35.529,5.876-62.718,36.8-62.718,73.969c0,8.283,6.715,14.998,14.998,14.998c8.283,0,14.998-6.715,14.998-14.998
			c0-24.81,20.184-44.994,44.994-44.994c0.341,0,0.682,0.028,1.024,0.035c2.111,2.799,4.42,5.475,6.943,7.997
			c9.426,9.426,20.924,16.014,33.463,19.379c2.344,5.526,3.566,11.509,3.566,17.583c0,19.635-12.648,36.363-30.222,42.491
			c-1.194-7.088-7.344-12.494-14.772-12.494c-8.283,0-14.998,6.715-14.998,14.998c0,24.81-20.184,44.994-44.994,44.994
			c-24.81,0-44.994-20.184-44.994-44.994V286.973c12.542,9.437,28.125,15.039,44.994,15.039c8.283,0,14.998-6.715,14.998-14.998
			c0-8.283-6.715-14.998-14.998-14.998c-24.81,0-44.994-20.184-44.994-44.994V77.041c0-0.337-0.029-0.668-0.05-1
			c0.022-0.332,0.05-0.663,0.05-1c0-12.018,4.68-23.317,13.178-31.816c11.117-11.116,26.905-15.59,42.227-11.965
			c11.267,2.664,20.683,9.396,27.26,19.156c-11.466,3.559-21.974,9.862-30.705,18.593c-5.856,5.857-5.856,15.353,0,21.21
			c5.856,5.856,15.353,5.857,21.21,0c8.498-8.499,19.796-13.178,31.815-13.178c12.018,0,23.317,4.68,31.816,13.179
			c13.124,13.124,16.723,32.714,9.621,49.396c-12.54,3.366-24.043,9.955-33.47,19.383c-5.857,5.857-5.857,15.353,0,21.21
			c5.856,5.857,15.353,5.857,21.21,0c8.499-8.499,19.797-13.178,31.816-13.178c12.018,0,23.317,4.68,31.816,13.178
			c8.499,8.498,13.178,19.797,13.178,31.816c0,12.018-4.68,23.317-13.178,31.816c-8.498,8.499-19.797,13.178-31.816,13.178
			c-8.283,0-14.998,6.715-14.998,14.998C422.013,280.299,428.728,287.014,437.011,287.014z"/>
	</g>
</g>
<g>
	<g>
		<path d="M331.022,182.027c0-12.018,4.68-23.317,13.178-31.816c5.858-5.857,5.858-15.353,0.001-21.21
			c-5.856-5.857-15.353-5.857-21.21,0c-14.164,14.164-21.964,32.996-21.964,53.026c0,20.03,7.8,38.862,21.964,53.026
			c2.929,2.929,6.767,4.393,10.605,4.393c3.837,0,7.677-1.464,10.605-4.393c5.857-5.857,5.857-15.353,0-21.21
			C335.702,205.344,331.022,194.045,331.022,182.027z"/>
	</g>
</g>
<g>
	<g>
		<path d="M189.009,129.001c-5.856-5.857-15.353-5.857-21.21,0c-5.857,5.857-5.857,15.353,0,21.21
			c8.499,8.499,13.178,19.797,13.178,31.816s-4.68,23.317-13.178,31.816c-5.857,5.857-5.857,15.353,0,21.21
			c2.929,2.929,6.767,4.393,10.605,4.393s7.677-1.464,10.605-4.393c14.165-14.164,21.965-32.996,21.965-53.026
			C210.973,161.997,203.173,143.165,189.009,129.001z"/>
	</g>
</g>
<g>
</g>
<g>
</g>
<g>
</g>
<g>
</g>
<g>
</g>
<g>
</g>
<g>
</g>
<g>
</g>
<g>
</g>
<g>
</g>
<g>
</g>
<g>
</g>
<g>
</g>
<g>
</g>
<g>
</g>
</svg>
