<?xml version="1.0" encoding="UTF-8" standalone="no"?>
<!-- Created with Inkscape (http://www.inkscape.org/) -->

<svg
   version="1.1"
   id="svg576"
   xml:space="preserve"
   width="682.66669"
   height="682.66669"
   viewBox="0 0 682.66669 682.66669"
   xmlns="http://www.w3.org/2000/svg"
   xmlns:svg="http://www.w3.org/2000/svg"><defs
     id="defs580"><clipPath
       clipPathUnits="userSpaceOnUse"
       id="clipPath594"><path
         d="M 0,512 H 512 V 0 H 0 Z"
         id="path592" /></clipPath></defs><g
     id="g582"
     transform="matrix(1.3333333,0,0,-1.3333333,0,682.66667)"><g
       id="g584"
       transform="translate(183.6968,167.6328)"><path
         d="M 0,0 H 144.602"
         style="fill:none;stroke:#000000;stroke-width:30;stroke-linecap:round;stroke-linejoin:round;stroke-miterlimit:10;stroke-dasharray:none;stroke-opacity:1"
         id="path586" /></g><g
       id="g588"><g
         id="g590"
         clip-path="url(#clipPath594)"><g
           id="g596"
           transform="translate(424.6992,167.6328)"><path
             d="m 0,0 h 32.133 c 22.092,0 40.168,18.076 40.168,40.166 v 8.035 c 0,44.182 -36.151,80.332 -80.334,80.332 h -361.5 c -22.091,0 -40.166,-18.074 -40.166,-40.166 V 40.166 C -409.699,18.076 -391.624,0 -369.533,0 h 32.137"
             style="fill:none;stroke:#000000;stroke-width:30;stroke-linecap:round;stroke-linejoin:round;stroke-miterlimit:10;stroke-dasharray:none;stroke-opacity:1"
             id="path598" /></g><g
           id="g600"
           transform="translate(183.7002,167.6328)"><path
             d="M 0,0 H 144.603"
             style="fill:none;stroke:#000000;stroke-width:30;stroke-linecap:round;stroke-linejoin:round;stroke-miterlimit:10;stroke-dasharray:none;stroke-opacity:1"
             id="path602" /></g><g
           id="g604"
           transform="translate(239.9365,392.5664)"><path
             d="M 0,0 V -96.4"
             style="fill:none;stroke:#000000;stroke-width:30;stroke-linecap:round;stroke-linejoin:round;stroke-miterlimit:10;stroke-dasharray:none;stroke-opacity:1"
             id="path606" /></g><g
           id="g608"
           transform="translate(400.5996,296.166)"><path
             d="M 0,0 -30.238,60.473 C -40.115,80.232 -66.275,96.4 -88.367,96.4 h -144.599 c -22.092,0 -48.251,-16.168 -58.128,-35.927 L -321.333,0"
             style="fill:none;stroke:#000000;stroke-width:30;stroke-linecap:round;stroke-linejoin:round;stroke-miterlimit:10;stroke-dasharray:none;stroke-opacity:1"
             id="path610" /></g><g
           id="g612"
           transform="translate(424.6992,167.6328)"><path
             d="m 0,0 c 0,-26.619 -21.582,-48.199 -48.197,-48.199 -26.616,0 -48.199,21.58 -48.199,48.199 0,26.621 21.583,48.201 48.199,48.201 C -21.582,48.201 0,26.621 0,0 Z"
             style="fill:none;stroke:#000000;stroke-width:30;stroke-linecap:round;stroke-linejoin:round;stroke-miterlimit:10;stroke-dasharray:none;stroke-opacity:1"
             id="path614" /></g><g
           id="g616"
           transform="translate(183.7002,167.6328)"><path
             d="m 0,0 c 0,-26.619 -21.582,-48.199 -48.197,-48.199 -26.616,0 -48.2,21.58 -48.2,48.199 0,26.621 21.584,48.201 48.2,48.201 C -21.582,48.201 0,26.621 0,0 Z"
             style="fill:none;stroke:#000000;stroke-width:30;stroke-linecap:round;stroke-linejoin:round;stroke-miterlimit:10;stroke-dasharray:none;stroke-opacity:1"
             id="path618" /></g><g
           id="g620"
           transform="translate(495.375,231.9004)"><path
             d="M 0,0 H -22.475"
             style="fill:none;stroke:#000000;stroke-width:30;stroke-linecap:round;stroke-linejoin:round;stroke-miterlimit:10;stroke-dasharray:none;stroke-opacity:1"
             id="path622" /></g><g
           id="g624"
           transform="translate(264.0312,231.9004)"><path
             d="M 0,0 H -16.066"
             style="fill:none;stroke:#000000;stroke-width:30;stroke-linecap:round;stroke-linejoin:round;stroke-miterlimit:10;stroke-dasharray:none;stroke-opacity:1"
             id="path626" /></g></g></g></g></svg>
