<?xml version="1.0" encoding="UTF-8" standalone="no"?>
<!-- Created with Inkscape (http://www.inkscape.org/) -->

<svg
   version="1.1"
   id="svg1170"
   xml:space="preserve"
   width="682.66669"
   height="682.66669"
   viewBox="0 0 682.66669 682.66669"
   xmlns="http://www.w3.org/2000/svg"
   xmlns:svg="http://www.w3.org/2000/svg"><defs
     id="defs1174"><clipPath
       clipPathUnits="userSpaceOnUse"
       id="clipPath1184"><path
         d="M 0,512 H 512 V 0 H 0 Z"
         id="path1182" /></clipPath></defs><g
     id="g1176"
     transform="matrix(1.3333333,0,0,-1.3333333,0,682.66667)"><g
       id="g1178"><g
         id="g1180"
         clip-path="url(#clipPath1184)"><g
           id="g1186"
           transform="translate(386,447)"><path
             d="m 0,0 c 0,-27.614 -22.386,-50 -50,-50 -27.614,0 -50,22.386 -50,50 0,27.614 22.386,50 50,50 C -22.386,50 0,27.614 0,0 Z"
             style="fill:none;stroke:#000000;stroke-width:30;stroke-linecap:round;stroke-linejoin:round;stroke-miterlimit:10;stroke-dasharray:none;stroke-opacity:1"
             id="path1188" /></g><path
           d="M 406,177 H 286 V 15 h 120 z"
           style="fill:none;stroke:#000000;stroke-width:30;stroke-linecap:round;stroke-linejoin:round;stroke-miterlimit:10;stroke-dasharray:none;stroke-opacity:1"
           id="path1190" /><g
           id="g1192"
           transform="translate(346,15)"><path
             d="M 0,0 V 162"
             style="fill:none;stroke:#000000;stroke-width:30;stroke-linecap:round;stroke-linejoin:round;stroke-miterlimit:10;stroke-dasharray:none;stroke-opacity:1"
             id="path1194" /></g><g
           id="g1196"
           transform="translate(226,447)"><path
             d="m 0,0 c 0,-27.614 -22.386,-50 -50,-50 -27.614,0 -50,22.386 -50,50 0,27.614 22.386,50 50,50 C -22.386,50 0,27.614 0,0 Z"
             style="fill:none;stroke:#000000;stroke-width:30;stroke-linecap:round;stroke-linejoin:round;stroke-miterlimit:10;stroke-dasharray:none;stroke-opacity:1"
             id="path1198" /></g><g
           id="g1200"
           transform="translate(144.2842,342.8579)"><path
             d="m 0,0 -14.142,-14.142 c -7.81,-7.811 -20.474,-7.811 -28.285,0 l -7.07,7.071 c -11.716,11.716 -11.716,30.711 0,42.426 11.716,11.716 30.71,11.716 42.426,0 L 0,28.284 C 7.811,20.474 7.811,7.811 0,0 Z"
             style="fill:none;stroke:#000000;stroke-width:30;stroke-linecap:round;stroke-linejoin:round;stroke-miterlimit:10;stroke-dasharray:none;stroke-opacity:1"
             id="path1202" /></g><g
           id="g1204"
           transform="translate(266,297)"><path
             d="m 0,0 v 10 c 0,49.706 -40.294,90 -90,90 -17.155,0 -33.131,-4.886 -46.773,-13.216"
             style="fill:none;stroke:#000000;stroke-width:30;stroke-linecap:round;stroke-linejoin:round;stroke-miterlimit:10;stroke-dasharray:none;stroke-opacity:1"
             id="path1206" /></g><g
           id="g1208"
           transform="translate(92.0244,339.1689)"><path
             d="m 0,0 c -3.834,-10.001 -6.024,-20.818 -6.024,-32.169 v -130 h 180 v 60"
             style="fill:none;stroke:#000000;stroke-width:30;stroke-linecap:round;stroke-linejoin:round;stroke-miterlimit:10;stroke-dasharray:none;stroke-opacity:1"
             id="path1210" /></g><g
           id="g1212"
           transform="translate(226,15)"><path
             d="m 0,0 h -100 l -20,162 H 20 Z"
             style="fill:none;stroke:#000000;stroke-width:30;stroke-linecap:round;stroke-linejoin:round;stroke-miterlimit:10;stroke-dasharray:none;stroke-opacity:1"
             id="path1214" /></g><g
           id="g1216"
           transform="translate(176,397)"><path
             d="m 0,0 h 190 c 33.138,0 60,-26.863 60,-60 V -220 H 126.853"
             style="fill:none;stroke:#000000;stroke-width:30;stroke-linecap:round;stroke-linejoin:round;stroke-miterlimit:10;stroke-dasharray:none;stroke-opacity:1"
             id="path1218" /></g><g
           id="g1220"
           transform="translate(176,15)"><path
             d="M 0,0 V 162"
             style="fill:none;stroke:#000000;stroke-width:30;stroke-linecap:round;stroke-linejoin:round;stroke-miterlimit:10;stroke-dasharray:none;stroke-opacity:1"
             id="path1222" /></g><g
           id="g1224"
           transform="translate(366,327)"><path
             d="m 0,0 v -30 h -100 c -16.568,0 -30,-13.432 -30,-30 0,-16.568 13.432,-30 30,-30 H 0 c 33.137,0 60,26.863 60,60 V 0"
             style="fill:none;stroke:#000000;stroke-width:30;stroke-linecap:round;stroke-linejoin:round;stroke-miterlimit:10;stroke-dasharray:none;stroke-opacity:1"
             id="path1226" /></g></g></g></g></svg>
