<svg version="1.1" id="Capa_1" xmlns="http://www.w3.org/2000/svg" xmlns:xlink="http://www.w3.org/1999/xlink" x="0px" y="0px" viewBox="0 0 512 512" style="enable-background:new 0 0 512 512;" xml:space="preserve">
<g>
	<g>
		<path style="fill:none;stroke:#000000;stroke-width:30;stroke-linecap:round;stroke-linejoin:round;stroke-miterlimit:10;" d="&#10;&#9;&#9;&#9;M55.167,285.667L55.167,285.667C32.983,285.667,15,267.683,15,245.5v-20.167h80.333V245.5&#10;&#9;&#9;&#9;C95.333,267.683,77.35,285.667,55.167,285.667z"/>
		<path style="fill:none;stroke:#000000;stroke-width:30;stroke-linecap:round;stroke-linejoin:round;stroke-miterlimit:10;" d="&#10;&#9;&#9;&#9;M135.5,285.667L135.5,285.667c22.184,0,40.167-17.983,40.167-40.167v-20.167H95.333V245.5&#10;&#9;&#9;&#9;C95.333,267.683,113.317,285.667,135.5,285.667z"/>
		<path style="fill:none;stroke:#000000;stroke-width:30;stroke-linecap:round;stroke-linejoin:round;stroke-miterlimit:10;" d="&#10;&#9;&#9;&#9;M215.833,285.667L215.833,285.667c-22.184,0-40.167-17.983-40.167-40.167v-20.167H256V245.5&#10;&#9;&#9;&#9;C256,267.683,238.017,285.667,215.833,285.667z"/>
		<path style="fill:none;stroke:#000000;stroke-width:30;stroke-linecap:round;stroke-linejoin:round;stroke-miterlimit:10;" d="&#10;&#9;&#9;&#9;M296.167,285.667L296.167,285.667c22.184,0,40.167-17.983,40.167-40.167v-20.167H256V245.5&#10;&#9;&#9;&#9;C256,267.683,273.983,285.667,296.167,285.667z"/>
		<path style="fill:none;stroke:#000000;stroke-width:30;stroke-linecap:round;stroke-linejoin:round;stroke-miterlimit:10;" d="&#10;&#9;&#9;&#9;M376.5,285.667L376.5,285.667c-22.183,0-40.167-17.983-40.167-40.167v-20.167h80.333V245.5&#10;&#9;&#9;&#9;C416.667,267.683,398.683,285.667,376.5,285.667z"/>
		<path style="fill:none;stroke:#000000;stroke-width:30;stroke-linecap:round;stroke-linejoin:round;stroke-miterlimit:10;" d="&#10;&#9;&#9;&#9;M456.833,285.667L456.833,285.667c22.184,0,40.167-17.983,40.167-40.167v-20.167h-80.333V245.5&#10;&#9;&#9;&#9;C416.667,267.683,434.65,285.667,456.833,285.667z"/>
	</g>
	
		<line style="fill:none;stroke:#000000;stroke-width:30;stroke-linecap:round;stroke-linejoin:round;stroke-miterlimit:10;" x1="256" y1="115" x2="497" y2="225"/>
	
		<line style="fill:none;stroke:#000000;stroke-width:30;stroke-linecap:round;stroke-linejoin:round;stroke-miterlimit:10;" x1="256" y1="115" x2="15" y2="225"/>
	<path style="fill:none;stroke:#000000;stroke-width:30;stroke-linecap:round;stroke-linejoin:round;stroke-miterlimit:10;" d="&#10;&#9;&#9;M297,75h-41V15h101v0C357,48.137,330.137,75,297,75z"/>
	
		<line style="fill:none;stroke:#000000;stroke-width:30;stroke-linecap:round;stroke-linejoin:round;stroke-miterlimit:10;" x1="256" y1="75" x2="256" y2="115"/>
	<path style="fill:none;stroke:#000000;stroke-width:30;stroke-linecap:round;stroke-linejoin:round;stroke-miterlimit:10;" d="&#10;&#9;&#9;M46.736,284.773C46.736,410.546,16,495,15,497h482c-1-2-31.736-86.454-31.736-212.227"/>
	
		<line style="fill:none;stroke:#000000;stroke-width:30;stroke-linecap:round;stroke-linejoin:round;stroke-miterlimit:10;" x1="176" y1="231" x2="176" y2="497"/>
	
		<line style="fill:none;stroke:#000000;stroke-width:30;stroke-linecap:round;stroke-linejoin:round;stroke-miterlimit:10;" x1="336" y1="231" x2="336" y2="497"/>
	<path style="fill:none;stroke:#000000;stroke-width:30;stroke-linecap:round;stroke-linejoin:round;stroke-miterlimit:10;" d="&#10;&#9;&#9;M256,315c0,0-6,56-80,56"/>
	<path style="fill:none;stroke:#000000;stroke-width:30;stroke-linecap:round;stroke-linejoin:round;stroke-miterlimit:10;" d="&#10;&#9;&#9;M256,315c0,0,6,56,80,56"/>
	
		<line style="fill:none;stroke:#000000;stroke-width:30;stroke-linecap:round;stroke-linejoin:round;stroke-miterlimit:10;" x1="256" y1="315" x2="256" y2="246"/>
	
		<line style="fill:none;stroke:#000000;stroke-width:30;stroke-linecap:round;stroke-linejoin:round;stroke-miterlimit:10;" x1="176" y1="437" x2="32" y2="437"/>
	
		<line style="fill:none;stroke:#000000;stroke-width:30;stroke-linecap:round;stroke-linejoin:round;stroke-miterlimit:10;" x1="480" y1="437" x2="336" y2="437"/>
</g>
<g>
</g>
<g>
</g>
<g>
</g>
<g>
</g>
<g>
</g>
<g>
</g>
<g>
</g>
<g>
</g>
<g>
</g>
<g>
</g>
<g>
</g>
<g>
</g>
<g>
</g>
<g>
</g>
<g>
</g>
</svg>