<svg height="512pt" viewBox="0 0 512 512" width="512pt" xmlns="http://www.w3.org/2000/svg"><path d="m499.941406 151.292969-25.191406-5.039063c-77.515625-15.503906-147.824219-52.304687-203.75-106.546875v-24.707031c0-8.285156-6.714844-15-15-15s-15 6.714844-15 15v24.707031c-55.925781 54.242188-126.234375 91.042969-203.75 106.546875l-25.191406 5.035156c-7.011719 1.40625-12.058594 7.5625-12.058594 14.710938v30c0 19.554688 12.539062 36.226562 30 42.421875v122.578125h-15c-8.285156 0-15 6.714844-15 15s6.714844 15 15 15h60c8.285156 0 15-6.714844 15-15s-6.714844-15-15-15h-15v-122.578125c5.699219-2.023437 10.875-5.152344 15.261719-9.144531 8.542969 7.570312 19.382812 11.722656 30.738281 11.722656 11.515625 0 22.03125-4.355469 30-11.496094 4.328125 3.882813 9.414062 6.933594 15 8.917969v92.578125h-15c-8.285156 0-15 6.714844-15 15s6.714844 15 15 15h60c8.285156 0 15-6.714844 15-15s-6.714844-15-15-15h-15v-92.578125c5.585938-1.984375 10.671875-5.035156 15-8.917969 7.96875 7.144532 18.484375 11.496094 30 11.496094 5.257812 0 10.304688-.914062 15-2.578125v182.578125h-105c-24.8125 0-45 20.1875-45 45v16h-15c-8.285156 0-15 6.714844-15 15s6.714844 15 15 15h360c8.285156 0 15-6.714844 15-15s-6.714844-15-15-15h-15v-16c0-24.8125-20.1875-45-45-45h-105v-182.578125c4.695312 1.664063 9.742188 2.578125 15 2.578125 11.515625 0 22.03125-4.355469 30-11.496094 4.328125 3.882813 9.414062 6.933594 15 8.917969v92.578125h-15c-8.285156 0-15 6.714844-15 15s6.714844 15 15 15h60c8.285156 0 15-6.714844 15-15s-6.714844-15-15-15h-15v-92.578125c5.585938-1.984375 10.671875-5.035156 15-8.917969 7.96875 7.144532 18.484375 11.496094 30 11.496094 11.355469 0 22.195312-4.152344 30.738281-11.722656 4.386719 3.992187 9.5625 7.121094 15.261719 9.144531v122.578125h-15c-8.285156 0-15 6.714844-15 15s6.714844 15 15 15h60c8.285156 0 15-6.714844 15-15s-6.714844-15-15-15h-15v-122.578125c17.460938-6.195313 30-22.867187 30-42.421875v-30c0-7.148438-5.046875-13.304688-12.058594-14.707031zm-123.941406 299.707031c8.269531 0 15 6.730469 15 15v16h-270v-16c0-8.269531 6.730469-15 15-15zm106-255c0 8.269531-6.730469 15-15 15s-15-6.730469-15-15c0-8.285156-6.714844-15-15-15s-15 6.714844-15 15c0 7.992188-7.476562 15-16 15-8.269531 0-15-6.730469-15-15 0-8.285156-6.714844-15-15-15s-15 6.714844-15 15c0 8.269531-6.730469 15-15 15s-15-6.730469-15-15c0-8.285156-6.714844-15-15-15s-15 6.714844-15 15c0 8.269531-6.730469 15-15 15s-15-6.730469-15-15c0-8.285156-6.714844-15-15-15s-15 6.714844-15 15c0 8.269531-6.730469 15-15 15s-15-6.730469-15-15c0-8.285156-6.714844-15-15-15s-15 6.714844-15 15c0 8.269531-6.730469 15-15 15s-15-6.730469-15-15c0-8.285156-6.714844-15-15-15s-15 6.714844-15 15c0 8.269531-6.730469 15-15 15-8.523438 0-16-7.007812-16-15 0-8.285156-6.714844-15-15-15s-15 6.714844-15 15c0 8.269531-6.730469 15-15 15s-15-6.730469-15-15v-17.703125l13.136719-2.625c80.167969-16.035156 154.234375-54.109375 212.863281-108.820313 58.597656 54.679688 132.652344 92.777344 212.863281 108.820313l13.136719 2.625zm0 0"/></svg>