<?xml version="1.0" encoding="UTF-8" standalone="no"?>
<!-- Created with Inkscape (http://www.inkscape.org/) -->

<svg
   version="1.1"
   id="svg327"
   xml:space="preserve"
   width="682.66669"
   height="682.66669"
   viewBox="0 0 682.66669 682.66669"
   xmlns="http://www.w3.org/2000/svg"
   xmlns:svg="http://www.w3.org/2000/svg"><defs
     id="defs331"><clipPath
       clipPathUnits="userSpaceOnUse"
       id="clipPath341"><path
         d="M 0,512 H 512 V 0 H 0 Z"
         id="path339" /></clipPath></defs><g
     id="g333"
     transform="matrix(1.3333333,0,0,-1.3333333,0,682.66667)"><g
       id="g335"><g
         id="g337"
         clip-path="url(#clipPath341)"><g
           id="g343"
           transform="translate(256,288.1333)"><path
             d="m 0,0 c 35.467,0 64.267,-35.998 64.267,-80.333 0,-44.336 -28.8,-80.334 -64.267,-80.334 -35.467,0 -64.267,35.998 -64.267,80.334 C -64.267,-35.998 -35.467,0 0,0 Z"
             style="fill:none;stroke:#000000;stroke-width:30;stroke-linecap:round;stroke-linejoin:round;stroke-miterlimit:10;stroke-dasharray:none;stroke-opacity:1"
             id="path345" /></g><g
           id="g347"
           transform="translate(256,127.4668)"><path
             d="m 0,0 c -22.172,22.172 -22.172,58.161 0,80.333 22.172,22.172 22.172,58.162 0,80.334"
             style="fill:none;stroke:#000000;stroke-width:30;stroke-linecap:round;stroke-linejoin:round;stroke-miterlimit:10;stroke-dasharray:none;stroke-opacity:1"
             id="path349" /></g><g
           id="g351"
           transform="translate(416.667,368.4668)"><path
             d="M 0,0 H -321.334 L -289.2,-353.467 H -32.134 Z"
             style="fill:none;stroke:#000000;stroke-width:30;stroke-linecap:round;stroke-linejoin:round;stroke-miterlimit:10;stroke-dasharray:none;stroke-opacity:1"
             id="path353" /></g><g
           id="g355"
           transform="translate(432.7334,432.7334)"><path
             d="m 0,0 h -353.467 l -16.066,-64.267 H 16.066 Z"
             style="fill:none;stroke:#000000;stroke-width:30;stroke-linecap:round;stroke-linejoin:round;stroke-miterlimit:10;stroke-dasharray:none;stroke-opacity:1"
             id="path357" /></g><g
           id="g359"
           transform="translate(384.5332,497)"><path
             d="m 0,0 h -257.066 l -16.067,-64.267 H 16.066 Z"
             style="fill:none;stroke:#000000;stroke-width:30;stroke-linecap:round;stroke-linejoin:round;stroke-miterlimit:10;stroke-dasharray:none;stroke-opacity:1"
             id="path361" /></g></g></g></g></svg>
