<?xml version="1.0" encoding="UTF-8" standalone="no"?>
<!-- Created with Inkscape (http://www.inkscape.org/) -->

<svg
   version="1.1"
   id="svg993"
   xml:space="preserve"
   width="682.66669"
   height="682.66669"
   viewBox="0 0 682.66669 682.66669"
   xmlns="http://www.w3.org/2000/svg"
   xmlns:svg="http://www.w3.org/2000/svg"><defs
     id="defs997"><clipPath
       clipPathUnits="userSpaceOnUse"
       id="clipPath1007"><path
         d="M 0,512 H 512 V 0 H 0 Z"
         id="path1005" /></clipPath></defs><g
     id="g999"
     transform="matrix(1.3333333,0,0,-1.3333333,0,682.66667)"><g
       id="g1001"><g
         id="g1003"
         clip-path="url(#clipPath1007)"><g
           id="g1009"
           transform="translate(95,256)"><path
             d="M 0,0 V 0 C -44.183,0 -80,-35.817 -80,-80 H 80 C 80,-35.817 44.183,0 0,0 Z"
             style="fill:none;stroke:#000000;stroke-width:30;stroke-linecap:round;stroke-linejoin:round;stroke-miterlimit:10;stroke-dasharray:none;stroke-opacity:1"
             id="path1011" /></g><g
           id="g1013"
           transform="translate(417,256)"><path
             d="M 0,0 V 0 C -44.183,0 -80,-35.817 -80,-80 H 80 C 80,-35.817 44.183,0 0,0 Z"
             style="fill:none;stroke:#000000;stroke-width:30;stroke-linecap:round;stroke-linejoin:round;stroke-miterlimit:10;stroke-dasharray:none;stroke-opacity:1"
             id="path1015" /></g><g
           id="g1017"
           transform="translate(135,296)"><path
             d="m 0,0 c 0,-22.091 -17.909,-40 -40,-40 -22.091,0 -40,17.909 -40,40 0,22.091 17.909,40 40,40 C -17.909,40 0,22.091 0,0 Z"
             style="fill:none;stroke:#000000;stroke-width:30;stroke-linecap:round;stroke-linejoin:round;stroke-miterlimit:10;stroke-dasharray:none;stroke-opacity:1"
             id="path1019" /></g><g
           id="g1021"
           transform="translate(457,296)"><path
             d="m 0,0 c 0,-22.091 -17.909,-40 -40,-40 -22.091,0 -40,17.909 -40,40 0,22.091 17.909,40 40,40 C -17.909,40 0,22.091 0,0 Z"
             style="fill:none;stroke:#000000;stroke-width:30;stroke-linecap:round;stroke-linejoin:round;stroke-miterlimit:10;stroke-dasharray:none;stroke-opacity:1"
             id="path1023" /></g><g
           id="g1025"
           transform="translate(256,417)"><path
             d="M 0,0 V 0 C -44.183,0 -80,-35.817 -80,-80 H 80 C 80,-35.817 44.183,0 0,0 Z"
             style="fill:none;stroke:#000000;stroke-width:30;stroke-linecap:round;stroke-linejoin:round;stroke-miterlimit:10;stroke-dasharray:none;stroke-opacity:1"
             id="path1027" /></g><g
           id="g1029"
           transform="translate(296,457)"><path
             d="m 0,0 c 0,-22.091 -17.909,-40 -40,-40 -22.091,0 -40,17.909 -40,40 0,22.091 17.909,40 40,40 C -17.909,40 0,22.091 0,0 Z"
             style="fill:none;stroke:#000000;stroke-width:30;stroke-linecap:round;stroke-linejoin:round;stroke-miterlimit:10;stroke-dasharray:none;stroke-opacity:1"
             id="path1031" /></g><g
           id="g1033"
           transform="translate(256,95)"><path
             d="M 0,0 V 0 C -44.183,0 -80,-35.817 -80,-80 H 80 C 80,-35.817 44.183,0 0,0 Z"
             style="fill:none;stroke:#000000;stroke-width:30;stroke-linecap:round;stroke-linejoin:round;stroke-miterlimit:10;stroke-dasharray:none;stroke-opacity:1"
             id="path1035" /></g><g
           id="g1037"
           transform="translate(296,135)"><path
             d="m 0,0 c 0,-22.091 -17.909,-40 -40,-40 -22.091,0 -40,17.909 -40,40 0,22.091 17.909,40 40,40 C -17.909,40 0,22.091 0,0 Z"
             style="fill:none;stroke:#000000;stroke-width:30;stroke-linecap:round;stroke-linejoin:round;stroke-miterlimit:10;stroke-dasharray:none;stroke-opacity:1"
             id="path1039" /></g><g
           id="g1041"
           transform="translate(396,36)"><path
             d="M 0,0 H 30 C 46.568,0 60,13.432 60,30 V 80"
             style="fill:none;stroke:#000000;stroke-width:30;stroke-linecap:round;stroke-linejoin:round;stroke-miterlimit:10;stroke-dasharray:none;stroke-opacity:1"
             id="path1043" /></g><g
           id="g1045"
           transform="translate(116,36)"><path
             d="M 0,0 H -30 C -46.568,0 -60,13.432 -60,30 V 80"
             style="fill:none;stroke:#000000;stroke-width:30;stroke-linecap:round;stroke-linejoin:round;stroke-miterlimit:10;stroke-dasharray:none;stroke-opacity:1"
             id="path1047" /></g><g
           id="g1049"
           transform="translate(376,476)"><path
             d="M 0,0 H 50 C 66.568,0 80,-13.432 80,-30 V -80"
             style="fill:none;stroke:#000000;stroke-width:30;stroke-linecap:round;stroke-linejoin:round;stroke-miterlimit:10;stroke-dasharray:none;stroke-opacity:1"
             id="path1051" /></g><g
           id="g1053"
           transform="translate(136,476)"><path
             d="M 0,0 H -50 C -66.568,0 -80,-13.432 -80,-30 V -80"
             style="fill:none;stroke:#000000;stroke-width:30;stroke-linecap:round;stroke-linejoin:round;stroke-miterlimit:10;stroke-dasharray:none;stroke-opacity:1"
             id="path1055" /></g></g></g></g></svg>
