<?xml version="1.0" encoding="UTF-8" standalone="no"?>
<!-- Created with Inkscape (http://www.inkscape.org/) -->

<svg
   version="1.1"
   id="svg1170"
   xml:space="preserve"
   width="682.66669"
   height="682.66669"
   viewBox="0 0 682.66669 682.66669"
   xmlns="http://www.w3.org/2000/svg"
   xmlns:svg="http://www.w3.org/2000/svg"><defs
     id="defs1174"><clipPath
       clipPathUnits="userSpaceOnUse"
       id="clipPath1184"><path
         d="M 0,512 H 512 V 0 H 0 Z"
         id="path1182" /></clipPath></defs><g
     id="g1176"
     transform="matrix(1.3333333,0,0,-1.3333333,0,682.66667)"><g
       id="g1178"><g
         id="g1180"
         clip-path="url(#clipPath1184)"><g
           id="g1186"
           transform="translate(264.9575,251.0308)"><path
             d="M 0,0 -8.958,-8.958 -17.915,0 c -16.49,16.49 -43.226,16.49 -59.716,0 -16.49,-16.49 -16.491,-43.225 0,-59.715 28.084,-28.084 66.122,-66.122 68.673,-68.674 l 68.674,68.673 c 16.49,16.49 16.49,43.226 0,59.716 C 43.226,16.49 16.49,16.49 0,0 Z"
             style="fill:none;stroke:#000000;stroke-width:30;stroke-linecap:round;stroke-linejoin:round;stroke-miterlimit:10;stroke-dasharray:none;stroke-opacity:1"
             id="path1188" /></g><g
           id="g1190"
           transform="translate(220.02,48.7002)"><path
             d="m 0,0 c 11.67,-2.11 23.69,-3.22 35.98,-3.22 12.29,0 24.31,1.11 35.98,3.22"
             style="fill:none;stroke:#000000;stroke-width:30;stroke-linecap:round;stroke-linejoin:round;stroke-miterlimit:10;stroke-dasharray:none;stroke-opacity:1"
             id="path1192" /></g><g
           id="g1194"
           transform="translate(55.52,242.4399)"><path
             d="m 0,0 c -0.03,1.18 -0.04,2.37 -0.04,3.56 0,60.52 26.81,114.78 69.2,151.54"
             style="fill:none;stroke:#000000;stroke-width:30;stroke-linecap:round;stroke-linejoin:round;stroke-miterlimit:10;stroke-dasharray:none;stroke-opacity:1"
             id="path1196" /></g><g
           id="g1198"
           transform="translate(387.3198,397.54)"><path
             d="m 0,0 c 42.39,-36.76 69.2,-91.02 69.2,-151.54 0,-1.19 -0.01,-2.38 -0.04,-3.56"
             style="fill:none;stroke:#000000;stroke-width:30;stroke-linecap:round;stroke-linejoin:round;stroke-miterlimit:10;stroke-dasharray:none;stroke-opacity:1"
             id="path1200" /></g><g
           id="g1202"
           transform="translate(90.0112,107.0518)"><path
             d="M 0,0 V 0 C -41.428,0 -75.011,-33.583 -75.011,-75.011 V -92.052 H 75.012 v 17.041 C 75.012,-33.583 41.428,0 0,0 Z"
             style="fill:none;stroke:#000000;stroke-width:30;stroke-linecap:round;stroke-linejoin:round;stroke-miterlimit:10;stroke-dasharray:none;stroke-opacity:1"
             id="path1204" /></g><g
           id="g1206"
           transform="translate(130.7705,147.811)"><path
             d="m 0,0 c 0,-22.511 -18.249,-40.759 -40.759,-40.759 -22.511,0 -40.76,18.248 -40.76,40.759 0,22.511 18.249,40.759 40.76,40.759 C -18.249,40.759 0,22.511 0,0 Z"
             style="fill:none;stroke:#000000;stroke-width:30;stroke-linecap:round;stroke-linejoin:round;stroke-miterlimit:10;stroke-dasharray:none;stroke-opacity:1"
             id="path1208" /></g><g
           id="g1210"
           transform="translate(421.9888,107.0518)"><path
             d="M 0,0 V 0 C 41.428,0 75.011,-33.583 75.011,-75.011 V -92.052 H -75.012 v 17.041 C -75.012,-33.583 -41.428,0 0,0 Z"
             style="fill:none;stroke:#000000;stroke-width:30;stroke-linecap:round;stroke-linejoin:round;stroke-miterlimit:10;stroke-dasharray:none;stroke-opacity:1"
             id="path1212" /></g><g
           id="g1214"
           transform="translate(381.2295,147.811)"><path
             d="m 0,0 c 0,-22.511 18.249,-40.759 40.759,-40.759 22.511,0 40.76,18.248 40.76,40.759 0,22.511 -18.249,40.759 -40.76,40.759 C 18.249,40.759 0,22.511 0,0 Z"
             style="fill:none;stroke:#000000;stroke-width:30;stroke-linecap:round;stroke-linejoin:round;stroke-miterlimit:10;stroke-dasharray:none;stroke-opacity:1"
             id="path1216" /></g><g
           id="g1218"
           transform="translate(331.0098,340.4697)"><path
             d="M 0,0 V -17.071 H -150.02 V 0 c 0,41.43 33.58,75.01 75.01,75.01 C -33.58,75.01 0,41.43 0,0 Z"
             style="fill:none;stroke:#000000;stroke-width:30;stroke-linecap:round;stroke-linejoin:round;stroke-miterlimit:10;stroke-dasharray:none;stroke-opacity:1"
             id="path1220" /></g><g
           id="g1222"
           transform="translate(215.2407,456.2407)"><path
             d="m 0,0 c 0,-22.511 18.249,-40.759 40.759,-40.759 22.511,0 40.759,18.248 40.759,40.759 0,22.511 -18.248,40.759 -40.759,40.759 C 18.249,40.759 0,22.511 0,0 Z"
             style="fill:none;stroke:#000000;stroke-width:30;stroke-linecap:round;stroke-linejoin:round;stroke-miterlimit:10;stroke-dasharray:none;stroke-opacity:1"
             id="path1224" /></g></g></g></g></svg>
