<svg viewBox="0 -17 512.00004 512" xmlns="http://www.w3.org/2000/svg"><path d="m512 172.480469c0-46.070313-17.941406-89.386719-50.523438-121.960938-32.574218-32.578125-75.886718-50.519531-121.957031-50.519531-29.71875 0-58.28125 7.476562-83.5625 21.515625-30.832031-17.03125-66.675781-24.308594-101.960937-20.523437-38.96875 4.175781-75.714844 21.765624-103.476563 49.527343-32.578125 32.578125-50.519531 75.894531-50.519531 121.964844s17.941406 89.386719 50.519531 121.964844c.011719.007812.023438.019531.03125.027343 10.265625 10.25 23.90625 15.894532 38.414063 15.894532.457031 0 .910156-.019532 1.367187-.03125-.351562 14.367187 4.925781 28.847656 15.863281 39.785156 10.273438 10.269531 23.925782 15.925781 38.445313 15.925781.449219 0 .894531-.023437 1.34375-.03125-.011719.445313-.03125.890625-.03125 1.339844 0 14.519531 5.652344 28.175781 15.921875 38.441406 10.269531 10.269531 23.921875 15.929688 38.445312 15.929688h.003907c.445312 0 .890625-.023438 1.335937-.035157-.007812.449219-.03125.890626-.03125 1.339844 0 14.523438 5.65625 28.175782 15.925782 38.445313 10.269531 10.269531 23.921874 15.925781 38.445312 15.925781 14.519531 0 28.171875-5.65625 38.441406-15.925781l55.675782-55.675781c10.269531-10.269532 15.925781-23.921876 15.925781-38.445313 0-.457031-.019531-.910156-.03125-1.367187.445312.011718.894531.03125 1.34375.03125 13.921875 0 27.847656-5.296876 38.445312-15.898438 10.269531-10.269531 15.925781-23.921875 15.925781-38.445312 0-.457032-.023437-.910157-.035156-1.363282.449219.007813.894532.03125 1.34375.03125 13.917969-.003906 27.84375-5.300781 38.441406-15.894531 0-.003906.003907-.003906.003907-.007813 32.578125-32.578124 50.519531-75.890624 50.519531-121.964843zm-71.734375-100.75c26.914063 26.914062 41.734375 62.691406 41.734375 100.753906 0 19.824219-4.03125 39.03125-11.6875 56.6875-2.359375-4.160156-5.292969-8.078125-8.835938-11.617187l-139.183593-139.179688c-.003907-.003906-.007813-.011719-.011719-.015625-5.859375-5.855469-15.355469-5.855469-21.214844 0l-55.675781 55.679687c-4.605469 4.605469-10.726563 7.140626-17.234375 7.140626s-12.625-2.535157-17.226562-7.136719c-9.503907-9.507813-9.503907-24.964844 0-34.46875l27.835937-27.839844c7.550781-7.550781 15.796875-14.144531 24.59375-19.730469.128906-.070312.25-.15625.375-.230468 22.484375-14.179688 48.550781-21.769532 75.785156-21.769532 38.054688-.003906 73.835938 14.816406 100.746094 41.726563zm-351.300781 208.640625c-6.507813 0-12.628906-2.535156-17.230469-7.136719-9.5-9.503906-9.5-24.964844 0-34.46875l55.679687-55.671875c4.601563-4.605469 10.71875-7.140625 17.226563-7.140625 6.511719 0 12.632813 2.535156 17.234375 7.140625 9.5 9.5 9.5 24.960938 0 34.464844l-55.679688 55.675781c-.003906.003906-.003906.003906-.003906.003906-4.601562 4.601563-10.71875 7.132813-17.226562 7.132813zm55.675781 55.679687c-6.507813 0-12.628906-2.535156-17.230469-7.136719-9.5-9.503906-9.5-24.964843 0-34.46875l55.679688-55.675781c4.605468-4.605469 10.722656-7.140625 17.230468-7.140625 6.507813 0 12.628907 2.535156 17.230469 7.136719 9.503907 9.503906 9.503907 24.96875 0 34.46875l-55.671875 55.675781c-4.605468 4.605469-10.726562 7.140625-17.238281 7.140625zm55.683594 55.679688c-6.511719 0-12.628907-2.535157-17.234375-7.140625-4.601563-4.605469-7.136719-10.722656-7.136719-17.234375-.003906-6.507813 2.53125-12.625 7.136719-17.230469l55.675781-55.675781c4.601563-4.605469 10.722656-7.136719 17.230469-7.136719 6.496094 0 12.605468 2.523438 17.203125 7.105469.011719.011719.019531.023437.03125.03125l.042969.042969c9.457031 9.507812 9.441406 24.9375-.042969 34.425781l-55.675781 55.671875c-4.601563 4.605468-10.722657 7.140625-17.230469 7.140625zm135.71875-24.371094c0 6.507813-2.535157 12.628906-7.136719 17.230469l-55.675781 55.679687c-4.605469 4.601563-10.722657 7.136719-17.230469 7.136719s-12.628906-2.535156-17.234375-7.140625c-4.601563-4.601563-7.136719-10.722656-7.136719-17.230469 0-6.507812 2.535156-12.628906 7.140625-17.230468l55.675781-55.675782c0-.003906.003907-.007812.007813-.011718 4.605469-4.597657 10.71875-7.128907 17.226563-7.128907 6.488281 0 12.589843 2.519531 17.1875 7.097657l.039062.039062.019531.019531c4.589844 4.601563 7.117188 10.714844 7.117188 17.214844zm69.753906-94.125-55.675781-55.675781c-5.855469-5.859375-15.355469-5.859375-21.210938 0-5.859375 5.855468-5.859375 15.355468 0 21.210937l55.675782 55.679688c4.605468 4.601562 7.140624 10.722656 7.140624 17.230469 0 6.511718-2.535156 12.628906-7.136718 17.230468-9.5 9.5-24.949219 9.503906-34.457032.019532-.003906-.007813-.007812-.011719-.015624-.019532-.015626-.015625-.035157-.03125-.050782-.046875l-55.53125-55.53125c-.03125-.035156-.058594-.066406-.09375-.097656-10.273437-10.269531-23.925781-15.925781-38.445312-15.925781-.457032 0-.910156.023437-1.363282.035156.351563-14.367188-4.929687-28.847656-15.867187-39.789062-10.269531-10.269532-23.921875-15.921876-38.445313-15.921876-.457031 0-.910156.019532-1.363281.03125.351563-14.367187-4.929687-28.847656-15.867187-39.785156-10.269532-10.269531-23.925782-15.925781-38.445313-15.925781-14.523437 0-28.179687 5.65625-38.445312 15.925781l-55.675781 55.675782c-3.542969 3.539062-6.476563 7.457031-8.835938 11.617187-7.65625-17.660156-11.6875-36.863281-11.6875-56.6875 0-38.058594 14.820312-73.839844 41.730469-100.75 41.777343-41.78125 103.28125-53.074219 156.050781-30.652344-3.511719 2.996094-6.925781 6.136719-10.226562 9.4375l-27.839844 27.839844c-21.199219 21.195313-21.199219 55.6875-.003906 76.890625 10.269531 10.269531 23.921874 15.925781 38.445312 15.925781 14.519531 0 28.175781-5.65625 38.445312-15.921875l45.070313-45.074218 128.589844 128.589843c9.5 9.5 9.503906 24.957031.007812 34.460938h-.003906c0 .003906 0 .003906-.003906.003906-9.5 9.5-24.960938 9.5-34.464844 0zm0 0"/></svg>