<?xml version="1.0" encoding="UTF-8" standalone="no"?>
<!-- Created with Inkscape (http://www.inkscape.org/) -->

<svg
   version="1.1"
   id="svg393"
   xml:space="preserve"
   width="682.66669"
   height="682.66669"
   viewBox="0 0 682.66669 682.66669"
   xmlns="http://www.w3.org/2000/svg"
   xmlns:svg="http://www.w3.org/2000/svg"><defs
     id="defs397"><clipPath
       clipPathUnits="userSpaceOnUse"
       id="clipPath407"><path
         d="M 0,512 H 512 V 0 H 0 Z"
         id="path405" /></clipPath></defs><g
     id="g399"
     transform="matrix(1.3333333,0,0,-1.3333333,0,682.66667)"><g
       id="g401"><g
         id="g403"
         clip-path="url(#clipPath407)"><g
           id="g409"
           transform="translate(15,15)"><path
             d="M 0,0 H 482"
             style="fill:none;stroke:#000000;stroke-width:30;stroke-linecap:round;stroke-linejoin:round;stroke-miterlimit:10;stroke-dasharray:none;stroke-opacity:1"
             id="path411" /></g><g
           id="g413"
           transform="translate(96,135)"><path
             d="m 0,0 h -40 c -5.523,0 -10,-4.477 -10,-10 V -120 H 10 V -10 C 10,-4.477 5.523,0 0,0 Z"
             style="fill:none;stroke:#000000;stroke-width:30;stroke-linecap:round;stroke-linejoin:round;stroke-miterlimit:10;stroke-dasharray:none;stroke-opacity:1"
             id="path415" /></g><g
           id="g417"
           transform="translate(216,171)"><path
             d="m 0,0 h -40 c -5.523,0 -10,-4.477 -10,-10 V -156 H 10 V -10 C 10,-4.477 5.523,0 0,0 Z"
             style="fill:none;stroke:#000000;stroke-width:30;stroke-linecap:round;stroke-linejoin:round;stroke-miterlimit:10;stroke-dasharray:none;stroke-opacity:1"
             id="path419" /></g><g
           id="g421"
           transform="translate(336,226)"><path
             d="m 0,0 h -40 c -5.523,0 -10,-4.477 -10,-10 V -211 H 10 V -10 C 10,-4.477 5.523,0 0,0 Z"
             style="fill:none;stroke:#000000;stroke-width:30;stroke-linecap:round;stroke-linejoin:round;stroke-miterlimit:10;stroke-dasharray:none;stroke-opacity:1"
             id="path423" /></g><g
           id="g425"
           transform="translate(456,326)"><path
             d="m 0,0 h -40 c -5.523,0 -10,-4.477 -10,-10 V -311 H 10 V -10 C 10,-4.477 5.523,0 0,0 Z"
             style="fill:none;stroke:#000000;stroke-width:30;stroke-linecap:round;stroke-linejoin:round;stroke-miterlimit:10;stroke-dasharray:none;stroke-opacity:1"
             id="path427" /></g><g
           id="g429"
           transform="translate(15,204.6958)"><path
             d="M 0,0 C 197.021,0 394.042,150.621 457.436,292.3"
             style="fill:none;stroke:#000000;stroke-width:30;stroke-linecap:round;stroke-linejoin:round;stroke-miterlimit:10;stroke-dasharray:none;stroke-opacity:1"
             id="path431" /></g><g
           id="g433"
           transform="translate(380.7671,472.437)"><path
             d="m 0,0 91.67,24.563 24.563,-91.67"
             style="fill:none;stroke:#000000;stroke-width:30;stroke-linecap:round;stroke-linejoin:round;stroke-miterlimit:10;stroke-dasharray:none;stroke-opacity:1"
             id="path435" /></g></g></g></g></svg>
