<?xml version="1.0" encoding="UTF-8" standalone="no"?>
<!-- Created with Inkscape (http://www.inkscape.org/) -->

<svg
   version="1.1"
   id="svg1953"
   xml:space="preserve"
   width="682.66669"
   height="682.66669"
   viewBox="0 0 682.66669 682.66669"
   xmlns="http://www.w3.org/2000/svg"
   xmlns:svg="http://www.w3.org/2000/svg"><defs
     id="defs1957"><clipPath
       clipPathUnits="userSpaceOnUse"
       id="clipPath1967"><path
         d="M 0,512 H 512 V 0 H 0 Z"
         id="path1965" /></clipPath></defs><g
     id="g1959"
     transform="matrix(1.3333333,0,0,-1.3333333,0,682.66667)"><g
       id="g1961"><g
         id="g1963"
         clip-path="url(#clipPath1967)"><g
           id="g1969"
           transform="translate(63.2002,352.4004)"><path
             d="M 0,0 H -48.2"
             style="fill:none;stroke:#000000;stroke-width:30;stroke-linecap:round;stroke-linejoin:round;stroke-miterlimit:10;stroke-dasharray:none;stroke-opacity:1"
             id="path1971" /></g><g
           id="g1973"
           transform="translate(448.7998,159.5996)"><path
             d="M 0,0 H 48.2"
             style="fill:none;stroke:#000000;stroke-width:30;stroke-linecap:round;stroke-linejoin:round;stroke-miterlimit:10;stroke-dasharray:none;stroke-opacity:1"
             id="path1975" /></g><g
           id="g1977"
           transform="translate(91.4375,420.5625)"><path
             d="M 0,0 -34.086,34.086"
             style="fill:none;stroke:#000000;stroke-width:30;stroke-linecap:round;stroke-linejoin:round;stroke-miterlimit:10;stroke-dasharray:none;stroke-opacity:1"
             id="path1979" /></g><g
           id="g1981"
           transform="translate(420.5625,91.4375)"><path
             d="M 0,0 34.086,-34.086"
             style="fill:none;stroke:#000000;stroke-width:30;stroke-linecap:round;stroke-linejoin:round;stroke-miterlimit:10;stroke-dasharray:none;stroke-opacity:1"
             id="path1983" /></g><g
           id="g1985"
           transform="translate(159.5996,448.7998)"><path
             d="M 0,0 V 48.2"
             style="fill:none;stroke:#000000;stroke-width:30;stroke-linecap:round;stroke-linejoin:round;stroke-miterlimit:10;stroke-dasharray:none;stroke-opacity:1"
             id="path1987" /></g><g
           id="g1989"
           transform="translate(352.4004,63.2002)"><path
             d="M 0,0 V -48.2"
             style="fill:none;stroke:#000000;stroke-width:30;stroke-linecap:round;stroke-linejoin:round;stroke-miterlimit:10;stroke-dasharray:none;stroke-opacity:1"
             id="path1991" /></g><g
           id="g1993"
           transform="translate(308.5781,308.5781)"><path
             d="M 0,0 C 24.188,-24.181 63.456,-24.181 87.644,0"
             style="fill:none;stroke:#000000;stroke-width:30;stroke-linecap:round;stroke-linejoin:round;stroke-miterlimit:10;stroke-dasharray:none;stroke-opacity:1"
             id="path1995" /></g><g
           id="g1997"
           transform="translate(115.7783,115.7783)"><path
             d="M 0,0 C 24.188,-24.181 63.455,-24.181 87.644,0"
             style="fill:none;stroke:#000000;stroke-width:30;stroke-linecap:round;stroke-linejoin:round;stroke-miterlimit:10;stroke-dasharray:none;stroke-opacity:1"
             id="path1999" /></g><g
           id="g2001"
           transform="translate(393.7158,398.5752)"><path
             d="M 0,0 V -15.19"
             style="fill:none;stroke:#000000;stroke-width:30;stroke-linecap:round;stroke-linejoin:round;stroke-miterlimit:10;stroke-dasharray:none;stroke-opacity:1"
             id="path2003" /></g><g
           id="g2005"
           transform="translate(200.915,205.7754)"><path
             d="M 0,0 V -15.19"
             style="fill:none;stroke:#000000;stroke-width:30;stroke-linecap:round;stroke-linejoin:round;stroke-miterlimit:10;stroke-dasharray:none;stroke-opacity:1"
             id="path2007" /></g><g
           id="g2009"
           transform="translate(311.085,398.5752)"><path
             d="M 0,0 V -15.19"
             style="fill:none;stroke:#000000;stroke-width:30;stroke-linecap:round;stroke-linejoin:round;stroke-miterlimit:10;stroke-dasharray:none;stroke-opacity:1"
             id="path2011" /></g><g
           id="g2013"
           transform="translate(118.2842,205.7754)"><path
             d="M 0,0 V -15.19"
             style="fill:none;stroke:#000000;stroke-width:30;stroke-linecap:round;stroke-linejoin:round;stroke-miterlimit:10;stroke-dasharray:none;stroke-opacity:1"
             id="path2015" /></g><g
           id="g2017"
           transform="translate(221.8828,290.1172)"><path
             d="m 0,0 c 29.804,-14.267 53.968,-38.431 68.227,-68.234 18.862,-9.022 39.99,-14.083 62.291,-14.083 79.802,0 144.599,64.796 144.599,144.6 0,79.803 -64.797,144.6 -144.599,144.6 -79.812,0 -144.601,-64.797 -144.601,-144.6 C -14.083,39.982 -9.021,18.862 0,0 Z"
             style="fill:none;stroke:#000000;stroke-width:30;stroke-linecap:round;stroke-linejoin:round;stroke-miterlimit:10;stroke-dasharray:none;stroke-opacity:1"
             id="path2019" /></g><g
           id="g2021"
           transform="translate(159.5996,304.2002)"><path
             d="m 0,0 c -79.811,0 -144.6,-64.797 -144.6,-144.601 0,-79.802 64.789,-144.599 144.6,-144.599 79.804,0 144.601,64.797 144.601,144.599 C 144.601,-64.797 79.804,0 0,0 Z"
             style="fill:none;stroke:#000000;stroke-width:30;stroke-linecap:round;stroke-linejoin:round;stroke-miterlimit:10;stroke-dasharray:none;stroke-opacity:1"
             id="path2023" /></g></g></g></g></svg>
