<?xml version="1.0" encoding="iso-8859-1"?>
<!-- Generator: Adobe Illustrator 19.0.0, SVG Export Plug-In . SVG Version: 6.00 Build 0)  -->
<svg version="1.1" id="Capa_1" xmlns="http://www.w3.org/2000/svg" xmlns:xlink="http://www.w3.org/1999/xlink" x="0px" y="0px"
	 viewBox="0 0 512 512" style="enable-background:new 0 0 512 512;" xml:space="preserve">
<g>
	<g>
		<path d="M452,196h-40.748C385.372,109.351,304.951,46,210,46C94.206,46,0,140.206,0,256s94.206,210,210,210
			c94.951,0,175.372-63.351,201.252-150H452c33.084,0,60-26.916,60-60S485.084,196,452,196z M210,436c-99.252,0-180-80.748-180-180
			S110.748,76,210,76s180,80.748,180,180S309.252,436,210,436z M452,286h-34.152c1.408-9.802,2.152-19.815,2.152-30
			s-0.744-20.198-2.152-30H452c16.542,0,30,13.458,30,30S468.542,286,452,286z"/>
	</g>
</g>
<g>
	<g>
		<path d="M270,151.625c-28.248,0-48.231,13.03-60,23.923c-11.769-10.893-31.752-23.923-60-23.923c-43.349,0-75,34.9-75,78.106
			c0,39.931,27.129,64.068,61.477,94.626c19.067,16.965,40.68,36.193,61.983,61.85c5.991,7.215,17.083,7.223,23.08,0
			c21.304-25.656,42.916-44.885,61.983-61.85C317.871,293.799,345,269.662,345,229.731C345,186.524,313.349,151.625,270,151.625z
			 M263.583,301.944c-16.494,14.674-34.815,30.975-53.583,51.772c-18.768-20.798-37.089-37.098-53.583-51.772
			C122.631,271.884,105,255.02,105,229.731c0-27.425,19.346-48.106,45-48.106c30.353,0,46.332,23.045,47.39,24.624
			c2.718,4.357,7.421,6.931,12.56,6.968c0.035,0,0.07,0,0.105,0c5.112,0,9.82-2.696,12.579-7.006
			c0.157-0.246,16.097-24.586,47.366-24.586c25.654,0,45,20.681,45,48.106C315,255.02,297.369,271.884,263.583,301.944z"/>
	</g>
</g>
<g>
</g>
<g>
</g>
<g>
</g>
<g>
</g>
<g>
</g>
<g>
</g>
<g>
</g>
<g>
</g>
<g>
</g>
<g>
</g>
<g>
</g>
<g>
</g>
<g>
</g>
<g>
</g>
<g>
</g>
</svg>
