<?xml version="1.0" encoding="iso-8859-1"?>
<!-- Generator: Adobe Illustrator 19.0.0, SVG Export Plug-In . SVG Version: 6.00 Build 0)  -->
<svg version="1.1" id="Capa_1" xmlns="http://www.w3.org/2000/svg" xmlns:xlink="http://www.w3.org/1999/xlink" x="0px" y="0px"
	 viewBox="0 0 512 512" style="enable-background:new 0 0 512 512;" xml:space="preserve">
<g>
	<g>
		<path d="M407,135.5c0,16.818-13.683,30.5-30.5,30.5c-16.817,0-30.5-13.682-30.5-30.5h-30c0,33.36,27.141,60.5,60.5,60.5
			s60.5-27.14,60.5-60.5H407z"/>
	</g>
</g>
<g>
	<g>
		<path d="M438.426,256C482.081,233.474,512,187.917,512,135.5C512,60.785,451.215,0,376.5,0C324.083,0,278.526,29.919,256,73.574
			C233.474,29.919,187.917,0,135.5,0C60.785,0,0,60.785,0,135.5c0,52.417,29.919,97.974,73.574,120.5
			C29.919,278.526,0,324.083,0,376.5C0,451.215,60.785,512,135.5,512c52.417,0,97.974-29.919,120.5-73.574
			C278.526,482.081,324.083,512,376.5,512c74.715,0,135.5-60.785,135.5-135.5C512,324.083,482.081,278.526,438.426,256z M376.5,30
			C434.673,30,482,77.327,482,135.5S434.673,241,376.5,241C318.327,241,271,193.673,271,135.5C271,77.327,318.327,30,376.5,30z
			 M30,135.5C30,77.327,77.327,30,135.5,30C193.673,30,241,77.327,241,135.5S193.673,241,135.5,241C77.327,241,30,193.673,30,135.5z
			 M135.5,482C77.327,482,30,434.673,30,376.5C30,318.327,77.327,271,135.5,271c58.173,0,105.5,47.327,105.5,105.5
			C241,434.673,193.673,482,135.5,482z M197.426,256c25.084-12.943,45.631-33.49,58.574-58.574
			c12.943,25.084,33.49,45.631,58.574,58.574c-25.084,12.943-45.631,33.49-58.574,58.574C243.057,289.49,222.51,268.943,197.426,256
			z M376.5,482C318.327,482,271,434.673,271,376.5c0-58.173,47.327-105.5,105.5-105.5c58.173,0,105.5,47.327,105.5,105.5
			C482,434.673,434.673,482,376.5,482z"/>
	</g>
</g>
<g>
	<g>
		<path d="M376.5,361.5c-33.359,0-60.5,27.14-60.5,60.5h30c0-16.818,13.683-30.5,30.5-30.5c16.817,0,30.5,13.682,30.5,30.5h30
			C437,388.64,409.859,361.5,376.5,361.5z"/>
	</g>
</g>
<g>
	<g>
		<rect x="90" y="392" width="91" height="30"/>
	</g>
</g>
<g>
	<g>
		<path d="M60.5,120.5v15c0,41.355,33.645,75,75,75s75-33.645,75-75v-15H60.5z M135.499,180.5c-19.557,0-36.238-12.539-42.429-30
			h84.859C171.739,167.961,155.056,180.5,135.499,180.5z"/>
	</g>
</g>
<g>
</g>
<g>
</g>
<g>
</g>
<g>
</g>
<g>
</g>
<g>
</g>
<g>
</g>
<g>
</g>
<g>
</g>
<g>
</g>
<g>
</g>
<g>
</g>
<g>
</g>
<g>
</g>
<g>
</g>
</svg>
