<?xml version="1.0" encoding="UTF-8" standalone="no"?>
<!-- Created with Inkscape (http://www.inkscape.org/) -->

<svg
   version="1.1"
   id="svg1044"
   xml:space="preserve"
   width="682.66669"
   height="682.66669"
   viewBox="0 0 682.66669 682.66669"
   xmlns="http://www.w3.org/2000/svg"
   xmlns:svg="http://www.w3.org/2000/svg"><defs
     id="defs1048"><clipPath
       clipPathUnits="userSpaceOnUse"
       id="clipPath1058"><path
         d="M 0,512 H 512 V 0 H 0 Z"
         id="path1056" /></clipPath></defs><g
     id="g1050"
     transform="matrix(1.3333333,0,0,-1.3333333,0,682.66667)"><g
       id="g1052"><g
         id="g1054"
         clip-path="url(#clipPath1058)"><g
           id="g1060"
           transform="translate(256,320.2666)"><path
             d="m 0,0 c 26.603,0 48.2,-21.602 48.2,-48.2 0,-26.598 -21.597,-48.2 -48.2,-48.2 -26.603,0 -48.2,21.602 -48.2,48.2 C -48.2,-21.602 -26.603,0 0,0 Z"
             style="fill:none;stroke:#000000;stroke-width:30;stroke-linecap:round;stroke-linejoin:round;stroke-miterlimit:10;stroke-dasharray:none;stroke-opacity:1"
             id="path1062" /></g><g
           id="g1064"
           transform="translate(79.2666,497)"><path
             d="m 0,0 c 26.603,0 48.2,-21.602 48.2,-48.2 0,-26.598 -21.597,-48.2 -48.2,-48.2 -26.603,0 -48.2,21.602 -48.2,48.2 C -48.2,-21.602 -26.603,0 0,0 Z"
             style="fill:none;stroke:#000000;stroke-width:30;stroke-linecap:round;stroke-linejoin:round;stroke-miterlimit:10;stroke-dasharray:none;stroke-opacity:1"
             id="path1066" /></g><g
           id="g1068"
           transform="translate(432.7334,497)"><path
             d="m 0,0 c 26.603,0 48.2,-21.602 48.2,-48.2 0,-26.598 -21.597,-48.2 -48.2,-48.2 -26.603,0 -48.2,21.602 -48.2,48.2 C -48.2,-21.602 -26.603,0 0,0 Z"
             style="fill:none;stroke:#000000;stroke-width:30;stroke-linecap:round;stroke-linejoin:round;stroke-miterlimit:10;stroke-dasharray:none;stroke-opacity:1"
             id="path1070" /></g><g
           id="g1072"
           transform="translate(304.2002,175.6665)"><path
             d="M 0,0 C 0,26.623 -21.58,48.2 -48.2,48.2 -74.82,48.2 -96.4,26.623 -96.4,0 V -80.333 H 0 Z"
             style="fill:none;stroke:#000000;stroke-width:30;stroke-linecap:round;stroke-linejoin:round;stroke-miterlimit:10;stroke-dasharray:none;stroke-opacity:1"
             id="path1074" /></g><g
           id="g1076"
           transform="translate(143.5332,336.3335)"><path
             d="M 0,0 C 0,35.491 -28.772,64.267 -64.267,64.267 -99.76,64.267 -128.533,35.491 -128.533,0 V -128.534 H 0 Z"
             style="fill:none;stroke:#000000;stroke-width:30;stroke-linecap:round;stroke-linejoin:round;stroke-miterlimit:10;stroke-dasharray:none;stroke-opacity:1"
             id="path1078" /></g><g
           id="g1080"
           transform="translate(497,336.3335)"><path
             d="M 0,0 C 0,35.491 -28.773,64.267 -64.267,64.267 -99.761,64.267 -128.533,35.491 -128.533,0 V -128.534 H 0 Z"
             style="fill:none;stroke:#000000;stroke-width:30;stroke-linecap:round;stroke-linejoin:round;stroke-miterlimit:10;stroke-dasharray:none;stroke-opacity:1"
             id="path1082" /></g><g
           id="g1084"
           transform="translate(207.7998,95.3335)"><path
             d="M 0,0 V -80.333"
             style="fill:none;stroke:#000000;stroke-width:30;stroke-linecap:round;stroke-linejoin:round;stroke-miterlimit:10;stroke-dasharray:none;stroke-opacity:1"
             id="path1086" /></g><g
           id="g1088"
           transform="translate(432.7334,143.5332)"><path
             d="M 0,0 V -128.533"
             style="fill:none;stroke:#000000;stroke-width:30;stroke-linecap:round;stroke-linejoin:round;stroke-miterlimit:10;stroke-dasharray:none;stroke-opacity:1"
             id="path1090" /></g><g
           id="g1092"
           transform="translate(47.1338,95.3335)"><path
             d="M 0,0 V -80.333"
             style="fill:none;stroke:#000000;stroke-width:30;stroke-linecap:round;stroke-linejoin:round;stroke-miterlimit:10;stroke-dasharray:none;stroke-opacity:1"
             id="path1094" /></g><g
           id="g1096"
           transform="translate(304.2002,95.3335)"><path
             d="M 0,0 V -80.333"
             style="fill:none;stroke:#000000;stroke-width:30;stroke-linecap:round;stroke-linejoin:round;stroke-miterlimit:10;stroke-dasharray:none;stroke-opacity:1"
             id="path1098" /></g><g
           id="g1100"
           transform="translate(111.4004,95.3335)"><path
             d="M 0,0 V -80.333"
             style="fill:none;stroke:#000000;stroke-width:30;stroke-linecap:round;stroke-linejoin:round;stroke-miterlimit:10;stroke-dasharray:none;stroke-opacity:1"
             id="path1102" /></g><path
           d="M 15,95.333 H 143.533 V 207.799 H 15 Z"
           style="fill:none;stroke:#000000;stroke-width:30;stroke-linecap:round;stroke-linejoin:round;stroke-miterlimit:10;stroke-dasharray:none;stroke-opacity:1"
           id="path1104" /><path
           d="M 368.467,15 H 497 V 207.8 H 368.467 Z"
           style="fill:none;stroke:#000000;stroke-width:30;stroke-linecap:round;stroke-linejoin:round;stroke-miterlimit:10;stroke-dasharray:none;stroke-opacity:1"
           id="path1106" /></g></g></g></svg>
