<svg id="Capa_1" enable-background="new 0 0 511.927 511.927" height="512" viewBox="0 0 511.927 511.927" width="512" xmlns="http://www.w3.org/2000/svg"><g><path d="m466.184 63.274c-29.497-29.498-68.716-45.743-110.432-45.743-36.894 0-71.835 12.708-99.825 36.05-27.99-23.343-62.932-36.05-99.825-36.05-41.716 0-80.935 16.245-110.433 45.743-60.893 60.892-60.893 159.971 0 220.864l210.258 210.258 210.257-210.257c29.498-29.498 45.743-68.717 45.743-110.433s-16.245-80.935-45.743-110.432zm-340.297 97.325c0-16.845 13.705-30.55 30.55-30.55s30.55 13.705 30.55 30.55-13.705 30.549-30.55 30.549-30.55-13.704-30.55-30.549zm30.55 60.549c19.311 0 37.264 8.214 49.791 22.394-6.83 9.802-10.85 21.7-10.85 34.526 0 15.951 6.21 30.47 16.326 41.296-6.736 3.473-13.092 7.732-18.901 12.758-10.405 9.003-18.672 20.063-24.385 32.336l-78.449-78.448c.88-35.912 30.346-64.862 66.468-64.862zm168.431-60.549c0-16.845 13.705-30.55 30.55-30.55s30.55 13.705 30.55 30.55-13.705 30.549-30.55 30.549-30.55-13.704-30.55-30.549zm30.549 60.549c36.122 0 65.588 28.949 66.468 64.863l-78.448 78.449c-5.713-12.273-13.98-23.333-24.385-32.337-5.809-5.026-12.165-9.285-18.901-12.758 10.116-10.826 16.326-25.346 16.326-41.296 0-12.826-4.02-24.725-10.85-34.526 12.526-14.181 30.479-22.395 49.79-22.395zm-68.94 56.921c0 16.845-13.705 30.549-30.55 30.549s-30.55-13.705-30.55-30.549c0-16.845 13.705-30.55 30.55-30.55s30.55 13.704 30.55 30.55zm-94.754 109.696c3.436-12.71 10.62-24.225 20.71-32.956 12.065-10.441 27.513-16.191 43.494-16.191s31.429 5.75 43.494 16.191c10.09 8.731 17.275 20.246 20.71 32.956l-64.204 64.204zm256.138-127.836c-7.578-25.216-25.208-46.121-48.219-58.035 10.115-10.826 16.325-25.345 16.325-41.296 0-33.387-27.162-60.55-60.55-60.55s-60.55 27.163-60.55 60.55c0 15.922 6.187 30.419 16.271 41.239-10.609 5.471-20.18 12.918-28.198 22.064-8.138-4.075-17.309-6.383-27.013-6.383s-18.875 2.308-27.013 6.383c-8.018-9.146-17.59-16.593-28.198-22.064 10.084-10.82 16.271-25.317 16.271-41.239 0-33.387-27.162-60.55-60.55-60.55s-60.55 27.163-60.55 60.55c0 15.95 6.209 30.47 16.325 41.296-23.011 11.914-40.641 32.819-48.219 58.035-46.28-49.397-45.322-127.232 2.889-175.442 23.832-23.831 55.518-36.956 89.22-36.956s65.388 13.125 89.219 36.956l10.606 10.607 10.606-10.607c23.831-23.831 55.517-36.956 89.219-36.956s65.388 13.125 89.219 36.956c23.831 23.832 36.956 55.517 36.956 89.219 0 32.311-12.07 62.763-34.066 86.223z"/></g></svg>