<?xml version="1.0" encoding="UTF-8"?>
<svg xmlns="http://www.w3.org/2000/svg" xmlns:xlink="http://www.w3.org/1999/xlink" version="1.1" id="Layer_1" x="0px" y="0px" viewBox="0 0 510 510" style="enable-background:new 0 0 510 510;" xml:space="preserve" width="512" height="512">
<g id="XMLID_5_">
	<g id="XMLID_6_">
		<circle id="XMLID_122_" style="fill:none;stroke:#000000;stroke-width:30;stroke-miterlimit:10;" cx="255" cy="255" r="240"/>
		<path id="XMLID_121_" style="fill:none;stroke:#000000;stroke-width:30;stroke-miterlimit:10;" d="M173.81,311.14&#10;&#9;&#9;&#9;c13.83-4.63,25.87-13.17,34.78-24.33"/>
		<path id="XMLID_120_" style="fill:none;stroke:#000000;stroke-width:30;stroke-miterlimit:10;" d="M254.48,306.96l61.42-34.12&#10;&#9;&#9;&#9;c24.45-13.59,38.54-39.05,38.54-65.52c0-9.87-1.96-19.88-6.07-29.47c-11.25-26.23-6.6-56.58,11.97-78.25l34.2-39.89"/>
		<path id="XMLID_119_" style="fill:none;stroke:#000000;stroke-width:30;stroke-miterlimit:10;" d="M79.8,213.54&#10;&#9;&#9;&#9;c-3.109,13.178-4.767,26.915-4.8,41.035C74.771,353.833,155.743,435,255,435c27.36,0,53.31-6.11,76.53-17.03&#10;&#9;&#9;&#9;c3.462-1.63,6.864-3.367,10.201-5.207c12.989-7.161,21.04-21.163,19.985-35.957c-0.282-3.953-1.173-7.941-2.736-11.846&#10;&#9;&#9;&#9;c-6.08-15.21-20.75-24.79-36.52-24.79c-3.09,0-6.22,0.37-9.33,1.13c-8.69,2.13-18.41,3.7-28.13,3.7&#10;&#9;&#9;&#9;c-26.88,0-5.59-48.17-76.41-58.19c10.647-13.301,16.855-30.298,16.385-48.764c-1.013-39.828-33.592-72.226-73.426-73.03&#10;&#9;&#9;&#9;C118.773,164.354,90.672,184.725,79.8,213.54c-3.109,13.178-4.767,26.915-4.8,41.035C74.771,353.833,155.743,435,255,435&#10;&#9;&#9;&#9;c27.36,0,53.31-6.11,76.53-17.03"/>
	</g>
</g>















</svg>
