<?xml version="1.0" encoding="UTF-8" standalone="no"?>
<!-- Created with Inkscape (http://www.inkscape.org/) -->

<svg
   version="1.1"
   id="svg2493"
   xml:space="preserve"
   width="682.66669"
   height="682.66669"
   viewBox="0 0 682.66669 682.66669"
   xmlns="http://www.w3.org/2000/svg"
   xmlns:svg="http://www.w3.org/2000/svg"><defs
     id="defs2497"><clipPath
       clipPathUnits="userSpaceOnUse"
       id="clipPath2507"><path
         d="M 0,512 H 512 V 0 H 0 Z"
         id="path2505" /></clipPath></defs><g
     id="g2499"
     transform="matrix(1.3333333,0,0,-1.3333333,0,682.66667)"><g
       id="g2501"><g
         id="g2503"
         clip-path="url(#clipPath2507)"><g
           id="g2509"
           transform="translate(346,105)"><path
             d="m 0,0 c 0,-49.706 -40.294,-90 -90,-90 -49.706,0 -90,40.294 -90,90 0,49.706 90,151 90,151 C -90,151 0,49.706 0,0 Z"
             style="fill:none;stroke:#000000;stroke-width:30;stroke-linecap:round;stroke-linejoin:round;stroke-miterlimit:10;stroke-dasharray:none;stroke-opacity:1"
             id="path2511" /></g><g
           id="g2513"
           transform="translate(466,226)"><path
             d="M 0,0 C 0,53.573 -16.007,105.044 -63.627,162.841 -70.499,120.025 -86.429,90 -105,90 c -50.658,0 -105,181 -105,181 0,0 -56.358,-181 -105,-181 -18.57,0 -34.5,30.025 -41.373,72.841 C -404.325,104.642 -420,53.592 -420,0 c 0,-113.532 87.721,-211 210,-211 122.291,0 210,97.474 210,211 z"
             style="fill:none;stroke:#000000;stroke-width:30;stroke-linecap:round;stroke-linejoin:round;stroke-miterlimit:10;stroke-dasharray:none;stroke-opacity:1"
             id="path2515" /></g></g></g></g></svg>
