<svg height="511pt" viewBox="-13 0 511 511.99994" width="511pt" xmlns="http://www.w3.org/2000/svg"><path d="m472.816406 127.976562c-17.441406-45.460937-50.53125-81.359374-95.683594-103.816406-41.246093-20.511718-90.613281-28.335937-139.007812-22.035156-35.796875 4.660156-69.796875 17.175781-98.316406 36.195312-55.695313 37.140626-92.230469 97.28125-97.730469 160.871094-.824219 9.542969.578125 19.097656 1.929687 28.339844 1.421876 9.6875 2.761719 18.839844 1.113282 25.414062l-.003906.011719c-.363282 1.464844-4.46875 15.175781-35.671876 46.066407-7.828124 7.75-10.808593 19.148437-7.78125 29.742187 3.027344 10.605469 11.585938 18.710937 22.335938 21.15625 4.460938 1.015625 8.511719 1.914063 12.046875 2.695313 1.15625.253906 2.257813.5 3.296875.730468.277344 34.554688.601562 54.28125.96875 58.652344 1.058594 12.554688 6.578125 23.074219 15.960938 30.414062 13.011718 10.179688 32.683593 13.5 56.902343 9.613282 18.675781-3 29.777344 1.734375 33.011719 14.070312.292969 2.433594 1.144531 9.917969 1.699219 18.09375 1.050781 15.59375 14.121093 27.808594 29.753906 27.808594h192.992187c16.453126 0 29.839844-13.386719 29.839844-29.84375v-53.394531c0-37.648438 5.917969-63.257813 17.585938-76.117188 28.953125-31.90625 49.632812-67.753906 59.800781-103.671875 11.664063-41.171875 9.964844-81.878906-5.042969-120.996094zm-23.816406 112.820313c-8.917969 31.488281-27.296875 63.191406-53.152344 91.683594-17.074218 18.816406-25.371094 50.308593-25.371094 96.28125v53.238281h-192.675781c-.730469-10.765625-1.902343-20.097656-1.953125-20.488281l-.097656-.769531-.175781-.753907c-3.117188-13.394531-10.574219-24.058593-21.5625-30.835937-12.003907-7.410156-27.34375-9.679688-45.59375-6.746094-15.308594 2.457031-27.578125 1.140625-33.660157-3.621094-1.730468-1.351562-4.089843-3.792968-4.550781-9.300781-.230469-2.726563-.585937-19.777344-.890625-59.453125-.09375-12.191406-8.460937-22.585938-20.351562-25.273438-1.886719-.425781-4.046875-.902343-6.441406-1.433593-3.480469-.769531-7.472657-1.652344-11.871094-2.652344-.050782-.011719-.085938-.023437-.09375-.023437-.042969-.066407-.082032-.195313-.089844-.210938 0 0 .019531-.03125.082031-.089844 24.894531-24.648437 39.996094-45.433594 43.667969-60.101562 3.097656-12.34375 1.253906-24.914063-.527344-37.066406-1.15625-7.886719-2.25-15.339844-1.726562-21.402344 2.332031-26.945313 11.507812-54.058594 26.542968-78.40625 14.734376-23.855469 34.769532-44.636719 57.941407-60.089844 24.710937-16.476562 54.292969-27.335938 85.546875-31.40625 42.554687-5.542969 85.804687 1.261719 121.78125 19.152344 38.308594 19.046875 66.328125 49.375 81.03125 87.699218 12.636718 32.929688 14.046875 67.273438 4.191406 102.070313zm0 0"/><path d="m265.082031 71.1875c-76.238281 0-138.265625 62.03125-138.265625 138.277344 0 76.25 62.023438 138.28125 138.265625 138.28125 76.242188 0 138.269531-62.03125 138.269531-138.28125 0-76.246094-62.027343-138.277344-138.269531-138.277344zm0 246.558594c-59.699219 0-108.269531-48.574219-108.269531-108.277344 0-59.707031 48.570312-108.28125 108.269531-108.28125s108.269531 48.574219 108.269531 108.28125c0 59.703125-48.570312 108.277344-108.269531 108.277344zm0 0"/><path d="m231.25 193.480469c8.285156 0 15-6.714844 15-15v-17.367188c0-8.28125-6.714844-15-15-15-8.28125 0-14.996094 6.71875-14.996094 15v17.367188c0 8.285156 6.714844 15 14.996094 15zm0 0"/><path d="m301.246094 193.480469c8.285156 0 15-6.714844 15-15v-17.367188c0-8.28125-6.714844-15-15-15-8.28125 0-15 6.71875-15 15v17.367188c0 8.285156 6.71875 15 15 15zm0 0"/><path d="m309.65625 210.242188c-8.285156 0-15 6.714843-15 15 0 16.308593-13.265625 29.578124-29.574219 29.578124-16.304687 0-29.570312-13.269531-29.570312-29.578124 0-8.285157-6.71875-15-15-15-8.285157 0-15 6.714843-15 15 0 32.851562 26.722656 59.578124 59.570312 59.578124 32.851563 0 59.574219-26.726562 59.574219-59.578124-.003906-8.285157-6.71875-15-15-15zm0 0"/></svg>