<?xml version="1.0" encoding="UTF-8"?>
<svg xmlns="http://www.w3.org/2000/svg" xmlns:xlink="http://www.w3.org/1999/xlink" version="1.1" id="Capa_1" x="0px" y="0px" viewBox="0 0 512 512" style="enable-background:new 0 0 512 512;" xml:space="preserve" width="512" height="512">
<g>
	<circle style="fill:none;stroke:#000000;stroke-width:30;stroke-miterlimit:10;" cx="387" cy="387" r="110"/>
	<path style="fill:none;stroke:#000000;stroke-width:30;stroke-miterlimit:10;" d="M403.816,276.723l31.722-31.722&#10;&#9;&#9;c52.615-52.617,52.615-137.924,0-190.539C382.922,1.846,297.616,1.846,245,54.462c-52.616-52.616-137.922-52.616-190.538,0&#10;&#9;&#9;c-52.615,52.615-52.615,137.922,0,190.539L245,435.539l31.723-31.723"/>
	<polyline style="fill:none;stroke:#000000;stroke-width:30;stroke-miterlimit:10;" points="341.038,390.536 369.322,418.82 &#10;&#9;&#9;432.962,355.181 &#9;"/>
	<polyline style="fill:none;stroke:#000000;stroke-width:30;stroke-miterlimit:10;" points="105,175 155,175 185,125 225,225 &#10;&#9;&#9;265,135 295,225 335,175 385,175 &#9;"/>
</g>















</svg>
