<?xml version="1.0" encoding="UTF-8" standalone="no"?>
<!-- Created with Inkscape (http://www.inkscape.org/) -->

<svg
   version="1.1"
   id="svg1296"
   xml:space="preserve"
   width="682.66669"
   height="682.66669"
   viewBox="0 0 682.66669 682.66669"
   xmlns="http://www.w3.org/2000/svg"
   xmlns:svg="http://www.w3.org/2000/svg"><defs
     id="defs1300"><clipPath
       clipPathUnits="userSpaceOnUse"
       id="clipPath1310"><path
         d="M 0,512 H 512 V 0 H 0 Z"
         id="path1308" /></clipPath></defs><g
     id="g1302"
     transform="matrix(1.3333333,0,0,-1.3333333,0,682.66667)"><g
       id="g1304"><g
         id="g1306"
         clip-path="url(#clipPath1310)"><g
           id="g1312"
           transform="translate(56.2744,235.4961)"><path
             d="m 0,0 c -55.033,54.792 -55.033,143.769 0,198.561 55.113,54.792 144.612,54.792 199.726,0 l 0.642,0.642 c 55.194,54.15 144.131,53.941 199.083,-0.642 55.032,-54.792 55.032,-143.769 0,-198.561 L 199.726,-198.649 v 0.008 0.008 C 198.521,-197.404 0,0 0,0 Z"
             style="fill:none;stroke:#000000;stroke-width:30;stroke-linecap:round;stroke-linejoin:round;stroke-miterlimit:10;stroke-dasharray:none;stroke-opacity:1"
             id="path1314" /></g><g
           id="g1316"
           transform="translate(109.6206,182.4956)"><path
             d="m 0,0 c -40.411,40.178 -40.411,105.406 0,145.584 40.411,40.178 105.968,40.178 146.379,0 l 0.483,0.466 c 40.41,39.704 105.646,39.552 145.897,-0.466 C 333.17,105.406 333.17,40.178 292.759,0 l -146.38,-145.649 v 0.008 z"
             style="fill:none;stroke:#000000;stroke-width:30;stroke-linecap:round;stroke-linejoin:round;stroke-miterlimit:10;stroke-dasharray:none;stroke-opacity:1"
             id="path1318" /></g><g
           id="g1320"
           transform="translate(168.188,124.2407)"><path
             d="m 0,0 c -24.262,24.102 -24.262,63.244 0,87.346 24.182,24.11 63.549,24.11 87.812,0 l 0.322,0.281 c 24.263,23.821 63.388,23.732 87.491,-0.281 24.261,-24.102 24.261,-63.244 0,-87.346 L 87.812,-87.394 v 0.008 z"
             style="fill:none;stroke:#000000;stroke-width:30;stroke-linecap:round;stroke-linejoin:round;stroke-miterlimit:10;stroke-dasharray:none;stroke-opacity:1"
             id="path1322" /></g></g></g></g></svg>
