<?xml version="1.0" encoding="UTF-8" standalone="no"?>
<!-- Created with Inkscape (http://www.inkscape.org/) -->
<svg xmlns="http://www.w3.org/2000/svg" xmlns:svg="http://www.w3.org/2000/svg" version="1.1" id="svg3474" width="682.66669" height="682.66669" viewBox="0 0 682.66669 682.66669">
  <defs id="defs3478">
    <clipPath clipPathUnits="userSpaceOnUse" id="clipPath3488">
      <path d="M 0,512 H 512 V 0 H 0 Z" id="path3486"/>
    </clipPath>
  </defs>
  <mask id="custom"><rect id="bg" x="0" y="0" width="100%" height="100%" fill="white"/><g transform="matrix(1.3333333,0,0,-1.3333333,0,682.66667)"/></mask><g mask="url(#custom)"><g id="g3480" transform="matrix(1.3333333,0,0,-1.3333333,0,682.66667)">
    <g id="g3482">
      <g id="g3484" clip-path="url(#clipPath3488)">
        <g id="g3490" transform="translate(455.6511,434.9766)">
          <path d="m 0,0 c -55.132,55.132 -144.519,55.132 -199.651,0 -55.132,55.132 -144.519,55.132 -199.651,0 -55.132,-55.132 -55.132,-144.519 0,-199.651 L -199.651,-399.302 0,-199.651 C 55.132,-144.519 55.132,-55.132 0,0 Z" style="fill:none;stroke:#000000;stroke-width:30;stroke-linecap:round;stroke-linejoin:round;stroke-miterlimit:10;stroke-dasharray:none;stroke-opacity:1" id="path3492"/>
        </g>
        <g id="g3494" transform="translate(221,350)">
          <path d="m 0,0 c 0,-24.853 -20.147,-45 -45,-45 -24.853,0 -45,20.147 -45,45 0,24.853 20.147,45 45,45 C -20.147,45 0,24.853 0,0 Z" style="fill:none;stroke:#000000;stroke-width:30;stroke-linecap:round;stroke-linejoin:round;stroke-miterlimit:10;stroke-dasharray:none;stroke-opacity:1" id="path3496"/>
        </g>
        <g id="g3498" transform="translate(381,350)">
          <path d="m 0,0 c 0,-24.853 -20.147,-45 -45,-45 -24.853,0 -45,20.147 -45,45 0,24.853 20.147,45 45,45 C -20.147,45 0,24.853 0,0 Z" style="fill:none;stroke:#000000;stroke-width:30;stroke-linecap:round;stroke-linejoin:round;stroke-miterlimit:10;stroke-dasharray:none;stroke-opacity:1" id="path3500"/>
        </g>
        <g id="g3502" transform="translate(301,190)">
          <path d="m 0,0 c 0,-24.853 -20.147,-45 -45,-45 -24.853,0 -45,20.147 -45,45 0,24.853 20.147,45 45,45 C -20.147,45 0,24.853 0,0 Z" style="fill:none;stroke:#000000;stroke-width:30;stroke-linecap:round;stroke-linejoin:round;stroke-miterlimit:10;stroke-dasharray:none;stroke-opacity:1" id="path3504"/>
        </g>
        <g id="g3506" transform="translate(186.7092,104.9653)">
          <path d="m 0,0 c 13.829,23.924 39.67,40.035 69.291,40.035 29.62,0 55.461,-16.111 69.291,-40.035" style="fill:none;stroke:#000000;stroke-width:30;stroke-linecap:round;stroke-linejoin:round;stroke-miterlimit:10;stroke-dasharray:none;stroke-opacity:1" id="path3508"/>
        </g>
        <g id="g3510" transform="translate(301,190)">
          <path d="m 0,0 c 0,-24.853 -20.147,-45 -45,-45 -24.853,0 -45,20.147 -45,45 0,24.853 20.147,45 45,45 C -20.147,45 0,24.853 0,0 Z" style="fill:none;stroke:#000000;stroke-width:30;stroke-linecap:round;stroke-linejoin:round;stroke-miterlimit:10;stroke-dasharray:none;stroke-opacity:1" id="path3512"/>
        </g>
        <g id="g3514" transform="translate(256.6423,234.9839)">
          <path d="m 0,0 c 4.917,39.467 38.558,70.016 79.358,70.016 44.183,0 80,-35.817 80,-80 v -29.325" style="fill:none;stroke:#000000;stroke-width:30;stroke-linecap:round;stroke-linejoin:round;stroke-miterlimit:10;stroke-dasharray:none;stroke-opacity:1" id="path3516"/>
        </g>
        <g id="g3518" transform="translate(255.3577,234.9839)">
          <path d="m 0,0 c -4.917,39.467 -38.558,70.016 -79.358,70.016 -44.183,0 -80,-35.817 -80,-80 v -29.325" style="fill:none;stroke:#000000;stroke-width:30;stroke-linecap:round;stroke-linejoin:round;stroke-miterlimit:10;stroke-dasharray:none;stroke-opacity:1" id="path3520"/>
        </g>
      </g>
    </g>
  </g></g>
</svg>
