<?xml version="1.0" encoding="UTF-8" standalone="no"?>
<!-- Created with Inkscape (http://www.inkscape.org/) -->

<svg
   version="1.1"
   id="svg687"
   xml:space="preserve"
   width="682.66669"
   height="682.66669"
   viewBox="0 0 682.66669 682.66669"
   xmlns="http://www.w3.org/2000/svg"
   xmlns:svg="http://www.w3.org/2000/svg"><defs
     id="defs691"><clipPath
       clipPathUnits="userSpaceOnUse"
       id="clipPath701"><path
         d="M 0,512 H 512 V 0 H 0 Z"
         id="path699" /></clipPath></defs><g
     id="g693"
     transform="matrix(1.3333333,0,0,-1.3333333,0,682.66667)"><g
       id="g695"><g
         id="g697"
         clip-path="url(#clipPath701)"><g
           id="g703"
           transform="translate(315.9878,497)"><path
             d="m 0,0 c 32.999,0 60,-29.001 60,-62 49.799,0 90,-40.201 90,-90 0,-9.523 -1.842,-18.492 -4.582,-27.019 C 166.159,-192.376 181,-215.552 181,-242 c 0,-26.448 -14.841,-49.624 -35.582,-62.981 2.74,-8.527 4.582,-17.496 4.582,-27.019 0,-49.799 -40.201,-90 -90,-90 0,-32.999 -27.001,-60 -60,-60 -33,0 -60,27.001 -60,60 v 362 c 0,32.999 27,60 60,60 z"
             style="fill:none;stroke:#000000;stroke-width:30;stroke-linecap:round;stroke-linejoin:round;stroke-miterlimit:10;stroke-dasharray:none;stroke-opacity:1"
             id="path705" /></g><g
           id="g707"
           transform="translate(496.9878,255)"><path
             d="M 0,0 C 0,41.353 -34.647,75 -76,75"
             style="fill:none;stroke:#000000;stroke-width:30;stroke-linecap:round;stroke-linejoin:round;stroke-miterlimit:10;stroke-dasharray:none;stroke-opacity:1"
             id="path709" /></g><g
           id="g711"
           transform="translate(255.9878,437)"><path
             d="m 0,0 c 0,32.999 -27.001,60 -60,60 -33,0 -60,-29.001 -60,-62 -49.799,0 -90,-40.201 -90,-90 0,-9.523 1.842,-18.492 4.581,-27.019 C -226.159,-132.376 -241,-155.552 -241,-182 c 0,-26.448 14.841,-49.624 35.581,-62.981 -2.739,-8.527 -4.581,-17.496 -4.581,-27.019 0,-49.799 40.201,-90 90,-90 0,-32.999 27,-60 60,-60 32.999,0 60,27.001 60,60"
             style="fill:none;stroke:#000000;stroke-width:30;stroke-linecap:round;stroke-linejoin:round;stroke-miterlimit:10;stroke-dasharray:none;stroke-opacity:1"
             id="path713" /></g><g
           id="g715"
           transform="translate(14.9878,255)"><path
             d="M 0,0 C 0,41.353 34.647,75 76,75"
             style="fill:none;stroke:#000000;stroke-width:30;stroke-linecap:round;stroke-linejoin:round;stroke-miterlimit:10;stroke-dasharray:none;stroke-opacity:1"
             id="path717" /></g><g
           id="g719"
           transform="translate(315.9878,373.4998)"><path
             d="M 0,0 C -34.233,-6.949 -60,-37.215 -60,-73.5"
             style="fill:none;stroke:#000000;stroke-width:30;stroke-linecap:round;stroke-linejoin:round;stroke-miterlimit:10;stroke-dasharray:none;stroke-opacity:1"
             id="path721" /></g><g
           id="g723"
           transform="translate(315.9878,193.4998)"><path
             d="M 0,0 C -34.233,-6.949 -60,-37.216 -60,-73.5"
             style="fill:none;stroke:#000000;stroke-width:30;stroke-linecap:round;stroke-linejoin:round;stroke-miterlimit:10;stroke-dasharray:none;stroke-opacity:1"
             id="path725" /></g><g
           id="g727"
           transform="translate(439.6274,228.6396)"><path
             d="M 0,0 C 16.287,-16.287 26.36,-38.787 26.36,-63.64"
             style="fill:none;stroke:#000000;stroke-width:30;stroke-linecap:round;stroke-linejoin:round;stroke-miterlimit:10;stroke-dasharray:none;stroke-opacity:1"
             id="path729" /></g><g
           id="g731"
           transform="translate(45.9878,165)"><path
             d="M 0,0 C 0,24.853 10.074,47.353 26.36,63.64"
             style="fill:none;stroke:#000000;stroke-width:30;stroke-linecap:round;stroke-linejoin:round;stroke-miterlimit:10;stroke-dasharray:none;stroke-opacity:1"
             id="path733" /></g><g
           id="g735"
           transform="translate(375.9878,75)"><path
             d="M 0,0 C 0,16.568 -6.716,31.568 -17.574,42.426"
             style="fill:none;stroke:#000000;stroke-width:30;stroke-linecap:round;stroke-linejoin:round;stroke-miterlimit:10;stroke-dasharray:none;stroke-opacity:1"
             id="path737" /></g><g
           id="g739"
           transform="translate(135.9878,75)"><path
             d="M 0,0 C 0,16.568 6.716,31.568 17.574,42.426"
             style="fill:none;stroke:#000000;stroke-width:30;stroke-linecap:round;stroke-linejoin:round;stroke-miterlimit:10;stroke-dasharray:none;stroke-opacity:1"
             id="path741" /></g><g
           id="g743"
           transform="translate(195.9878,373.4998)"><path
             d="M 0,0 C 34.233,-6.949 60,-37.215 60,-73.5"
             style="fill:none;stroke:#000000;stroke-width:30;stroke-linecap:round;stroke-linejoin:round;stroke-miterlimit:10;stroke-dasharray:none;stroke-opacity:1"
             id="path745" /></g><g
           id="g747"
           transform="translate(195.9878,193.4998)"><path
             d="M 0,0 C 34.233,-6.949 60,-37.216 60,-73.5"
             style="fill:none;stroke:#000000;stroke-width:30;stroke-linecap:round;stroke-linejoin:round;stroke-miterlimit:10;stroke-dasharray:none;stroke-opacity:1"
             id="path749" /></g></g></g></g></svg>
