<svg id="Capa_1" enable-background="new 0 0 512.007 512.007" height="512" viewBox="0 0 512.007 512.007" width="512" xmlns="http://www.w3.org/2000/svg"><path d="m332.004 270.004c0 49.626 40.374 90 90 90s90-40.374 90-90c0-2.441-.634-5.015-1.888-7.285l-65.158-117.285c.714-.297 1.429-.59 2.135-.916l56.189-25.892c7.523-3.467 10.813-12.377 7.345-19.901-3.467-7.523-12.375-10.813-19.901-7.345l-56.188 25.891c-3.934 1.813-8.151 2.732-12.534 2.732-3.704 0-7.313-.663-10.727-1.971l-119.731-45.477c5.92-7.619 9.458-17.177 9.458-27.551 0-24.813-20.187-45-45-45s-45 20.187-45 45c0 10.374 3.538 19.932 9.458 27.551l-119.731 45.478c-3.414 1.308-7.023 1.971-10.727 1.971-4.383 0-8.6-.919-12.534-2.731l-56.189-25.892c-7.524-3.467-16.434-.178-19.901 7.345-3.467 7.524-.178 16.434 7.345 19.901l56.189 25.892c.706.325 1.42.619 2.134.915l-65.157 117.285c-.009.016-.017.033-.026.05-1.223 2.218-1.862 4.778-1.862 7.235 0 49.626 40.374 90 90 90s90-40.374 90-90c0-2.531-.68-5.092-1.862-7.235-.009-.016-.017-.033-.026-.05l-65.14-117.251 128.027-48.656v203.192h-15c-8.284 0-15 6.716-15 15v107h-75c-24.813 0-45 20.187-45 45v15h-15c-8.284 0-15 6.716-15 15s6.716 15 15 15h360c8.284 0 15-6.716 15-15s-6.716-15-15-15h-15v-15c0-24.813-20.187-45-45-45h-75v-107c0-8.284-6.716-15-15-15h-15v-203.192l128.027 48.656-65.14 117.251c-1.26 2.271-1.885 4.871-1.885 7.285zm59 197v15h-270v-15c0-8.271 6.729-15 15-15h240c8.271 0 15 6.729 15 15zm-150-45v-92h30v92zm181-92c-27.906 0-51.421-19.151-58.099-45h116.198c-6.679 25.848-30.194 45-58.099 45zm-49.508-75 49.507-89.113 49.507 89.113zm-116.492-225c8.271 0 15 6.729 15 15s-6.729 15-15 15-15-6.729-15-15 6.729-15 15-15zm-116.493 225h-99.015l49.507-89.113zm-49.507 75c-27.906 0-51.421-19.151-58.099-45h116.198c-6.678 25.848-30.194 45-58.099 45z"/></svg>