<svg height="511pt" viewBox="-64 1 511 511.99975" width="511pt" xmlns="http://www.w3.org/2000/svg"><path d="m287.613281 191.640625c0-52.566406-42.769531-95.335937-95.335937-95.335937s-95.332032 42.769531-95.332032 95.335937 42.765626 95.332031 95.332032 95.332031 95.335937-42.765625 95.335937-95.332031zm-160.667969 0c0-36.027344 29.308594-65.335937 65.332032-65.335937 36.023437 0 65.332031 29.308593 65.332031 65.335937 0 36.023437-29.308594 65.332031-65.332031 65.332031-36.023438 0-65.332032-29.308594-65.332032-65.332031zm0 0"/><path d="m286.90625 368.148438 40.960938-40.960938c74.96875-74.96875 74.859374-196.199219.03125-271.0625-.03125-.03125-.0625-.0625-.09375-.09375-74.742188-74.714844-196.34375-74.710938-271.074219.023438l-.039063.035156c-74.980468 74.980468-74.863281 196.234375 0 271.097656l40.957032 40.960938c-41.140626 14.410156-64.96875 37.660156-64.96875 64.585937 0 49.4375 77.835937 79.265625 159.597656 79.265625 82.277344 0 159.601562-30.105469 159.601562-79.265625 0-26.925781-23.832031-50.179687-64.972656-64.585937zm-209-290.84375.035156-.039063c63.046875-63.046875 165.628906-63.046875 228.671875 0 .003907.003906.011719.007813.015625.015625.007813.007812.015625.015625.023438.023438 63.046875 63.042968 63.046875 165.625 0 228.671874l-102.257813 102.257813c-3.238281 3.238281-7.539062 5.019531-12.117187 5.019531-4.574219 0-8.878906-1.78125-12.113282-5.019531l-102.257812-102.257813c-63.046875-63.046874-63.046875-165.628906 0-228.671874zm114.371094 404.695312c-77.230469 0-129.597656-27.617188-129.597656-49.265625 0-17.195313 29.257812-32.480469 58.988281-40.570313l37.28125 37.28125c8.902343 8.902344 20.738281 13.808594 33.328125 13.808594s24.425781-4.902344 33.328125-13.808594l37.28125-37.28125c29.730469 8.089844 58.992187 23.375 58.992187 40.570313 0 21.691406-52.445312 49.265625-129.601562 49.265625zm0 0"/></svg>