<svg id="Layer_1" enable-background="new 0 0 512 512" height="512" viewBox="0 0 512 512" width="512" xmlns="http://www.w3.org/2000/svg"><path d="m497 482h-118.417l-17.858-43.115c9.908-8.647 16.188-21.353 16.188-35.505 0-2.934-.283-5.801-.798-8.588 19.056-13.552 35.873-30.367 49.421-49.414 2.787.515 5.654.798 8.588.798 25.989 0 47.133-21.144 47.133-47.133 0-16.087-8.106-30.311-20.443-38.82 3.896-23.063 3.896-46.857.001-69.925 12.337-8.509 20.443-22.733 20.443-38.82 0-25.989-21.144-47.133-47.133-47.133-2.934 0-5.801.283-8.588.798-13.552-19.054-30.369-35.871-49.422-49.422.516-2.787.798-5.654.798-8.588-.001-25.988-21.145-47.133-47.135-47.133-16.086 0-30.31 8.106-38.819 20.442-23.062-3.894-46.854-3.894-69.919 0-8.508-12.336-22.732-20.442-38.818-20.442-25.989 0-47.133 21.145-47.133 47.134 0 2.934.283 5.801.798 8.587-19.054 13.552-35.871 30.369-49.423 49.423-2.787-.515-5.654-.798-8.587-.798-25.989 0-47.133 21.144-47.133 47.133 0 16.087 8.106 30.311 20.443 38.819-3.895 23.067-3.894 46.862.001 69.925-12.337 8.509-20.443 22.733-20.443 38.82 0 25.989 21.144 47.133 47.133 47.133 2.934 0 5.801-.283 8.588-.798 13.548 19.047 30.365 35.862 49.422 49.415-.515 2.787-.798 5.654-.798 8.588 0 14.154 6.28 26.86 16.189 35.507l-17.861 43.112h-118.418c-8.284 0-15 6.716-15 15s6.716 15 15 15h482c8.284 0 15-6.716 15-15s-6.716-15-15-15zm-135.644-113.579c-8.364-7.562-19.441-12.175-31.578-12.175-1.089 0-2.166.051-3.236.124l-42.824-103.391 103.395 42.828c-.073 1.071-.124 2.148-.124 3.237 0 12.136 4.613 23.214 12.175 31.577-10.621 14.37-23.43 27.176-37.808 37.8zm-14.444 34.959c0 9.447-7.687 17.133-17.134 17.133s-17.134-7.686-17.134-17.133 7.687-17.134 17.134-17.134 17.134 7.687 17.134 17.134zm-48.078-35.508c-9.35 8.158-15.468 19.93-16.129 33.123-17.66 2.648-35.754 2.649-53.411.001-.661-13.193-6.779-24.965-16.128-33.123l42.834-103.417zm135.289-51.696c-9.447 0-17.134-7.686-17.134-17.133s7.687-17.134 17.134-17.134 17.133 7.687 17.133 17.134-7.686 17.133-17.133 17.133zm0-181.83c9.447 0 17.133 7.686 17.133 17.133s-7.686 17.134-17.133 17.134-17.134-7.687-17.134-17.134 7.687-17.133 17.134-17.133zm-2.385 64.206c2.649 17.662 2.648 35.759-.001 53.418-13.192.661-24.964 6.78-33.122 16.129l-103.418-42.838 103.418-42.838c8.159 9.349 19.93 15.468 33.123 16.129zm-32.574-78.651c-7.562 8.363-12.175 19.441-12.175 31.578 0 1.089.051 2.166.124 3.237l-103.398 42.83 42.828-103.402c1.071.073 2.147.124 3.236.124 12.136 0 23.214-4.613 31.578-12.174 14.374 10.621 27.184 23.43 37.807 37.807zm-69.386-89.901c9.447 0 17.134 7.687 17.134 17.134s-7.687 17.133-17.134 17.133-17.134-7.686-17.134-17.133 7.687-17.134 17.134-17.134zm-100.484 19.519c17.66-2.648 35.754-2.648 53.411-.001.661 13.193 6.779 24.965 16.13 33.124l-42.835 103.416-42.834-103.417c9.349-8.158 15.468-19.93 16.128-33.122zm-47.072-19.519c9.447 0 17.133 7.687 17.133 17.134s-7.686 17.133-17.133 17.133-17.133-7.686-17.133-17.133 7.685-17.134 17.133-17.134zm-31.577 52.093c8.363 7.561 19.441 12.174 31.577 12.174 1.089 0 2.166-.051 3.236-.124l42.828 103.402-103.4-42.83c.073-1.071.124-2.147.124-3.236 0-12.136-4.613-23.214-12.175-31.577 10.624-14.377 23.434-27.187 37.81-37.809zm-72.768 52.253c9.447 0 17.133 7.686 17.133 17.133s-7.686 17.134-17.133 17.134-17.133-7.687-17.133-17.134 7.686-17.133 17.133-17.133zm0 181.83c-9.447 0-17.133-7.686-17.133-17.133s7.686-17.134 17.133-17.134 17.133 7.687 17.133 17.134-7.686 17.133-17.133 17.133zm2.386-64.206c-2.649-17.659-2.649-35.756-.001-53.418 13.193-.661 24.964-6.779 33.122-16.129l103.419 42.838-103.419 42.838c-8.158-9.349-19.929-15.468-33.121-16.129zm70.381 116.451c-14.378-10.624-27.187-23.431-37.808-37.801 7.562-8.363 12.174-19.441 12.174-31.577 0-1.089-.051-2.166-.124-3.236l103.396-42.829-42.824 103.392c-1.071-.073-2.148-.124-3.237-.124-12.136 0-23.214 4.613-31.577 12.175zm48.711 34.959c0 9.447-7.686 17.133-17.133 17.133s-17.133-7.686-17.133-17.133 7.686-17.134 17.133-17.134 17.133 7.687 17.133 17.134zm-20.37 47.009c1.071.073 2.148.124 3.237.124 16.087 0 30.31-8.106 38.819-20.442 11.53 1.947 23.241 2.922 34.956 2.922 11.713 0 23.429-.975 34.962-2.922 8.509 12.337 22.733 20.443 38.82 20.443 1.09 0 2.167-.051 3.239-.124l13.093 31.61h-180.221z"/></svg>