<?xml version="1.0" encoding="UTF-8" standalone="no"?>
<!-- Created with Inkscape (http://www.inkscape.org/) -->

<svg
   version="1.1"
   id="svg807"
   xml:space="preserve"
   width="682.66669"
   height="682.66669"
   viewBox="0 0 682.66669 682.66669"
   xmlns="http://www.w3.org/2000/svg"
   xmlns:svg="http://www.w3.org/2000/svg"><defs
     id="defs811"><clipPath
       clipPathUnits="userSpaceOnUse"
       id="clipPath821"><path
         d="M 0,512 H 512 V 0 H 0 Z"
         id="path819" /></clipPath></defs><g
     id="g813"
     transform="matrix(1.3333333,0,0,-1.3333333,0,682.66667)"><g
       id="g815"><g
         id="g817"
         clip-path="url(#clipPath821)"><g
           id="g823"
           transform="translate(256,446.647)"><path
             d="m 0,0 c 0,0 17.802,17.802 35.611,35.604 19.666,19.666 51.55,19.666 71.216,0 19.665,-19.666 19.665,-51.55 0,-71.216 C 64.636,-77.803 0,-142.447 0,-142.447 c 0,0 -64.636,64.644 -106.828,106.835 -19.673,19.666 -19.673,51.55 0,71.216 19.666,19.666 51.55,19.666 71.216,0 C -17.802,17.802 0,0 0,0 Z"
             style="fill:none;stroke:#000000;stroke-width:30;stroke-linecap:round;stroke-linejoin:round;stroke-miterlimit:10;stroke-dasharray:none;stroke-opacity:1"
             id="path825" /></g><g
           id="g827"
           transform="translate(31.0669,368.4668)"><path
             d="M 0,0 32.133,16.066"
             style="fill:none;stroke:#000000;stroke-width:30;stroke-linecap:round;stroke-linejoin:round;stroke-miterlimit:10;stroke-dasharray:none;stroke-opacity:1"
             id="path829" /></g><g
           id="g831"
           transform="translate(31.0669,497)"><path
             d="M 0,0 32.133,-16.067"
             style="fill:none;stroke:#000000;stroke-width:30;stroke-linecap:round;stroke-linejoin:round;stroke-miterlimit:10;stroke-dasharray:none;stroke-opacity:1"
             id="path833" /></g><g
           id="g835"
           transform="translate(480.9336,368.4668)"><path
             d="M 0,0 -32.134,16.066"
             style="fill:none;stroke:#000000;stroke-width:30;stroke-linecap:round;stroke-linejoin:round;stroke-miterlimit:10;stroke-dasharray:none;stroke-opacity:1"
             id="path837" /></g><g
           id="g839"
           transform="translate(480.9336,497)"><path
             d="M 0,0 -32.134,-16.067"
             style="fill:none;stroke:#000000;stroke-width:30;stroke-linecap:round;stroke-linejoin:round;stroke-miterlimit:10;stroke-dasharray:none;stroke-opacity:1"
             id="path841" /></g><g
           id="g843"
           transform="translate(95.3335,207.7998)"><path
             d="m 0,0 v 0 c 0,-9.704 -5.905,-18.428 -14.918,-22.027 -12.733,-5.094 -31.162,-12.468 -45.22,-18.091 -12.195,-4.877 -20.195,-16.694 -20.195,-29.836 V -192.8 H 80.333 v 122.846 c 0,13.142 -8.001,24.959 -20.204,29.836 -14.05,5.623 -32.479,12.997 -45.212,18.091 C 5.904,-18.428 0,-9.704 0,0 Z"
             style="fill:none;stroke:#000000;stroke-width:30;stroke-linecap:round;stroke-linejoin:round;stroke-miterlimit:10;stroke-dasharray:none;stroke-opacity:1"
             id="path845" /></g><g
           id="g847"
           transform="translate(416.667,207.7998)"><path
             d="m 0,0 v 0 c 0,-9.704 -5.905,-18.428 -14.918,-22.027 -12.733,-5.094 -31.162,-12.468 -45.22,-18.091 -12.195,-4.877 -20.196,-16.694 -20.196,-29.836 V -192.8 H 80.333 v 122.846 c 0,13.142 -8.002,24.959 -20.204,29.836 C 46.078,-34.495 27.65,-27.121 14.918,-22.027 5.904,-18.428 0,-9.704 0,0 Z"
             style="fill:none;stroke:#000000;stroke-width:30;stroke-linecap:round;stroke-linejoin:round;stroke-miterlimit:10;stroke-dasharray:none;stroke-opacity:1"
             id="path849" /></g><g
           id="g851"
           transform="translate(256,159.6001)"><path
             d="m 0,0 v 0 c 0,-9.705 -5.905,-18.429 -14.918,-22.027 -12.733,-5.094 -31.162,-12.468 -45.22,-18.092 -12.195,-4.876 -20.195,-16.693 -20.195,-29.836 V -144.6 H 80.333 v 74.645 c 0,13.143 -8.001,24.96 -20.204,29.836 -14.05,5.624 -32.479,12.998 -45.211,18.092 C 5.904,-18.429 0,-9.705 0,0 Z"
             style="fill:none;stroke:#000000;stroke-width:30;stroke-linecap:round;stroke-linejoin:round;stroke-miterlimit:10;stroke-dasharray:none;stroke-opacity:1"
             id="path853" /></g><g
           id="g855"
           transform="translate(95.3335,288.1333)"><path
             d="m 0,0 c 22.172,0 40.167,-17.995 40.167,-40.167 0,-22.164 -17.995,-40.166 -40.167,-40.166 -22.172,0 -40.167,18.002 -40.167,40.166 C -40.167,-17.995 -22.172,0 0,0 Z"
             style="fill:none;stroke:#000000;stroke-width:30;stroke-linecap:round;stroke-linejoin:round;stroke-miterlimit:10;stroke-dasharray:none;stroke-opacity:1"
             id="path857" /></g><g
           id="g859"
           transform="translate(416.667,288.1333)"><path
             d="m 0,0 c 22.172,0 40.166,-17.995 40.166,-40.167 0,-22.164 -17.994,-40.166 -40.166,-40.166 -22.173,0 -40.167,18.002 -40.167,40.166 C -40.167,-17.995 -22.173,0 0,0 Z"
             style="fill:none;stroke:#000000;stroke-width:30;stroke-linecap:round;stroke-linejoin:round;stroke-miterlimit:10;stroke-dasharray:none;stroke-opacity:1"
             id="path861" /></g><g
           id="g863"
           transform="translate(256,239.9331)"><path
             d="m 0,0 c 22.172,0 40.167,-17.995 40.167,-40.167 0,-22.164 -17.995,-40.166 -40.167,-40.166 -22.172,0 -40.167,18.002 -40.167,40.166 C -40.167,-17.995 -22.172,0 0,0 Z"
             style="fill:none;stroke:#000000;stroke-width:30;stroke-linecap:round;stroke-linejoin:round;stroke-miterlimit:10;stroke-dasharray:none;stroke-opacity:1"
             id="path865" /></g></g></g></g></svg>
