<svg id="Capa_1" enable-background="new 0 0 512 512" height="512" viewBox="0 0 512 512" width="512" xmlns="http://www.w3.org/2000/svg"><g><path d="m499.091 243.042c-16.073-59.578-56.452-110.526-110.785-139.781-17.27-9.299-37.632-8.846-54.471 1.212s-26.892 27.772-26.892 47.386v64.104l-35.943-35.943v-151.863h-30v151.863l-35.943 35.943v-64.104c0-19.614-10.053-37.328-26.892-47.386s-37.203-10.512-54.472-1.212c-54.332 29.255-94.711 80.204-110.784 139.781-8.566 31.752-12.909 64.526-12.909 97.413v80.687c0 19.885 9.117 38.141 25.013 50.087 11.048 8.304 24.113 12.614 37.468 12.614 5.859 0 11.774-.83 17.599-2.516l63.975-18.52c17.73-5.132 32.963-15.644 44.052-30.399s16.951-32.311 16.951-50.768v-123.251l50.942-50.942 50.943 50.942v123.251c0 18.458 5.862 36.013 16.951 50.768s26.322 25.267 44.052 30.399l63.974 18.52c5.826 1.687 11.739 2.516 17.599 2.516 13.354 0 26.42-4.311 37.468-12.614 15.896-11.946 25.013-30.202 25.013-50.087v-80.687c0-32.887-4.343-65.661-12.909-97.413zm-324.034 138.598c0 24.117-16.179 45.644-39.345 52.351l-63.975 18.52c-9.955 2.883-20.416.964-28.7-5.263-8.286-6.227-13.037-15.742-13.037-26.106v-80.687c0-30.249 3.995-60.395 11.874-89.599 13.934-51.65 48.94-95.819 96.042-121.181 3.772-2.031 7.867-3.043 11.955-3.043 4.455 0 8.901 1.202 12.91 3.596 7.687 4.591 12.276 12.678 12.276 21.631zm306.943 39.502c0 10.364-4.751 19.879-13.037 26.105-8.284 6.228-18.745 8.145-28.701 5.263l-63.975-18.52c-23.166-6.707-39.345-28.233-39.345-52.351v-229.78c0-8.953 4.589-17.039 12.275-21.63 4.009-2.395 8.455-3.597 12.911-3.597 4.087 0 8.183 1.012 11.955 3.043 47.102 25.362 82.108 69.531 96.042 121.181 7.88 29.204 11.875 59.35 11.875 89.599z"/></g></svg>