<?xml version="1.0" encoding="iso-8859-1"?>
<!-- Generator: Adobe Illustrator 19.0.0, SVG Export Plug-In . SVG Version: 6.00 Build 0)  -->
<svg version="1.1" id="Capa_1" xmlns="http://www.w3.org/2000/svg" xmlns:xlink="http://www.w3.org/1999/xlink" x="0px" y="0px"
	 viewBox="0 0 512 512" style="enable-background:new 0 0 512 512;" xml:space="preserve">
<g>
	<g>
		<path d="M420.526,335.037l-0.065-0.873c-0.012-0.165-0.027-0.331-0.045-0.496l-15.723-145.013
			c-0.893-8.234-8.296-14.192-16.521-13.296l-106.125,11.455c-8.231,0.888-14.196,8.292-13.302,16.53
			c1.901,17.534,15.004,138.379,15.473,142.7c0.769,15.965-11.935,29.456-28.22,29.456c-16.261,0-28.989-13.465-28.22-29.455
			L243.25,203.36c0.893-8.232-5.064-15.642-13.302-16.53l-106.125-11.455c-8.237-0.893-15.628,5.063-16.521,13.296
			c-0.325,2.996-14.88,137.229-15.628,144.126c-0.009,0.083-0.017,0.166-0.025,0.25l-0.16,1.744
			c-0.007,0.08-0.014,0.161-0.021,0.242C84.314,430.191,160.052,512,255.997,512C350.703,512,427.782,431.52,420.526,335.037z
			 M376.485,206.795l3.432,31.65l-76.301,8.236l-3.432-31.651L376.485,206.795z M135.509,206.81l76.3,8.236l-3.43,31.635
			l-76.3-8.236L135.509,206.81z M255.997,482c-78.475,0-140.433-66.472-134.625-144.599l0.137-1.496l7.334-67.635l76.3,8.236
			l-7.233,66.707c-0.026,0.242-0.046,0.484-0.061,0.728c-1.935,32.569,23.758,61.561,58.147,61.561
			c34.362,0,60.083-28.967,58.147-61.562c-0.015-0.243-0.035-0.485-0.061-0.728l-7.233-66.706l76.301-8.236l7.415,68.384
			l0.047,0.629C396.624,417.225,332.477,482,255.997,482z"/>
	</g>
</g>
<g>
	<g>
		<path d="M255.997,0c-8.284,0-14.999,6.716-14.999,15v84.174c0,8.284,6.716,15,14.999,15c8.284,0,14.999-6.716,14.999-15V15
			C270.996,6.716,264.281,0,255.997,0z"/>
	</g>
</g>
<g>
	<g>
		<path d="M185.003,32.336c-8.284,0-14.999,6.716-14.999,15v51.838c0,8.284,6.716,15,14.999,15c8.284,0,14.999-6.716,14.999-15
			V47.336C200.002,39.052,193.287,32.336,185.003,32.336z"/>
	</g>
</g>
<g>
	<g>
		<path d="M326.991,32.336c-8.284,0-14.999,6.716-14.999,15v51.838c0.001,8.284,6.716,15,14.999,15c8.284,0,14.999-6.716,14.999-15
			V47.336C341.99,39.052,335.275,32.336,326.991,32.336z"/>
	</g>
</g>
<g>
</g>
<g>
</g>
<g>
</g>
<g>
</g>
<g>
</g>
<g>
</g>
<g>
</g>
<g>
</g>
<g>
</g>
<g>
</g>
<g>
</g>
<g>
</g>
<g>
</g>
<g>
</g>
<g>
</g>
</svg>
