<?xml version="1.0" encoding="UTF-8" standalone="no"?>
<!-- Created with Inkscape (http://www.inkscape.org/) -->

<svg
   version="1.1"
   id="svg294"
   xml:space="preserve"
   width="682.66669"
   height="682.66669"
   viewBox="0 0 682.66669 682.66669"
   xmlns="http://www.w3.org/2000/svg"
   xmlns:svg="http://www.w3.org/2000/svg"><defs
     id="defs298"><clipPath
       clipPathUnits="userSpaceOnUse"
       id="clipPath308"><path
         d="M 0,512 H 512 V 0 H 0 Z"
         id="path306" /></clipPath></defs><g
     id="g300"
     transform="matrix(1.3333333,0,0,-1.3333333,0,682.66667)"><g
       id="g302"><g
         id="g304"
         clip-path="url(#clipPath308)"><g
           id="g310"
           transform="translate(172.0356,487.0024)"><path
             d="m 0,0 h -54.899 c -56.255,0 -102.137,-45.882 -102.137,-102.136 v -55.248 c 18.191,-10.503 44.597,3.603 63.001,23.873"
             style="fill:none;stroke:#000000;stroke-width:30;stroke-linecap:round;stroke-linejoin:round;stroke-miterlimit:22.926;stroke-dasharray:none;stroke-opacity:1"
             id="path312" /></g><g
           id="g314"
           transform="translate(172.0005,291.0029)"><path
             d="M 0,0 C 53.976,0 98,44.023 98,98 98,151.976 53.976,196 0,196 -53.977,196 -98,151.976 -98,98 -98,44.023 -53.977,0 0,0 Z"
             style="fill:none;stroke:#000000;stroke-width:30;stroke-linecap:round;stroke-linejoin:round;stroke-miterlimit:22.926;stroke-dasharray:none;stroke-opacity:1"
             id="path316" /></g><g
           id="g318"
           transform="translate(15,24.9976)"><path
             d="m 0,0 v 108.005 c 0,86.35 70.65,157 157,157 45.827,0 87.231,-19.901 116,-51.485"
             style="fill:none;stroke:#000000;stroke-width:30;stroke-linecap:round;stroke-linejoin:round;stroke-miterlimit:22.926;stroke-dasharray:none;stroke-opacity:1"
             id="path320" /></g><g
           id="g322"
           transform="translate(89.9995,417.4185)"><path
             d="M 0,0 C 29.767,-9.759 58.53,-12.589 82,21.131 106.292,-7.421 134.41,-8.913 164,0"
             style="fill:none;stroke:#000000;stroke-width:30;stroke-linecap:round;stroke-linejoin:round;stroke-miterlimit:22.926;stroke-dasharray:none;stroke-opacity:1"
             id="path324" /></g><g
           id="g326"
           transform="translate(267.6133,243.4609)"><path
             d="m 0,0 c -21.292,-31.807 -57.045,-50.897 -95.32,-50.897 -41.151,0 -79.148,22.043 -99.576,57.765"
             style="fill:none;stroke:#000000;stroke-width:30;stroke-linecap:round;stroke-linejoin:round;stroke-miterlimit:22.926;stroke-dasharray:none;stroke-opacity:1"
             id="path328" /></g><g
           id="g330"
           transform="translate(393.5894,357.2021)"><path
             d="m 0,0 h 0.001 c 56.875,0 103.41,-46.535 103.41,-103.41 v -125.38 c 0,-56.875 -46.535,-103.41 -103.41,-103.41 H 0 c -56.875,0 -103.41,46.535 -103.41,103.41 v 125.38 C -103.41,-46.535 -56.875,0 0,0 Z"
             style="fill:none;stroke:#000000;stroke-width:30;stroke-linecap:round;stroke-linejoin:round;stroke-miterlimit:22.926;stroke-dasharray:none;stroke-opacity:1"
             id="path332" /></g><g
           id="g334"
           transform="translate(290.1797,191.1025)"><path
             d="M 0,0 185.791,-125.013"
             style="fill:none;stroke:#000000;stroke-width:30;stroke-linecap:round;stroke-linejoin:round;stroke-miterlimit:22.926;stroke-dasharray:none;stroke-opacity:1"
             id="path336" /></g><g
           id="g338"
           transform="translate(383.0752,128.5962)"><path
             d="M 0,0 111.397,74.89"
             style="fill:none;stroke:#000000;stroke-width:30;stroke-linecap:round;stroke-linejoin:round;stroke-miterlimit:22.926;stroke-dasharray:none;stroke-opacity:1"
             id="path340" /></g><g
           id="g342"
           transform="translate(428,216.4805)"><path
             d="M 0,0 C 12.044,-7.963 21.28,-20.061 25.521,-34.651"
             style="fill:none;stroke:#000000;stroke-width:30;stroke-linecap:round;stroke-linejoin:round;stroke-miterlimit:22.926;stroke-dasharray:none;stroke-opacity:1"
             id="path344" /></g><g
           id="g346"
           transform="translate(331.3726,169.3179)"><path
             d="M 0,0 C 1.523,19.325 11.739,36.019 26.627,46.367"
             style="fill:none;stroke:#000000;stroke-width:30;stroke-linecap:round;stroke-linejoin:round;stroke-miterlimit:22.926;stroke-dasharray:none;stroke-opacity:1"
             id="path348" /></g><g
           id="g350"
           transform="translate(393.5898,204.9048)"><path
             d="m 0,0 c 25.363,0 46.049,20.686 46.049,46.049 0,25.364 -20.686,46.05 -46.049,46.05 -25.363,0 -46.049,-20.686 -46.049,-46.05 C -46.049,20.686 -25.363,0 0,0 Z"
             style="fill:none;stroke:#000000;stroke-width:30;stroke-linecap:round;stroke-linejoin:round;stroke-miterlimit:22.926;stroke-dasharray:none;stroke-opacity:1"
             id="path352" /></g></g></g></g></svg>
