<svg id="Capa_1" enable-background="new 0 0 512 512" height="512" viewBox="0 0 512 512" width="512" xmlns="http://www.w3.org/2000/svg"><path d="m478.316 175.791c-21.553-29.783-51.898-51.295-85.443-60.572-19.187-5.307-35.721-18.669-45.713-36.845v-50.509c.001-15.365-12.007-27.865-26.766-27.865h-119.712c-14.759 0-26.767 12.5-26.767 27.865v49.193c-14.689 18.771-34.341 32.345-55.79 38.44-33.304 9.466-63.401 31.028-84.748 60.717-21.835 30.369-33.377 66.701-33.377 105.068v156.412c0 40.972 31.062 74.305 69.242 74.305h284.767c87.116 0 157.991-76.862 157.991-171.339v-59.378c0-38.563-11.647-75.042-33.684-105.492zm-337.209 201.1c0-19.513 15.197-35.388 33.877-35.388s33.877 15.875 33.877 35.388-15.197 35.387-33.877 35.387-33.877-15.875-33.877-35.387zm97.915-28.34h152.686c30.369 0 55.076 24.707 55.076 55.076v.414h-207.762zm-209.022 89.144v-156.412c0-32.044 9.59-62.319 27.735-87.554 17.412-24.216 41.772-41.75 68.592-49.373 29.329-8.336 55.877-27.344 74.755-53.523 1.842-2.555 2.833-5.624 2.833-8.773v-52.06h113.245v52.061c0 2.364.559 4.694 1.631 6.802l.455.894c.001.002.003.005.004.008 13.651 26.793 37.571 46.609 65.626 54.369 27.007 7.47 51.561 24.958 69.137 49.246 18.309 25.3 27.987 55.696 27.987 87.903v59.378c0 15.843-2.38 31.294-6.94 45.879-6.027-29.446-27.323-53.381-55.214-63.187 9.023-17.386 14.251-38.397 14.251-59.012 0-8.284-6.716-15-15-15s-15 6.716-15 15c0 19.646-6.303 40.159-16.364 54.209h-101.231c-10.766-14.173-17.3-34.331-17.3-54.209 0-8.284-6.716-15-15-15s-15 6.716-15 15c0 23.767-9.557 46.012-25.506 60.585-10.75-8.412-24.167-13.424-38.712-13.424-16.055 0-30.733 6.108-41.967 16.156-17.721-14.374-28.709-38.049-28.709-63.317 0-8.284-6.716-15-15-15s-15 6.716-15 15c0 35.605 15.598 68.074 41.492 87.99-3.016 7.588-4.693 15.875-4.693 24.559 0 9.684 2.083 18.874 5.79 27.15h-5.606c-27.847 0-50.502 24.142-50.502 53.817 0 8.559 2.006 16.724 5.521 24.006-20.273-1.7-36.31-20.853-36.31-44.168zm324.008 44.305h-242.006c-11.301 0-21.213-11.281-21.213-24.142 0-12.91 9.389-23.817 20.502-23.817h32.706c9.184 5.239 19.748 8.236 30.988 8.236 11.239 0 21.803-2.998 30.988-8.236h243.867c-1.895 2.361-3.862 4.669-5.912 6.911-24.211 26.47-56.145 41.048-89.92 41.048z"/></svg>