<svg id="Layer_1" enable-background="new 0 0 511.172 511.172" height="512" viewBox="0 0 511.172 511.172" width="512" xmlns="http://www.w3.org/2000/svg"><path d="m447.32 359.549c0-26.806-12.027-52.242-32.133-69.373v-131.404c-8.291-211.697-310.914-211.696-319.2 0v150.778c-12.533 18.821-32.133 55.691-32.133 106.289 0 52.651 42.592 95.333 95.333 95.333h160.666c70.286 0 127.467-57.181 127.467-127.467v-24.14c-.001-.005-.001-.01 0-.016zm-30.665-8.918-26.828 13.427c-37.649 18.846-80.895-5.681-86.502-45.201l23.937-12.961c36.955-20.003 83.092 2.606 89.393 44.735zm-290.669-191.859c6.732-171.902 252.471-171.906 259.2 0v114.511c-.722-.24-1.446-.476-2.173-.697-19.999-17.805-43.227-31.038-68.228-39.143 39.47-29.994 48.449-91.713 17.047-131.882-2.833-3.77-7.275-5.988-11.991-5.988h-128.509c-4.716 0-9.158 2.218-11.991 5.988-31.415 40.185-22.411 101.921 17.072 131.903-35.217 11.455-58.356 29.995-70.427 41.079zm129.6 65.333c-49.995.459-82.087-55.838-56.274-98.533h112.549c25.818 42.704-6.294 98.996-56.275 98.533zm-47.133 257.067h-49.267c-36.015 0-65.334-29.118-65.334-65.35-1.174-120.195 130.59-199.794 236.447-143.452-5.953 1.763-11.763 4.136-17.319 7.143l-133.343 75.231c-21.867 12.496-35.451 35.903-35.451 61.095 0 8.284 6.732 15 15.016 15 27.618 0 49.25 22.492 49.25 49.25v1.083zm30 0v-1.083c0-24.552-15.384-67.117-62.06-77.39 3.15-9.121 9.521-16.989 18.131-21.909 24.602-14.064 59.81-34.186 81.397-46.522 8.169 29.902 30.11 50.59 54.264 60.069-44.334 26.757-54.343 69.691-56.518 86.835zm81.4 0h-15.886c4.666-27.729 22.149-51.701 47.933-64.603 23-11.504 48.095-24.059 65.42-32.727-.075 53.681-43.77 97.33-97.467 97.33z"/></svg>