<svg id="Capa_1" enable-background="new 0 0 509.103 509.103" height="512" viewBox="0 0 509.103 509.103" width="512" xmlns="http://www.w3.org/2000/svg"><g id="XMLID_1552_"><path id="XMLID_1555_" d="m357.012 272.471-42.993-72.02-5.475-1.707c-12.923-4.03-26.031-7.016-39.261-8.987 15.297-26.687 13.453-61.424 13.328-63.473l-.344-5.625-3.962-4.007c-.582-.589-58.474-58.221-79.475-86.683l-22.112-29.969h-95.316c-31.638 0-57.378 25.74-57.378 57.378v169.494c0 20.735 9.217 40.085 24.722 53.134l1.087 10.723c1.901 18.761-1.305 37.712-9.271 54.805-11.142 23.907-15.011 50.339-11.19 76.436l12.742 87.031h291.492l4.568-9.729c25.316-40.539 38.638-83.484 38.529-124.247-.094-35.342-10.232-68.626-29.49-97.318zm-302.988-215.093c0-15.096 12.282-27.378 27.378-27.378h80.169l13.119 17.78c19.042 25.808 63.847 71.135 77.999 85.604-.255 12.582-2.816 43.873-21.383 53.559-7.97-.002-15.963.347-23.97 1.08l-76.153 6.963 7.527-102.081-29.919-2.206-7.65 103.749c-.633 7.898 2.086 15.768 7.46 21.59 5.375 5.823 13.001 9.162 20.925 9.162h.685l79.856-7.302c28.456-2.6 56.726.045 84.123 7.866l20.131 33.723c-22.042 6.371-43.013.103-69.459-12.471-20.621-9.805-47.221-4.607-50.187-3.981-15.22 3.208-71.893 16.169-95.551 21.592-8.532 1.955-17.213.867-24.449-3.064-12.739-6.92-20.653-20.213-20.653-34.691v-169.494zm261.384 421.624h-247.366l-8.986-61.377c-2.97-20.287.038-40.833 8.699-59.418 9.258-19.865 13.498-41.682 12.431-63.506 3.498.578 7.055.876 10.637.876 4.987 0 10.021-.565 15.005-1.708 23.582-5.406 80.049-18.32 95.036-21.479 4.943-1.042 21.27-2.962 31.117 1.72 26.717 12.703 55.433 22.713 86.719 15.186 38.334 52.176 37.226 122.011-3.292 189.706z"/><path id="XMLID_1559_" d="m271.093 320.883c-13.243-6.068-27.995-5.891-40.952.388-12.956-6.279-27.708-6.456-40.952-.388-14.233 6.521-24.14 19.068-27.181 34.425-3.313 16.73 2.567 34.139 15.345 45.435l52.788 46.663 52.788-46.663c12.778-11.295 18.658-28.705 15.345-45.434-3.041-15.358-12.948-27.906-27.181-34.426zm-8.033 57.382-32.919 29.1-32.919-29.1c-4.817-4.258-7.034-10.822-5.785-17.129 1.146-5.79 4.881-10.521 10.248-12.979 2.439-1.118 5.015-1.673 7.58-1.673 3.078 0 6.141.8 8.94 2.388l11.936 6.773 11.936-6.772c5.134-2.912 11.156-3.173 16.521-.715 5.366 2.458 9.101 7.189 10.248 12.979 1.248 6.306-.969 12.869-5.786 17.128z"/><path id="XMLID_1560_" d="m402.657 283.433h66.843v29.999h-66.843z" transform="matrix(.778 -.628 .628 .778 -90.681 340.271)"/><path id="XMLID_1561_" d="m421.079 443.012h29.999v66.843h-29.999z" transform="matrix(.628 -.778 .778 .628 -208.563 516.316)"/><path id="XMLID_1562_" d="m422.079 372.433h63v30h-63z"/></g></svg>