<svg id="Layer_1" enable-background="new 0 0 512.025 512.025" height="512" viewBox="0 0 512.025 512.025" width="512" xmlns="http://www.w3.org/2000/svg"><g><path d="m510.442 490.194-165.951-331.91c-19.103-39.537-77.488-39.531-96.587-.004l-48.109 96.212-1.64-3.281c-15.246-31.531-61.807-31.526-77.049 0l-119.497 238.982c-5.061 9.699 2.48 21.898 13.417 21.708h482c5.199 0 10.027-2.692 12.76-7.114 2.732-4.422 2.98-9.944.656-14.593zm-235.705-318.501c8.487-17.562 34.435-17.562 42.919.004l54.812 109.629-28.077 14.038-41.491-20.746c-4.223-2.111-9.193-2.111-13.417 0l-41.491 20.746-28.075-14.038zm-235.441 310.209 108.641-217.275c4.622-9.563 18.76-9.565 23.384 0l11.701 23.408-96.934 193.867zm80.333 0 86.871-173.743 34.784 17.392c4.223 2.111 9.193 2.111 13.417 0l41.491-20.746 41.492 20.746c4.223 2.111 9.193 2.111 13.416 0l34.784-17.392 86.871 173.742h-353.126z"/><path d="m79.292 158.435h80.333c34.849 0 63.2-28.351 63.2-63.2.551-40.465-39.445-71.562-78.499-61.339-43.663-62.89-144.033-32.315-144.301 45.273 0 43.707 35.559 79.266 79.267 79.266zm0-128.533c27.166 0 49.267 22.101 49.267 49.267 0 8.284 6.716 15 15 15s15-6.716 15-15c0-5.837-.634-11.529-1.837-17.01 45.905-1.887 48.775 64.162 2.904 66.276h-80.334c-65.286-2.485-65.236-96.072 0-98.533z"/></g></svg>