<?xml version="1.0" encoding="UTF-8"?>
<svg xmlns="http://www.w3.org/2000/svg" xmlns:xlink="http://www.w3.org/1999/xlink" version="1.1" id="Capa_1" x="0px" y="0px" viewBox="0 0 512.45 512.45" style="enable-background:new 0 0 512.45 512.45;" xml:space="preserve" width="512" height="512">
<g>
	<path style="fill:none;stroke:#000000;stroke-width:30;stroke-linecap:round;stroke-linejoin:round;stroke-miterlimit:10;" d="&#10;&#9;&#9;M175.736,295.139c21.566-16.81,48.69-26.824,78.152-26.824c49.981,0,91.471,28.336,112.279,70.265"/>
	<path style="fill:none;stroke:#000000;stroke-width:30;stroke-linecap:round;stroke-linejoin:round;stroke-miterlimit:10;" d="&#10;&#9;&#9;M241.44,268.934c-9.027-53.934-55.925-95.036-112.423-95.036c-62.956,0-113.992,51.036-113.992,113.992c0,0,0,0.257,0.009,0.737&#10;&#9;&#9;c0.03,4.803,0.355,9.535,0.962,14.18c4.988,47.887,52.131,194.644,240.028,194.644c224.529,0,241.391-71.389,241.391-71.389&#10;&#9;&#9;s1.151-138.172-23.029-231.438c-14.043-54.165-28.862-106-38.82-139.942C428.667,31.158,407.092,15,382.577,15l-70.626,0&#10;&#9;&#9;c-7.402,0-14.323,3.669-18.478,9.795l-16.841,24.83c-2.508,3.698-3.849,8.064-3.849,12.533v24.773&#10;&#9;&#9;c0,24.501,19.862,44.364,44.364,44.364h59.25v17.207c0,16.233-2.21,32.386-6.513,48.039c-10.319,37.541-21.992,88.632-3.73,142.012&#10;&#9;&#9;"/>
	<path style="fill:none;stroke:#000000;stroke-width:30;stroke-linecap:round;stroke-linejoin:round;stroke-miterlimit:10;" d="&#10;&#9;&#9;M376.396,131.295v-24.827c0-16.107-13.057-29.164-29.164-29.164l0,0"/>
	<path style="fill:none;stroke:#000000;stroke-width:30;stroke-linecap:round;stroke-linejoin:round;stroke-miterlimit:10;" d="&#10;&#9;&#9;M423.199,402.261c0,0-1.385-19.391,15.235-26.316"/>
</g>















</svg>
