<?xml version="1.0" encoding="UTF-8"?>
<svg xmlns="http://www.w3.org/2000/svg" xmlns:xlink="http://www.w3.org/1999/xlink" version="1.1" id="Capa_1" x="0px" y="0px" viewBox="0 0 512 512" style="enable-background:new 0 0 512 512;" xml:space="preserve" width="512" height="512">
<g>
	<path style="fill:none;stroke:#000000;stroke-width:30;stroke-miterlimit:10;" d="M439,55h14.328C477.447,55,497,74.553,497,98.672&#10;&#9;&#9;V497H15V98.672C15,74.553,34.553,55,58.672,55H75"/>
	<line style="fill:none;stroke:#000000;stroke-width:30;stroke-miterlimit:10;" x1="138" y1="55" x2="375" y2="55"/>
	<path style="fill:none;stroke:#000000;stroke-width:30;stroke-miterlimit:10;" d="M105,95L105,95c-16.569,0-30-13.431-30-30V45&#10;&#9;&#9;c0-16.569,13.431-30,30-30h0c16.569,0,30,13.431,30,30v20C135,81.569,121.569,95,105,95z"/>
	<path style="fill:none;stroke:#000000;stroke-width:30;stroke-miterlimit:10;" d="M407,95L407,95c-16.569,0-30-13.431-30-30V45&#10;&#9;&#9;c0-16.569,13.431-30,30-30h0c16.569,0,30,13.431,30,30v20C437,81.569,423.569,95,407,95z"/>
	<line style="fill:none;stroke:#000000;stroke-width:30;stroke-miterlimit:10;" x1="15" y1="155" x2="497" y2="155"/>
	<path style="fill:none;stroke:#000000;stroke-width:30;stroke-miterlimit:10;" d="M375.754,341.5&#10;&#9;&#9;c0-16.852-13.097-30.637-29.667-31.752C332.999,272.615,297.611,246,256,246s-76.999,26.615-90.087,63.748&#10;&#9;&#9;c-16.57,1.115-29.667,14.9-29.667,31.752s13.097,30.637,29.667,31.752C179.001,410.385,214.389,437,256,437&#10;&#9;&#9;s76.999-26.615,90.087-63.748C362.657,372.137,375.754,358.352,375.754,341.5z"/>
	<path style="fill:none;stroke:#000000;stroke-width:30;stroke-miterlimit:10;" d="M286,347c0,16.569-13.431,30-30,30&#10;&#9;&#9;s-30-13.431-30-30"/>
	<path style="fill:none;stroke:#000000;stroke-width:30;stroke-miterlimit:10;" d="M256,246L256,246c0-17.121-13.879-31-31-31h-1"/>
</g>















</svg>
