<?xml version="1.0" encoding="UTF-8" standalone="no"?>
<!-- Created with Inkscape (http://www.inkscape.org/) -->

<svg
   version="1.1"
   id="svg3594"
   xml:space="preserve"
   width="682.66669"
   height="682.66669"
   viewBox="0 0 682.66669 682.66669"
   xmlns="http://www.w3.org/2000/svg"
   xmlns:svg="http://www.w3.org/2000/svg"><defs
     id="defs3598"><clipPath
       clipPathUnits="userSpaceOnUse"
       id="clipPath3608"><path
         d="M 0,512 H 512 V 0 H 0 Z"
         id="path3606" /></clipPath></defs><g
     id="g3600"
     transform="matrix(1.3333333,0,0,-1.3333333,0,682.66667)"><g
       id="g3602"><g
         id="g3604"
         clip-path="url(#clipPath3608)"><g
           id="g3610"
           transform="translate(497,15)"><path
             d="M 0,0 H -482"
             style="fill:none;stroke:#000000;stroke-width:30;stroke-linecap:round;stroke-linejoin:round;stroke-miterlimit:10;stroke-dasharray:none;stroke-opacity:1"
             id="path3612" /></g><g
           id="g3614"
           transform="translate(360.4331,223.8662)"><path
             d="M 0,0 104.434,-208.866 H 8.034 L -48.2,-96.399 Z"
             style="fill:none;stroke:#000000;stroke-width:30;stroke-linecap:round;stroke-linejoin:round;stroke-miterlimit:10;stroke-dasharray:none;stroke-opacity:1"
             id="path3616" /></g><g
           id="g3618"
           transform="translate(207.7998,336.333)"><path
             d="M 0,0 V -321.333"
             style="fill:none;stroke:#000000;stroke-width:30;stroke-linecap:round;stroke-linejoin:round;stroke-miterlimit:10;stroke-dasharray:none;stroke-opacity:1"
             id="path3620" /></g><g
           id="g3622"
           transform="translate(440.7666,497)"><path
             d="m 0,0 c -31.033,0 -56.233,-25.201 -56.233,-56.233 0,-31.033 25.2,-56.234 56.233,-56.234 31.033,0 56.233,25.201 56.233,56.234 C 56.233,-25.201 31.033,0 0,0 Z"
             style="fill:none;stroke:#000000;stroke-width:30;stroke-linecap:round;stroke-linejoin:round;stroke-miterlimit:10;stroke-dasharray:none;stroke-opacity:1"
             id="path3624" /></g><g
           id="g3626"
           transform="translate(207.7998,336.333)"><path
             d="M 0,0 160.667,-321.333 H -160.667 Z"
             style="fill:none;stroke:#000000;stroke-width:30;stroke-linecap:round;stroke-linejoin:round;stroke-miterlimit:10;stroke-dasharray:none;stroke-opacity:1"
             id="path3628" /></g></g></g></g></svg>
