<svg id="Capa_1" enable-background="new 0 0 512.02 512.02" height="512" viewBox="0 0 512.02 512.02" width="512" xmlns="http://www.w3.org/2000/svg"><path d="m497.017 121.01h-89.997c-8.284 0-15 6.716-15 15s6.716 15 15 15h53.787l-188.787 188.787-109.394-109.394c-5.857-5.858-15.355-5.858-21.213 0l-136.606 135c-5.858 5.858-6.645 15.355-.787 21.213 5.857 5.857 16.142 5.858 22 0l126-124.394 109.394 109.394c5.857 5.858 15.355 5.858 21.213 0l199.393-199.393v53.787c0 8.284 6.716 15 15 15s15-6.716 15-15v-89.995c.004-8.506-6.977-15.005-15.003-15.005z"/></svg>