<?xml version="1.0" encoding="UTF-8" standalone="no"?>
<!-- Created with Inkscape (http://www.inkscape.org/) -->

<svg
   version="1.1"
   id="svg1473"
   xml:space="preserve"
   width="682.66669"
   height="682.66669"
   viewBox="0 0 682.66669 682.66669"
   xmlns="http://www.w3.org/2000/svg"
   xmlns:svg="http://www.w3.org/2000/svg"><defs
     id="defs1477"><clipPath
       clipPathUnits="userSpaceOnUse"
       id="clipPath1487"><path
         d="M 0,512 H 512 V 0 H 0 Z"
         id="path1485" /></clipPath></defs><g
     id="g1479"
     transform="matrix(1.3333333,0,0,-1.3333333,0,682.66667)"><g
       id="g1481"><g
         id="g1483"
         clip-path="url(#clipPath1487)"><g
           id="g1489"
           transform="translate(63.2002,223.8667)"><path
             d="m 0,0 c -8.516,0 -16.693,-3.382 -22.718,-9.407 -6.026,-6.025 -9.415,-14.203 -9.415,-22.726 V -48.2 c 0,-42.609 16.933,-83.474 47.058,-113.608 30.134,-30.125 70.999,-47.059 113.608,-47.059 42.617,0 83.483,16.934 113.615,47.059 30.125,30.134 47.052,70.999 47.052,113.608 v 16.067 c 0,8.523 -3.383,16.701 -9.407,22.726 C 273.768,-3.382 265.59,0 257.066,0 Z"
             style="fill:none;stroke:#000000;stroke-width:30;stroke-linecap:round;stroke-linejoin:round;stroke-miterlimit:10;stroke-dasharray:none;stroke-opacity:1"
             id="path1491" /></g><g
           id="g1493"
           transform="translate(63.2002,288.1333)"><path
             d="m 0,0 c -8.516,0 -16.693,3.39 -22.718,9.415 -6.026,6.025 -9.415,14.203 -9.415,22.718 V 48.2 c 0,42.617 16.933,83.483 47.058,113.615 30.134,30.125 70.999,47.052 113.608,47.052 42.617,0 83.483,-16.927 113.615,-47.052 C 272.273,131.683 289.2,90.817 289.2,48.2 V 32.133 C 289.2,23.618 285.817,15.44 279.793,9.415 273.768,3.39 265.59,0 257.066,0 Z"
             style="fill:none;stroke:#000000;stroke-width:30;stroke-linecap:round;stroke-linejoin:round;stroke-miterlimit:10;stroke-dasharray:none;stroke-opacity:1"
             id="path1495" /></g><g
           id="g1497"
           transform="translate(127.4668,223.8667)"><path
             d="m 0,0 c -8.516,0 -16.693,-3.382 -22.718,-9.407 -6.026,-6.025 -9.415,-14.203 -9.415,-22.726 V -48.2 c 0,-53.237 43.162,-96.4 96.4,-96.4 53.244,0 96.4,43.163 96.4,96.4 v 16.067 c 0,8.523 -3.383,16.701 -9.407,22.726 C 145.234,-3.382 137.057,0 128.533,0 Z"
             style="fill:none;stroke:#000000;stroke-width:30;stroke-linecap:round;stroke-linejoin:round;stroke-miterlimit:10;stroke-dasharray:none;stroke-opacity:1"
             id="path1499" /></g><g
           id="g1501"
           transform="translate(127.4668,288.1333)"><path
             d="m 0,0 c -8.516,0 -16.693,3.39 -22.718,9.415 -6.026,6.025 -9.415,14.203 -9.415,22.718 V 48.2 c 0,53.245 43.162,96.4 96.4,96.4 53.244,0 96.4,-43.155 96.4,-96.4 V 32.133 c 0,-8.515 -3.383,-16.693 -9.407,-22.718 C 145.234,3.39 137.057,0 128.533,0 Z"
             style="fill:none;stroke:#000000;stroke-width:30;stroke-linecap:round;stroke-linejoin:round;stroke-miterlimit:10;stroke-dasharray:none;stroke-opacity:1"
             id="path1503" /></g><g
           id="g1505"
           transform="translate(191.7334,223.8667)"><path
             d="m 0,0 c -8.515,0 -16.693,-3.382 -22.718,-9.407 -6.025,-6.025 -9.415,-14.203 -9.415,-22.726 V -48.2 c 0,-8.515 3.39,-16.694 9.415,-22.718 6.025,-6.025 14.203,-9.415 22.718,-9.415 8.523,0 16.701,3.39 22.726,9.415 6.025,6.024 9.407,14.203 9.407,22.718 v 16.067 c 0,8.523 -3.382,16.701 -9.407,22.726 C 16.701,-3.382 8.523,0 0,0 Z"
             style="fill:none;stroke:#000000;stroke-width:30;stroke-linecap:round;stroke-linejoin:round;stroke-miterlimit:10;stroke-dasharray:none;stroke-opacity:1"
             id="path1507" /></g><g
           id="g1509"
           transform="translate(191.7334,288.1333)"><path
             d="m 0,0 c -8.515,0 -16.693,3.39 -22.718,9.415 -6.025,6.025 -9.415,14.203 -9.415,22.718 V 48.2 c 0,8.524 3.39,16.701 9.415,22.726 6.025,6.025 14.203,9.407 22.718,9.407 8.523,0 16.701,-3.382 22.726,-9.407 6.025,-6.025 9.407,-14.202 9.407,-22.726 V 32.133 C 32.133,23.618 28.751,15.44 22.726,9.415 16.701,3.39 8.523,0 0,0 Z"
             style="fill:none;stroke:#000000;stroke-width:30;stroke-linecap:round;stroke-linejoin:round;stroke-miterlimit:10;stroke-dasharray:none;stroke-opacity:1"
             id="path1511" /></g><g
           id="g1513"
           transform="translate(47.1333,223.8667)"><path
             d="m 0,0 c -8.515,0 -16.693,3.39 -22.718,9.415 -6.025,6.025 -9.415,14.203 -9.415,22.718 0,8.524 3.39,16.701 9.415,22.726 6.025,6.026 14.203,9.408 22.718,9.408 h 289.2 c 8.523,0 16.701,-3.382 22.726,-9.408 6.025,-6.025 9.407,-14.202 9.407,-22.726 0,-8.515 -3.382,-16.693 -9.407,-22.718 C 305.901,3.39 297.723,0 289.2,0 Z"
             style="fill:none;stroke:#000000;stroke-width:30;stroke-linecap:round;stroke-linejoin:round;stroke-miterlimit:10;stroke-dasharray:none;stroke-opacity:1"
             id="path1515" /></g><g
           id="g1517"
           transform="translate(464.8662,127.4668)"><path
             d="m 0,0 c -8.515,0 -16.692,3.39 -22.718,9.415 -6.025,6.025 -9.415,14.203 -9.415,22.718 v 32.134 c 0,8.523 3.39,16.701 9.415,22.726 6.026,6.025 14.203,9.407 22.718,9.407 8.523,0 16.701,-3.382 22.727,-9.407 6.025,-6.025 9.407,-14.203 9.407,-22.726 V 32.133 C 32.134,23.618 28.752,15.44 22.727,9.415 16.701,3.39 8.523,0 0,0 Z"
             style="fill:none;stroke:#000000;stroke-width:30;stroke-linecap:round;stroke-linejoin:round;stroke-miterlimit:10;stroke-dasharray:none;stroke-opacity:1"
             id="path1519" /></g><g
           id="g1521"
           transform="translate(305.3164,449.9727)"><path
             d="m 0,0 0.032,-0.024 c 30.125,-30.133 47.052,-70.998 47.052,-113.615 v 56.249 c 0,10.652 4.233,20.863 11.761,28.398 7.535,7.527 17.745,11.753 28.389,11.753 h 0.033 c 10.652,0 20.862,-4.226 28.397,-11.753 7.527,-7.535 11.753,-17.746 11.753,-28.398 v -136.583 c 0,-17.745 14.388,-32.133 32.133,-32.133 17.754,0 32.134,14.388 32.134,32.133 V -57.39 c 0,57.671 -46.747,104.417 -104.417,104.417 H 87.234 C 59.544,47.027 32.985,36.03 13.399,16.444 8.355,11.399 3.872,5.88 0,0 Z"
             style="fill:none;stroke:#000000;stroke-width:30;stroke-linecap:round;stroke-linejoin:round;stroke-miterlimit:10;stroke-dasharray:none;stroke-opacity:1"
             id="path1523" /></g></g></g></g></svg>
