<?xml version="1.0" encoding="iso-8859-1"?>
<!-- Generator: Adobe Illustrator 19.0.0, SVG Export Plug-In . SVG Version: 6.00 Build 0)  -->
<svg version="1.1" id="Layer_1" xmlns="http://www.w3.org/2000/svg" xmlns:xlink="http://www.w3.org/1999/xlink" x="0px" y="0px"
	 viewBox="0 0 512 512" style="enable-background:new 0 0 512 512;" xml:space="preserve">
<g>
	<g>
		<path d="M422.957,478.609h-16.696v-89.044c0-58.08-33.125-108.564-81.473-133.565c48.347-25.001,81.473-75.485,81.473-133.565
			V33.391h16.696c9.22,0,16.696-7.475,16.696-16.696S432.177,0,422.957,0C414.155,0,98.294,0,89.044,0
			c-9.22,0-16.696,7.475-16.696,16.696s7.475,16.696,16.696,16.696h16.696v89.044c0,58.08,33.125,108.564,81.473,133.565
			c-48.347,25.001-81.473,75.485-81.473,133.565v89.044H89.044c-9.22,0-16.696,7.475-16.696,16.696S79.823,512,89.044,512
			c9.08,0,325.108,0,333.913,0c9.22,0,16.696-7.475,16.696-16.696S432.177,478.609,422.957,478.609z M139.13,33.391H372.87v64.055
			c-13.217-4.335-30.763-8.402-50.087-8.402c-40.76,0-73.547,18.046-74.922,18.814c-0.262,0.146-26.99,14.578-58.643,14.578
			c-21.09,0-39.839-6.328-50.087-10.596V33.391z M142.039,148.383c12.96,4.021,29.25,7.443,47.179,7.443
			c40.76,0,73.547-18.046,74.922-18.814c0.262-0.146,26.991-14.578,58.643-14.578c20.709,0,39.004,6.003,49.62,10.396
			c-5.278,59.59-55.463,106.474-116.402,106.474C200.474,239.304,153.872,200.379,142.039,148.383z M206.968,478.609
			c4.789-37.574,25.301-66.783,49.032-66.783s44.242,29.208,49.032,66.783H206.968z M372.87,478.609h-34.221
			c-2.38-23.756-9.819-45.825-21.535-63.399c-15.81-23.714-37.514-36.775-61.114-36.775s-45.304,13.06-61.114,36.775
			c-11.716,17.574-19.155,39.643-21.535,63.399H139.13v-89.044c0-64.442,52.428-116.87,116.87-116.87s116.87,52.428,116.87,116.87
			V478.609z"/>
	</g>
</g>
<g>
	<g>
		<path d="M256,289.391c-9.22,0-16.696,7.475-16.696,16.696v33.391c0,9.22,7.475,16.696,16.696,16.696s16.696-7.475,16.696-16.696
			v-33.391C272.696,296.867,265.22,289.391,256,289.391z"/>
	</g>
</g>
<g>
</g>
<g>
</g>
<g>
</g>
<g>
</g>
<g>
</g>
<g>
</g>
<g>
</g>
<g>
</g>
<g>
</g>
<g>
</g>
<g>
</g>
<g>
</g>
<g>
</g>
<g>
</g>
<g>
</g>
</svg>
