<svg height="511pt" viewBox="0 1 511.99961 511" width="511pt" xmlns="http://www.w3.org/2000/svg"><path d="m476.933594 35.566406c-46.757813-46.753906-122.835938-46.753906-169.59375 0l-272.273438 272.273438c-46.753906 46.753906-46.753906 122.832031 0 169.589844 23.378906 23.378906 54.089844 35.070312 84.796875 35.070312 30.710938 0 61.417969-11.691406 84.796875-35.070312l272.273438-272.269532c46.753906-46.757812 46.753906-122.835937 0-169.59375zm-22.046875 147.546875-272.269531 272.273438c-34.601563 34.601562-90.902344 34.601562-125.503907 0-34.601562-34.601563-34.601562-90.902344 0-125.503907l272.269531-272.273437c17.300782-17.300781 40.027344-25.949219 62.753907-25.949219 22.726562 0 45.453125 8.648438 62.753906 25.949219 34.597656 34.601563 34.597656 90.90625-.003906 125.503906zm0 0"/><path d="m192.503906 366.402344-4.949218 4.949218-46.410157-46.40625 4.949219-4.953124c6.089844-6.085938 6.089844-15.953126 0-22.042969-6.085938-6.085938-15.957031-6.085938-22.042969 0l-31.941406 31.941406c-6.089844 6.085937-6.089844 15.957031 0 22.046875 3.042969 3.042969 7.03125 4.5625 11.019531 4.5625 3.988282 0 7.980469-1.519531 11.023438-4.5625l4.949218-4.953125 46.410157 46.410156-4.949219 4.949219c-6.089844 6.089844-6.089844 15.957031 0 22.046875 3.042969 3.042969 7.03125 4.566406 11.019531 4.566406s7.980469-1.523437 11.019531-4.566406l15.96875-15.96875s.003907-.003906.003907-.003906c.003906-.003907.003906-.003907.007812-.003907l15.964844-15.96875c6.085937-6.085937 6.085937-15.957031 0-22.042968-6.085937-6.085938-15.957031-6.085938-22.042969 0zm0 0"/><path d="m397.847656 161.0625-4.949218 4.949219-46.40625-46.410157 4.949218-4.949218c6.085938-6.085938 6.085938-15.957032 0-22.046875-6.089844-6.085938-15.957031-6.085938-22.046875 0l-15.964843 15.96875c-.003907 0-.003907.003906-.003907.003906-.003906.003906-.003906.003906-.007812.007813l-15.964844 15.964843c-6.085937 6.085938-6.085937 15.957031 0 22.042969 3.042969 3.042969 7.03125 4.566406 11.019531 4.566406 3.988282 0 7.980469-1.523437 11.023438-4.566406l4.949218-4.949219 46.40625 46.410157-4.949218 4.949218c-6.085938 6.085938-6.085938 15.957032 0 22.042969 3.046875 3.046875 7.035156 4.566406 11.023437 4.566406s7.980469-1.519531 11.023438-4.566406l31.941406-31.941406c6.085937-6.085938 6.085937-15.957031 0-22.042969-6.085937-6.089844-15.953125-6.089844-22.042969 0zm0 0"/></svg>