<?xml version="1.0" encoding="iso-8859-1"?>
<!-- Generator: Adobe Illustrator 19.0.0, SVG Export Plug-In . SVG Version: 6.00 Build 0)  -->
<svg version="1.1" id="Layer_1" xmlns="http://www.w3.org/2000/svg" xmlns:xlink="http://www.w3.org/1999/xlink" x="0px" y="0px"
	 viewBox="0 0 512 512" style="enable-background:new 0 0 512 512;" xml:space="preserve">
<g>
	<g>
		<path d="M495.304,44.522H294.957c-9.22,0-16.696,7.475-16.696,16.696v217.043h-44.522c0-6.502,0-144.099,0-150.261
			c0-9.22-7.475-16.696-16.696-16.696h-16.696c0-31.061-21.316-57.237-50.087-64.67V16.696c0-9.22-7.475-16.696-16.696-16.696
			c-9.22,0-16.696,7.475-16.696,16.696v29.939c-28.771,7.433-50.087,33.609-50.087,64.67H50.087c-9.22,0-16.696,7.475-16.696,16.696
			v116.87H16.696C7.475,244.87,0,252.345,0,261.565v233.739C0,504.525,7.475,512,16.696,512c19.931,0,458.676,0,478.609,0
			c9.22,0,16.696-7.475,16.696-16.696V61.217C512,51.997,504.525,44.522,495.304,44.522z M133.565,77.913
			c18.412,0,33.391,14.979,33.391,33.391h-66.783C100.174,92.892,115.153,77.913,133.565,77.913z M133.565,478.609h-33.391v-66.783
			h33.391V478.609z M200.348,294.957v183.652c-12.083,0-21.308,0-33.391,0V395.13c0-9.22-7.475-16.696-16.696-16.696H83.478
			c-9.22,0-16.696,7.475-16.696,16.696v83.478H33.391V278.261h166.957V294.957z M200.348,244.87H66.783V144.696
			c15.332,0,118.223,0,133.565,0V244.87z M345.043,478.609H233.739v-33.391h111.304V478.609z M345.043,411.826H233.739v-33.391
			h111.304V411.826z M345.043,345.043H233.739v-33.391h111.304V345.043z M478.609,478.609h-33.391v-50.087
			c0-9.22-7.475-16.696-16.696-16.696s-16.696,7.475-16.696,16.696v50.087h-33.391V294.957c0-9.22-7.475-16.696-16.696-16.696
			h-50.087V77.913h166.957V478.609z"/>
	</g>
</g>
<g>
	<g>
		<path d="M150.261,178.087H116.87c-9.22,0-16.696,7.475-16.696,16.696c0,9.22,7.475,16.696,16.696,16.696h33.391
			c9.22,0,16.696-7.475,16.696-16.696C166.957,185.562,159.481,178.087,150.261,178.087z"/>
	</g>
</g>
<g>
	<g>
		<path d="M150.261,311.652H83.478c-9.22,0-16.696,7.475-16.696,16.696s7.475,16.696,16.696,16.696h66.783
			c9.22,0,16.696-7.475,16.696-16.696S159.481,311.652,150.261,311.652z"/>
	</g>
</g>
<g>
	<g>
		<path d="M361.739,111.304c-9.22,0-16.696,7.475-16.696,16.696v100.174c0,9.22,7.475,16.696,16.696,16.696
			s16.696-7.475,16.696-16.696V128C378.435,118.78,370.96,111.304,361.739,111.304z"/>
	</g>
</g>
<g>
	<g>
		<path d="M428.522,111.304c-9.22,0-16.696,7.475-16.696,16.696v33.391c0,9.22,7.475,16.696,16.696,16.696
			s16.696-7.475,16.696-16.696V128C445.217,118.78,437.742,111.304,428.522,111.304z"/>
	</g>
</g>
<g>
	<g>
		<path d="M428.522,211.478c-9.22,0-16.696,7.475-16.696,16.696v33.391c0,9.22,7.475,16.696,16.696,16.696
			s16.696-7.475,16.696-16.696v-33.391C445.217,218.953,437.742,211.478,428.522,211.478z"/>
	</g>
</g>
<g>
	<g>
		<path d="M428.522,311.652c-9.22,0-16.696,7.475-16.696,16.696v33.391c0,9.22,7.475,16.696,16.696,16.696
			s16.696-7.475,16.696-16.696v-33.391C445.217,319.127,437.742,311.652,428.522,311.652z"/>
	</g>
</g>
<g>
</g>
<g>
</g>
<g>
</g>
<g>
</g>
<g>
</g>
<g>
</g>
<g>
</g>
<g>
</g>
<g>
</g>
<g>
</g>
<g>
</g>
<g>
</g>
<g>
</g>
<g>
</g>
<g>
</g>
</svg>
