<?xml version="1.0" encoding="UTF-8"?>
<svg xmlns="http://www.w3.org/2000/svg" xmlns:xlink="http://www.w3.org/1999/xlink" version="1.1" id="Capa_1" x="0px" y="0px" viewBox="0 0 512 512" style="enable-background:new 0 0 512 512;" xml:space="preserve" width="512" height="512">
<g>
	
		<polyline style="fill:none;stroke:#000000;stroke-width:30;stroke-linecap:round;stroke-linejoin:round;stroke-miterlimit:10;" points="&#10;&#9;&#9;191.733,320.267 95.333,356.417 137.508,497 374.492,497 416.667,356.417 320.267,320.267 &#9;"/>
	<path style="fill:none;stroke:#000000;stroke-width:30;stroke-linecap:round;stroke-linejoin:round;stroke-miterlimit:10;" d="&#10;&#9;&#9;M207.8,255.357v41.725c0,10.323-6.403,19.561-16.067,23.184c0,35.491,28.775,64.267,64.267,64.267s64.267-28.775,64.267-64.267&#10;&#9;&#9;c-9.664-3.623-16.067-12.861-16.067-23.184v-41.725"/>
	<path style="fill:none;stroke:#000000;stroke-width:30;stroke-linecap:round;stroke-linejoin:round;stroke-miterlimit:10;" d="&#10;&#9;&#9;M352.416,127.467L352.4,111.4c0-53.237-43.163-96.4-96.4-96.4s-96.4,43.163-96.4,96.4v16.067c0-16.067,16.083-32.133,32.15-32.133&#10;&#9;&#9;C239.95,95.333,256.016,127.467,352.416,127.467z"/>
	<path style="fill:none;stroke:#000000;stroke-width:30;stroke-linecap:round;stroke-linejoin:round;stroke-miterlimit:10;" d="&#10;&#9;&#9;M352.416,127.467L352.4,159.6c0,80.333-64.267,112.467-96.4,112.467s-96.4-32.133-96.4-112.467l0.016-32.133&#10;&#9;&#9;c0-16.067,16.067-32.133,32.133-32.133C239.95,95.333,256.016,127.467,352.416,127.467z"/>
	<path style="fill:none;stroke:#000000;stroke-width:30;stroke-linecap:round;stroke-linejoin:round;stroke-miterlimit:10;" d="&#10;&#9;&#9;M95.333,356.417L95.333,356.417c-28.992,10.869-48.2,38.584-48.2,69.545c0,33.515,0,71.039,0,71.039h90.375L95.333,356.417z"/>
	<path style="fill:none;stroke:#000000;stroke-width:30;stroke-linecap:round;stroke-linejoin:round;stroke-miterlimit:10;" d="&#10;&#9;&#9;M416.667,356.417L416.667,356.417c28.992,10.869,48.2,38.584,48.2,69.545c0,33.515,0,71.039,0,71.039h-90.375L416.667,356.417z"/>
	<path style="fill:none;stroke:#000000;stroke-width:30;stroke-linecap:round;stroke-linejoin:round;stroke-miterlimit:10;" d="&#10;&#9;&#9;M309.309,31.067c0,0,20.204,0,43.091,0c17.047,0,33.394,6.772,45.444,18.822c12.05,12.05,18.822,28.398,18.822,45.445&#10;&#9;&#9;c0,50.538,0,112.467,0,112.467h-0.008c-35.499,0-64.291-28.759-64.331-64.259c-0.016-9.447-0.025-16.075-0.025-16.075"/>
</g>















</svg>
