<svg id="Capa_1" enable-background="new 0 0 512.006 512.006" height="512" viewBox="0 0 512.006 512.006" width="512" xmlns="http://www.w3.org/2000/svg"><g><path d="m256.003 91.003c-90.981 0-165 74.019-165 165s74.019 165 165 165 165-74.019 165-165-74.018-165-165-165zm0 300c-74.439 0-135-60.561-135-135s60.561-135 135-135 135 60.561 135 135-60.56 135-135 135z"/><path d="m316.003 241.003c-8.284 0-15 6.716-15 15 0 24.813-20.187 45-45 45s-45-20.187-45-45c0-8.284-6.716-15-15-15s-15 6.716-15 15c0 41.355 33.645 75 75 75s75-33.645 75-75c0-8.284-6.716-15-15-15z"/><circle cx="196.003" cy="196.003" r="15"/><circle cx="316.003" cy="196.003" r="15"/><path d="m103.612 134.476c5.165-6.477 4.102-15.915-2.375-21.08l-28.346-22.606c-6.478-5.166-15.915-4.102-21.08 2.375s-4.102 15.915 2.375 21.08l28.347 22.606c6.476 5.165 15.915 4.101 21.079-2.375z"/><path d="m410.769 398.61 28.347 22.606c6.477 5.165 15.915 4.101 21.08-2.375 5.165-6.477 4.102-15.915-2.375-21.08l-28.347-22.606c-6.478-5.165-15.915-4.102-21.08 2.375s-4.102 15.915 2.375 21.08z"/><path d="m271.003 46.003v-31c0-8.284-6.716-15-15-15s-15 6.716-15 15v31c0 8.284 6.716 15 15 15s15-6.716 15-15z"/><path d="m241.003 466.003v31c0 8.284 6.716 15 15 15s15-6.716 15-15v-31c0-8.284-6.716-15-15-15s-15 6.716-15 15z"/><path d="m11.753 215.868 36.241 8.044c8.121 1.804 16.107-3.342 17.894-11.393 1.795-8.088-3.306-16.099-11.394-17.894l-36.241-8.044c-8.092-1.799-16.1 3.307-17.894 11.393-1.794 8.088 3.306 16.099 11.394 17.894z"/><path d="m500.253 296.138-36.241-8.043c-8.093-1.796-16.1 3.307-17.894 11.394-1.795 8.087 3.306 16.099 11.394 17.894l36.241 8.043c8.139 1.806 16.11-3.359 17.894-11.394 1.795-8.088-3.306-16.099-11.394-17.894z"/><path d="m360.627 73.321 15.7-32.604c3.595-7.464.457-16.428-7.007-20.023-7.463-3.595-16.429-.457-20.022 7.007l-15.7 32.604c-3.595 7.464-.457 16.428 7.007 20.023 7.465 3.594 16.428.456 20.022-7.007z"/><path d="m151.379 438.685-15.7 32.604c-3.595 7.464-.457 16.428 7.007 20.022 7.464 3.595 16.428.456 20.022-7.007l15.7-32.604c3.595-7.464.457-16.428-7.007-20.022-7.465-3.594-16.427-.457-20.022 7.007z"/><path d="m171.402 80.328c7.464-3.594 10.602-12.559 7.007-20.023l-15.7-32.604c-3.595-7.464-12.562-10.601-20.022-7.007-7.464 3.594-10.602 12.559-7.007 20.023l15.7 32.604c3.593 7.464 12.558 10.601 20.022 7.007z"/><path d="m340.605 431.678c-7.464 3.594-10.602 12.559-7.007 20.022l15.7 32.604c3.594 7.464 12.559 10.601 20.022 7.007 7.464-3.594 10.602-12.559 7.007-20.022l-15.7-32.604c-3.595-7.465-12.561-10.601-20.022-7.007z"/><path d="m51.811 418.841c5.166 6.476 14.602 7.54 21.08 2.375l28.347-22.606c6.477-5.166 7.54-14.603 2.375-21.08-5.166-6.477-14.603-7.54-21.08-2.375l-28.347 22.606c-6.477 5.166-7.54 14.603-2.375 21.08z"/><path d="m460.195 93.165c-5.164-6.477-14.603-7.54-21.08-2.375l-28.347 22.606c-6.477 5.165-7.54 14.603-2.375 21.08s14.603 7.54 21.08 2.375l28.347-22.606c6.477-5.165 7.541-14.603 2.375-21.08z"/><path d="m18.253 325.425 36.241-8.043c8.088-1.795 13.188-9.806 11.394-17.894-1.794-8.087-9.8-13.187-17.894-11.394l-36.241 8.043c-8.088 1.795-13.188 9.806-11.394 17.894 1.797 8.097 9.812 13.186 17.894 11.394z"/><path d="m493.753 186.581-36.241 8.044c-8.088 1.795-13.188 9.806-11.394 17.894 1.789 8.063 9.784 13.194 17.894 11.393l36.241-8.044c8.088-1.795 13.188-9.806 11.394-17.894-1.794-8.086-9.807-13.187-17.894-11.393z"/></g></svg>