<?xml version="1.0" encoding="UTF-8" standalone="no"?>
<!-- Created with Inkscape (http://www.inkscape.org/) -->

<svg
   version="1.1"
   id="svg1218"
   xml:space="preserve"
   width="682.66669"
   height="682.66669"
   viewBox="0 0 682.66669 682.66669"
   xmlns="http://www.w3.org/2000/svg"
   xmlns:svg="http://www.w3.org/2000/svg"><defs
     id="defs1222"><clipPath
       clipPathUnits="userSpaceOnUse"
       id="clipPath1232"><path
         d="M 0,512 H 512 V 0 H 0 Z"
         id="path1230" /></clipPath></defs><g
     id="g1224"
     transform="matrix(1.3333333,0,0,-1.3333333,0,682.66667)"><g
       id="g1226"><g
         id="g1228"
         clip-path="url(#clipPath1232)"><g
           id="g1234"
           transform="translate(111.4004,15)"><path
             d="M 0,0 H -96.4 L 64.267,241 224.933,0 h -96.4 L 64.267,96.4 Z"
             style="fill:none;stroke:#000000;stroke-width:30;stroke-linecap:round;stroke-linejoin:round;stroke-miterlimit:10;stroke-dasharray:none;stroke-opacity:1"
             id="path1236" /></g><g
           id="g1238"
           transform="translate(111.4004,15)"><path
             d="M 0,0 64.267,96.4 128.533,0 Z"
             style="fill:none;stroke:#000000;stroke-width:30;stroke-linecap:round;stroke-linejoin:round;stroke-miterlimit:10;stroke-dasharray:none;stroke-opacity:1"
             id="path1240" /></g><g
           id="g1242"
           transform="translate(336.333,15)"><path
             d="M 0,0 -160.666,241 H 0 L 160.667,0 Z"
             style="fill:none;stroke:#000000;stroke-width:30;stroke-linecap:round;stroke-linejoin:round;stroke-miterlimit:10;stroke-dasharray:none;stroke-opacity:1"
             id="path1244" /></g><g
           id="g1246"
           transform="translate(273.1035,429.6084)"><path
             d="m 0,0 c 6.193,38.19 39.362,67.392 79.297,67.392 39.933,0 73.102,-29.202 79.297,-67.392 5.309,2.016 11.078,3.125 17.102,3.125 26.599,0 48.2,-21.594 48.2,-48.2 0,-26.598 -21.601,-48.2 -48.2,-48.2 h -192.8 c -26.598,0 -48.2,21.602 -48.2,48.2 0,26.606 21.602,48.2 48.2,48.2 C -11.078,3.125 -5.311,2.016 0,0 Z"
             style="fill:none;stroke:#000000;stroke-width:30;stroke-linecap:round;stroke-linejoin:round;stroke-miterlimit:10;stroke-dasharray:none;stroke-opacity:1"
             id="path1248" /></g></g></g></g></svg>
