<?xml version="1.0" encoding="UTF-8" standalone="no"?>
<!-- Created with Inkscape (http://www.inkscape.org/) -->

<svg
   version="1.1"
   id="svg1476"
   xml:space="preserve"
   width="682.66669"
   height="682.66669"
   viewBox="0 0 682.66669 682.66669"
   xmlns="http://www.w3.org/2000/svg"
   xmlns:svg="http://www.w3.org/2000/svg"><defs
     id="defs1480"><clipPath
       clipPathUnits="userSpaceOnUse"
       id="clipPath1490"><path
         d="M 0,512 H 512 V 0 H 0 Z"
         id="path1488" /></clipPath></defs><g
     id="g1482"
     transform="matrix(1.3333333,0,0,-1.3333333,0,682.66667)"><g
       id="g1484"><g
         id="g1486"
         clip-path="url(#clipPath1490)"><g
           id="g1492"
           transform="translate(167.5,106)"><path
             d="M 0,0 V -91 H 60 V -1"
             style="fill:none;stroke:#000000;stroke-width:30;stroke-linecap:round;stroke-linejoin:round;stroke-miterlimit:22.926;stroke-dasharray:none;stroke-opacity:1"
             id="path1494" /></g><g
           id="g1496"
           transform="translate(294.5283,104.25)"><path
             d="M 0,0 V -89.25 H 60 V 3.5"
             style="fill:none;stroke:#000000;stroke-width:30;stroke-linecap:round;stroke-linejoin:round;stroke-miterlimit:22.926;stroke-dasharray:none;stroke-opacity:1"
             id="path1498" /></g><g
           id="g1500"
           transform="translate(283.0186,394.0361)"><path
             d="M 0,0 43.948,51.964 139.763,-61.325 H 83.536 l 87.822,-114.769 h -59.462 l 84.585,-110.942 h -125.5"
             style="fill:none;stroke:#000000;stroke-width:30;stroke-linecap:round;stroke-linejoin:round;stroke-miterlimit:22.926;stroke-dasharray:none;stroke-opacity:1"
             id="path1502" /></g><g
           id="g1504"
           transform="translate(354,107)"><path
             d="m 0,0 h -321.5 l 91.499,127.633 h -64.322 l 95,132.035 h -60.823 L -156.5,390 -52.854,259.668 h -60.823 l 95,-132.035 H -82.999 L 8.5,0 H 0"
             style="fill:none;stroke:#000000;stroke-width:30;stroke-linecap:round;stroke-linejoin:round;stroke-miterlimit:22.926;stroke-dasharray:none;stroke-opacity:1"
             id="path1506" /></g></g></g></g></svg>
