<svg height="512pt" viewBox="-16 0 512 512" width="512pt" xmlns="http://www.w3.org/2000/svg"><path d="m462.800781 193.519531c2.171875-7.9375 3.273438-16.066406 3.273438-24.214843 0-21.761719-7.671875-42.851563-21.597657-59.378907-13.027343-15.457031-30.765624-26.085937-50.265624-30.195312-15.085938-31.363281-46.542969-51.433594-81.101563-51.433594-11.601563 0-22.863281 2.214844-33.546875 6.597656-17.070312-21.953125-43.164062-34.894531-70.902344-34.894531-39.507812 0-74.113281 25.933594-85.949218 63.699219-48.242188 1.277343-87.179688 41.085937-87.890626 90.101562-21.867187 17.285157-34.820312 43.984375-34.820312 72.101563 0 24.933594 10.125 48.84375 27.882812 66.066406 0 .09375.003907.1875.007813.277344.789063 27.757812 14.128906 53.019531 36.597656 69.308594 22.425781 16.257812 50.445313 21.097656 76.875 13.273437l8.496094-2.515625c19.585937 22.664062 44.761719 36.445312 72.222656 39.695312v69.992188h-84.734375c-8.285156 0-15 6.714844-15 15s6.714844 15 15 15h199.671875c8.28125 0 15-6.714844 15-15s-6.71875-15-15-15h-84.9375v-70.449219c17.59375-2.476562 34.171875-8.742187 48.800781-18.507812 12.332032 6.15625 26.097657 9.394531 40.085938 9.394531 21.5625 0 42.4375-7.84375 58.785156-22.082031 15.21875-13.257813 25.667969-31.289063 29.664063-51.070313 30.84375-15.328125 50.582031-47.195312 50.582031-82.164062 0-19.449219-5.9375-37.90625-17.199219-53.601563zm-48.863281 109.90625c-7.183594 3.230469-12.234375 9.8125-13.503906 17.617188-4.851563 29.78125-29.859375 51.394531-59.460938 51.394531-10.335937 0-20.449218-2.628906-29.25-7.597656-7.8125-4.414063-17.539062-3.875-24.785156 1.367187-10.359375 7.496094-22.191406 12.546875-34.855469 14.945313v-83.59375l48.171875-40.691406c6.171875-5.210938 7.476563-14.4375 2.558594-20.847657-5.25-6.839843-15.082031-7.84375-21.59375-2.34375l-29.136719 24.613281v-107.410156c0-8.078125-6.207031-15.027344-14.273437-15.40625-8.617188-.40625-15.726563 6.457032-15.726563 14.980469v73.070313l-21.621093-17.261719c-6.660157-5.320313-16.460938-4.042969-21.519532 2.9375-4.738281 6.542969-3.179687 15.730469 3.128906 20.769531l40.011719 31.945312v46.871094l-45.328125-38.289062c-6.328125-5.347656-15.792968-4.550782-21.140625 1.777344-5.34375 6.332031-4.546875 15.792968 1.78125 21.140624l64.6875 54.640626v33.660156c-25.960937-4.324219-43.242187-21.140625-51.800781-31.742188 0 0-5.921875-10.980468-21.914062-7.71875-3.914063.800782-15.515626 3.804688-15.515626 3.804688-17.429687 5.160156-35.929687 1.957031-50.753906-8.792969-14.871094-10.777344-23.699218-29.332031-24.21875-47.699219-.019531-.609375-.027344.613282-.027344 0v-.109375c.09375-6.726562-2.707031-13.175781-7.671874-17.695312-12.824219-11.671875-20.179688-28.386719-20.179688-45.859375 0-19.71875 9.429688-38.386719 25.226562-49.9375 6.261719-4.578125 9.851563-11.960938 9.601563-19.742188 0-33.910156 28.835937-62.515625 62.082031-62.515625 10.933594.414063 20.78125-6.914062 23.425782-17.480469 6.8125-27.214843 30.796874-46.226562 58.324218-46.226562 19.734375 0 38.253906 9.90625 49.539063 26.5 6.402343 9.410156 18.917969 12.757812 29.117187 7.777344 8.132813-3.96875 16.8125-5.980469 25.792969-5.980469 23.777344 0 45.390625 14.371094 55.0625 36.609375 3.167969 7.289062 9.714844 12.425781 17.511719 13.734375 29.199218 4.914063 50.390625 30.421875 50.390625 60.660156 0 6.257813-.972657 12.515625-2.886719 18.601563-2.289062 7.285156-.808594 15.21875 3.863281 21.261718 8.472657 10.953126 12.949219 24.078126 12.949219 37.957032 0 24.367187-14.152344 46.46875-36.0625 56.304687zm0 0"/></svg>