<?xml version="1.0" encoding="UTF-8"?>
<svg xmlns="http://www.w3.org/2000/svg" xmlns:xlink="http://www.w3.org/1999/xlink" version="1.1" id="Capa_1" x="0px" y="0px" viewBox="0 0 511.931 511.931" style="enable-background:new 0 0 511.931 511.931;" xml:space="preserve" width="512" height="512">
<g>
	<path style="fill:none;stroke:#000000;stroke-width:30;stroke-miterlimit:10;" d="M255.966,261.995&#10;&#9;&#9;c0-29.374-9.31-57.731-25.23-82.417c-3.018-4.68-4.77-10.254-4.77-16.237c0-16.569,13.431-30,30-30s30,13.431,30,30&#10;&#9;&#9;c0,5.983-1.751,11.557-4.77,16.237C265.276,204.264,255.966,232.621,255.966,261.995"/>
	<path style="fill:none;stroke:#000000;stroke-width:30;stroke-miterlimit:10;" d="M49.888,239.004&#10;&#9;&#9;C28.466,219.694,15,191.729,15,160.618c1.964-77.529,103.345-105.943,146.502-41.506l9.524,14.229"/>
	<path style="fill:none;stroke:#000000;stroke-width:30;stroke-miterlimit:10;" d="M462.043,239.004&#10;&#9;&#9;c21.422-19.31,34.888-47.275,34.888-78.386c-1.964-77.529-103.345-105.943-146.502-41.506l-9.524,14.229"/>
	<path style="fill:none;stroke:#000000;stroke-width:30;stroke-miterlimit:10;" d="M311.01,296.662&#10;&#9;&#9;c-9.833-20.506-30.784-34.667-55.044-34.667c-24.26,0-45.211,14.161-55.044,34.667"/>
	<path style="fill:none;stroke:#000000;stroke-width:30;stroke-miterlimit:10;" d="M311.104,296.522&#10;&#9;&#9;c7.786-10.999,12.361-24.429,12.361-38.932c0-10.121-2.243-19.713-6.234-28.33c17.674-16.433,28.734-39.883,28.734-65.92&#10;&#9;&#9;c0-50.131-40.987-90.689-91.278-89.991c-49.458,0.686-88.728,40.538-88.722,90.001c0.003,26.033,11.063,49.479,28.734,65.91&#10;&#9;&#9;c-3.991,8.617-6.234,18.209-6.234,28.33c0,14.502,4.576,27.933,12.361,38.932c16.503,23.314,25.139,51.285,25.139,79.849v62.219h60&#10;&#9;&#9;v-62.219C285.966,347.807,294.601,319.836,311.104,296.522z"/>
	<path style="fill:none;stroke:#000000;stroke-width:30;stroke-miterlimit:10;" d="M49.888,292.037&#10;&#9;&#9;c-14.645-14.645-14.645-38.388,0-53.033c14.645-14.645,38.388-14.645,53.033,0l10.607,10.607c14.645,14.645,14.645,38.388,0,53.033&#10;&#9;&#9;s-38.388,14.645-53.033,0L49.888,292.037z"/>
	<path style="fill:none;stroke:#000000;stroke-width:30;stroke-miterlimit:10;" d="M462.043,292.037&#10;&#9;&#9;c14.645-14.645,14.645-38.388,0-53.033c-14.645-14.645-38.388-14.645-53.033,0l-10.607,10.607&#10;&#9;&#9;c-14.645,14.645-14.645,38.388,0,53.033c14.645,14.645,38.388,14.645,53.033,0L462.043,292.037z"/>
</g>















</svg>
