<?xml version="1.0" encoding="UTF-8"?>
<svg id="Vrstva_1" data-name="Vrstva 1" xmlns="http://www.w3.org/2000/svg" viewBox="0 0 96.58 86.77">
  <defs>
    <style>
      .cls-1 {
        fill: #1d1d1b;
      }
    </style>
  </defs>
  <g id="Layer_2" data-name="Layer 2">
    <g id="_08.whatsapp" data-name=" 08.whatsapp">
      <g id="icon">
        <path class="cls-1" d="M77.88,13.78C61.71-2.56,35.35-2.69,19.02,13.49,6.16,26.22,3,45.8,11.2,61.93l-4.42,21.44c-.09.43,0,.88.25,1.24.38.56,1.06.82,1.71.66l21.01-4.98c20.58,10.23,45.56,1.84,55.79-18.74,7.92-15.93,4.84-35.13-7.67-47.78h0ZM71.33,66.07c-9.91,9.88-25.02,12.34-37.54,6.1l-2.93-1.45-12.88,3.05.04-.16,2.67-12.97-1.43-2.83c-6.4-12.58-3.98-27.85,6-37.83,12.73-12.72,33.36-12.72,46.09,0,.05.06.11.12.17.17,12.57,12.75,12.49,33.25-.17,45.91Z"/>
        <path class="cls-1" d="M70.19,56.56c-1.58,2.49-4.07,5.53-7.21,6.29-5.49,1.33-13.92.05-24.41-9.73l-.13-.11c-9.22-8.55-11.62-15.67-11.04-21.31.32-3.2,2.99-6.1,5.24-7.99,1.26-1.07,3.15-.93,4.23.33.19.22.35.47.46.74l3.39,7.63c.45,1.01.31,2.18-.37,3.05l-1.72,2.23c-.75.94-.86,2.25-.27,3.3.96,1.69,3.26,4.16,5.82,6.46,2.87,2.59,6.05,4.97,8.06,5.77,1.1.45,2.37.18,3.2-.67l1.99-2.01c.78-.77,1.92-1.06,2.97-.76l8.06,2.29c1.61.49,2.52,2.2,2.02,3.81-.07.24-.18.48-.31.7h0Z"/>
      </g>
    </g>
  </g>
</svg>