<svg id="Layer_1" enable-background="new 0 0 513.648 513.648" height="512" viewBox="0 0 513.648 513.648" width="512" xmlns="http://www.w3.org/2000/svg"><g><path d="m438.474 75.171c-160.586-161.142-438.833-45.884-438.425 181.605-2.846 138.038 118.772 259.681 256.825 256.82 227.493.394 342.746-277.856 181.6-438.425zm-408.426 181.603c-2.425-118.318 99.103-224.043 217.208-226.612 142.667 3.798 155.037 211.723 7.934 219.216-104.214-1.031-168.318 119.323-110.11 204.871-70.212-39.423-115.777-116.696-115.032-197.475zm387.214 160.389c-42.463 42.463-98.8 66.003-158.787 66.416-.527-.056-1.061-.088-1.602-.088h-1.681c-135.222-5.153-135.164-198.995.001-204.114 116.573-.001 176.207-137.191 104.05-225.135 136.529 67.325 167.162 256.383 58.019 362.921z"/><path d="m256.872 196.668c30.25 0 54.859-24.609 54.859-54.859-2.758-72.677-106.972-72.657-109.719.001.001 30.249 24.61 54.858 54.86 54.858zm0-79.718c13.707 0 24.859 11.151 24.859 24.858-1.25 32.934-48.473 32.925-49.719 0 .001-13.706 11.153-24.858 24.86-24.858z"/><path d="m256.872 324.879c-30.25 0-54.859 24.609-54.859 54.859 2.758 72.677 106.972 72.657 109.719-.001-.001-30.249-24.61-54.858-54.86-54.858zm0 79.718c-13.707 0-24.859-11.151-24.859-24.858 1.25-32.934 48.473-32.925 49.719 0-.001 13.706-11.153 24.858-24.86 24.858z"/></g></svg>