<?xml version="1.0" encoding="UTF-8" standalone="no"?>
<!-- Created with Inkscape (http://www.inkscape.org/) -->

<svg
   version="1.1"
   id="svg147"
   xml:space="preserve"
   width="682.66669"
   height="682.66669"
   viewBox="0 0 682.66669 682.66669"
   xmlns="http://www.w3.org/2000/svg"
   xmlns:svg="http://www.w3.org/2000/svg"><defs
     id="defs151"><clipPath
       clipPathUnits="userSpaceOnUse"
       id="clipPath161"><path
         d="M 0,512 H 512 V 0 H 0 Z"
         id="path159" /></clipPath></defs><g
     id="g153"
     transform="matrix(1.3333333,0,0,-1.3333333,0,682.66667)"><g
       id="g155"><g
         id="g157"
         clip-path="url(#clipPath161)"><g
           id="g163"
           transform="translate(497,352.3999)"><path
             d="m 0,0 c 0,8.523 -3.386,16.693 -9.411,22.718 -6.027,6.025 -14.2,9.415 -22.723,9.415 h -176.732 c -8.523,0 -16.696,-3.39 -22.722,-9.415 C -237.614,16.693 -241,8.523 -241,0 c 0,-8.523 3.386,-16.693 9.412,-22.727 6.026,-6.024 14.199,-9.406 22.722,-9.406 h 176.732 c 8.523,0 16.696,3.382 22.723,9.406 C -3.386,-16.693 0,-8.523 0,0 Z"
             style="fill:none;stroke:#000000;stroke-width:30;stroke-linecap:round;stroke-linejoin:round;stroke-miterlimit:10;stroke-dasharray:none;stroke-opacity:1"
             id="path165" /></g><g
           id="g167"
           transform="translate(223.8667,384.5332)"><path
             d="m 0,0 h -176.733 c -8.522,0 -16.695,-3.39 -22.722,-9.415 -6.025,-6.025 -9.412,-14.195 -9.412,-22.718 0,-17.746 14.388,-32.134 32.134,-32.134 h 144.6 v 32.15 C -32.133,-14.38 -17.754,0 -0.016,0 Z"
             style="fill:none;stroke:#000000;stroke-width:30;stroke-linecap:round;stroke-linejoin:round;stroke-miterlimit:10;stroke-dasharray:none;stroke-opacity:1"
             id="path169" /></g><g
           id="g171"
           transform="translate(239.9336,480.9331)"><path
             d="m 0,0 c 26.603,0 48.2,-21.602 48.2,-48.2 0,-26.606 -21.597,-48.2 -48.2,-48.2 -26.603,0 -48.2,21.594 -48.2,48.2 C -48.2,-21.602 -26.603,0 0,0 Z"
             style="fill:none;stroke:#000000;stroke-width:30;stroke-linecap:round;stroke-linejoin:round;stroke-miterlimit:10;stroke-dasharray:none;stroke-opacity:1"
             id="path173" /></g><g
           id="g175"
           transform="translate(239.9336,159.6001)"><path
             d="m 0,0 h -96.4 v -48.2 h -64.267 V 0 c 0,35.491 28.774,64.267 64.267,64.267 h 48.2 c 0,-10.291 4.086,-20.156 11.36,-27.426 C -22.59,22.59 0,0 0,0 Z"
             style="fill:none;stroke:#000000;stroke-width:30;stroke-linecap:round;stroke-linejoin:round;stroke-miterlimit:10;stroke-dasharray:none;stroke-opacity:1"
             id="path177" /></g><g
           id="g179"
           transform="translate(191.7334,239.9331)"><path
             d="m 0,0 h 96.4 v -0.008 c 0,-24.1 9.574,-47.212 26.616,-64.259 24.039,-24.035 55.667,-55.662 55.667,-55.662 l -45.444,-45.445 c 0,0 -87.286,87.291 -120.562,120.564 C 4.561,-36.696 0,-25.682 0,-14.203 Z"
             style="fill:none;stroke:#000000;stroke-width:30;stroke-linecap:round;stroke-linejoin:round;stroke-miterlimit:10;stroke-dasharray:none;stroke-opacity:1"
             id="path181" /></g><g
           id="g183"
           transform="translate(79.2666,111.3999)"><path
             d="m 0,0 h 64.267 v -48.2 c 0,-8.523 -3.386,-16.693 -9.411,-22.726 -6.027,-6.025 -14.2,-9.407 -22.723,-9.407 -8.521,0 -16.695,3.382 -22.721,9.407 C 3.386,-64.893 0,-56.723 0,-48.2 Z"
             style="fill:none;stroke:#000000;stroke-width:30;stroke-linecap:round;stroke-linejoin:round;stroke-miterlimit:10;stroke-dasharray:none;stroke-opacity:1"
             id="path185" /></g><g
           id="g187"
           transform="translate(324.9727,74.5591)"><path
             d="m 0,0 45.443,45.445 c 0,0 18.267,-18.268 34.082,-34.086 6.028,-6.025 9.413,-14.195 9.413,-22.718 0,-8.523 -3.385,-16.693 -9.413,-22.726 -6.025,-6.025 -14.199,-9.407 -22.72,-9.407 -8.523,0 -16.697,3.382 -22.722,9.407 C 18.266,-18.268 0,0 0,0 Z"
             style="fill:none;stroke:#000000;stroke-width:30;stroke-linecap:round;stroke-linejoin:round;stroke-miterlimit:10;stroke-dasharray:none;stroke-opacity:1"
             id="path189" /></g><g
           id="g191"
           transform="translate(256,352.3999)"><path
             d="m 0,0 c 0,-17.746 14.387,-32.133 32.134,-32.133 v -80.334 H -64.267 V 0 c 0,8.523 3.387,16.693 9.412,22.718 6.027,6.025 14.2,9.415 22.722,9.415 H 32.134 32.117 C 14.38,32.133 0,17.753 0,0.016 Z"
             style="fill:none;stroke:#000000;stroke-width:30;stroke-linecap:round;stroke-linejoin:round;stroke-miterlimit:10;stroke-dasharray:none;stroke-opacity:1"
             id="path193" /></g></g></g></g></svg>
