<svg id="Layer_1" enable-background="new 0 0 510.003 510.003" height="512" viewBox="0 0 510.003 510.003" width="512" xmlns="http://www.w3.org/2000/svg"><g><path d="m485.449 352.571c-2.692-25.617-16.344-52.006-40.574-78.433-22.394-24.423-55.858-40.137-86.338-50.084-9.961-21.605-22.723-39.419-37.383-52.715 38.35-38.813 25.206-99.623-26.641-122.951l11.042-27.857c3.053-7.701-.716-16.419-8.417-19.472-7.703-3.051-16.42.714-19.472 8.417l-12.318 31.079c-6.982-.736-13.873-.733-20.827 0l-12.319-31.079c-3.052-7.7-11.77-11.469-19.472-8.417-7.701 3.053-11.47 11.771-8.417 19.472l11.042 27.857c-52.004 23.399-64.891 84.242-26.642 122.951-14.66 13.297-27.422 31.11-37.382 52.716-30.48 9.947-63.944 25.661-86.338 50.084-84.639 92.311-20.139 167.439 33.414 167.439 22.413 0 42.913-10.624 60.408-24.782 33.738 53.347 85.264 88.957 87.654 90.591 5.103 3.489 11.826 3.49 16.931 0 2.389-1.634 53.915-37.244 87.653-90.591 43.732 35.393 85.306 30.504 112.973.328 16.556-18.057 23.963-40.378 21.423-64.553zm-230.515-282.568c51.598 0 78.192 52.889 40.917 83.848-26.367-13.128-55.436-13.143-81.834 0-37.161-30.865-10.912-83.848 40.917-83.848zm63.253 143.374c-18.161-3.783-30.909-5.146-32.395-5.297-9.344-.946-17.265 6.833-16.463 16.2.148 1.731 1.573 17.607 5.663 39.723h-40.116c4.089-22.115 5.515-37.991 5.663-39.723.8-9.352-7.114-17.16-16.462-16.2-1.486.151-14.234 1.514-32.396 5.297 36.225-52.47 90.248-52.522 126.506 0zm-112.475 144.626h98.443c6.11 12.421 13.245 24.049 21.557 34h-141.556c8.312-9.951 15.447-21.579 21.556-34zm12.48-30c4.041-11.47 7.393-23.001 10.162-34h53.159c2.769 10.999 6.121 22.53 10.162 34zm-150.239 68.845c-28.404-30.976-9.505-71.183 19.151-102.435 30.738-33.523 90.663-48.148 121.179-53.643-4.535 30.835-12.719 66.249-25.211 94.976-2.685 4.846-9.489 25.359-31.045 46.812-27.279 26.514-58.458 42.227-84.074 14.29zm186.981 79.474c-12.116-9.413-35.169-28.807-55.54-54.318h111.079c-20.372 25.514-43.427 44.909-55.539 54.318zm186.98-79.473c-27.715 30.222-62.821 9.187-90.402-20.887-29.095-31.731-43.66-92.811-49.915-135.189 30.523 5.497 90.434 20.123 121.167 53.641 28.654 31.251 47.553 71.457 19.15 102.435z"/></g></svg>