<?xml version="1.0" encoding="UTF-8" standalone="no"?>
<!-- Created with Inkscape (http://www.inkscape.org/) -->

<svg
   version="1.1"
   id="svg2952"
   xml:space="preserve"
   width="682.66669"
   height="682.66669"
   viewBox="0 0 682.66669 682.66669"
   xmlns="http://www.w3.org/2000/svg"
   xmlns:svg="http://www.w3.org/2000/svg"><defs
     id="defs2956"><clipPath
       clipPathUnits="userSpaceOnUse"
       id="clipPath2980"><path
         d="M 0,512 H 512 V 0 H 0 Z"
         id="path2978" /></clipPath></defs><g
     id="g2958"
     transform="matrix(1.3333333,0,0,-1.3333333,0,682.66667)"><path
       d="M 376,166 H 136 v 180 h 240 z"
       style="fill:none;stroke:#000000;stroke-width:30;stroke-linecap:round;stroke-linejoin:round;stroke-miterlimit:10;stroke-dasharray:none;stroke-opacity:1"
       id="path2960" /><g
       id="g2962"
       transform="translate(136,286)"><path
         d="M 0,0 H 240"
         style="fill:none;stroke:#000000;stroke-width:30;stroke-linecap:round;stroke-linejoin:round;stroke-miterlimit:10;stroke-dasharray:none;stroke-opacity:1"
         id="path2964" /></g><g
       id="g2966"
       transform="translate(196,376)"><path
         d="M 0,0 V -30"
         style="fill:none;stroke:#000000;stroke-width:30;stroke-linecap:round;stroke-linejoin:round;stroke-miterlimit:10;stroke-dasharray:none;stroke-opacity:1"
         id="path2968" /></g><g
       id="g2970"
       transform="translate(316,376)"><path
         d="M 0,0 V -30"
         style="fill:none;stroke:#000000;stroke-width:30;stroke-linecap:round;stroke-linejoin:round;stroke-miterlimit:10;stroke-dasharray:none;stroke-opacity:1"
         id="path2972" /></g><g
       id="g2974"><g
         id="g2976"
         clip-path="url(#clipPath2980)"><g
           id="g2982"
           transform="translate(15,226)"><path
             d="M 0,0 30,30 V 0 c 0,-115.98 95.021,-211 211,-211 105.794,0 193.316,79.231 207.873,181"
             style="fill:none;stroke:#000000;stroke-width:30;stroke-linecap:round;stroke-linejoin:round;stroke-miterlimit:10;stroke-dasharray:none;stroke-opacity:1"
             id="path2984" /></g><g
           id="g2986"
           transform="translate(45,256)"><path
             d="M 0,0 30,-30"
             style="fill:none;stroke:#000000;stroke-width:30;stroke-linecap:round;stroke-linejoin:round;stroke-miterlimit:10;stroke-dasharray:none;stroke-opacity:1"
             id="path2988" /></g><g
           id="g2990"
           transform="translate(497,286)"><path
             d="M 0,0 -30,-30 V 0 c 0,115.98 -95.021,211 -211,211 -105.794,0 -193.316,-79.231 -207.873,-181"
             style="fill:none;stroke:#000000;stroke-width:30;stroke-linecap:round;stroke-linejoin:round;stroke-miterlimit:10;stroke-dasharray:none;stroke-opacity:1"
             id="path2992" /></g><g
           id="g2994"
           transform="translate(467,256)"><path
             d="M 0,0 -30,30"
             style="fill:none;stroke:#000000;stroke-width:30;stroke-linecap:round;stroke-linejoin:round;stroke-miterlimit:10;stroke-dasharray:none;stroke-opacity:1"
             id="path2996" /></g></g></g></g></svg>
