<?xml version="1.0" encoding="iso-8859-1"?>
<!-- Generator: Adobe Illustrator 19.0.0, SVG Export Plug-In . SVG Version: 6.00 Build 0)  -->
<svg version="1.1" id="Capa_1" xmlns="http://www.w3.org/2000/svg" xmlns:xlink="http://www.w3.org/1999/xlink" x="0px" y="0px"
	 viewBox="0 0 512.001 512.001" style="enable-background:new 0 0 512.001 512.001;" xml:space="preserve">
<g>
	<g>
		<path d="M509.366,292.702l-56.087-81.674l56.06-81.112c3.534-5.114,3.548-11.879,0.034-17.007l-61.936-90.387
			C444.641,18.44,440.012,16,435.064,16h-78.419c-4.939,0-9.563,2.432-12.361,6.502l-57.466,83.594h-62.637l-57.466-83.594
			c-2.798-4.07-7.421-6.502-12.361-6.502H76.935c-4.948,0-9.577,2.44-12.374,6.521L2.626,112.908
			c-3.514,5.128-3.5,11.893,0.034,17.007l56.06,81.112L2.635,292.702c-3.519,5.125-3.512,11.89,0.017,17.007l61.936,89.807
			c2.8,4.06,7.417,6.484,12.348,6.484h69.533l57.465,83.503c2.799,4.067,7.42,6.497,12.357,6.497h78.419
			c4.938,0,9.558-2.429,12.356-6.497L364.531,406h70.533c4.932,0,9.548-2.424,12.349-6.484l61.936-89.807
			C512.878,304.591,512.885,297.827,509.366,292.702z M364.536,46h62.623l51.632,75.351L427.197,196h-62.67
			c-6.083-8.831-45.537-66.1-51.608-74.913L364.536,46z M224.171,135.997h62.657c6.083,8.831,45.536,66.199,51.608,75.012
			l-51.618,75.088h-62.637c-5.014-7.294-46.653-67.865-51.618-75.087l46.844-68.097L224.171,135.997z M33.208,121.351L84.841,46
			h61.623l51.618,75.087c-9.11,13.224-45.573,66.151-51.608,74.913H84.802L33.208,121.351z M84.812,376l-51.604-74.825L84.831,226
			h61.633c5.014,7.294,46.653,67.865,51.618,75.087c-9.11,13.224-45.572,66.151-51.608,74.913H84.812z M286.824,466h-62.647
			l-51.61-74.996c7.617-11.057,45.14-65.623,51.605-75.008h62.657l51.605,75.008L286.824,466z M427.188,376h-62.662
			c-6.083-8.831-45.536-66.099-51.608-74.912L364.537,226h62.632l51.622,75.175L427.188,376z"/>
	</g>
</g>
<g>
</g>
<g>
</g>
<g>
</g>
<g>
</g>
<g>
</g>
<g>
</g>
<g>
</g>
<g>
</g>
<g>
</g>
<g>
</g>
<g>
</g>
<g>
</g>
<g>
</g>
<g>
</g>
<g>
</g>
</svg>
