<?xml version="1.0" encoding="UTF-8" standalone="no"?>
<!-- Created with Inkscape (http://www.inkscape.org/) -->

<svg
   version="1.1"
   id="svg1917"
   xml:space="preserve"
   width="682.66669"
   height="682.66669"
   viewBox="0 0 682.66669 682.66669"
   xmlns="http://www.w3.org/2000/svg"
   xmlns:svg="http://www.w3.org/2000/svg"><defs
     id="defs1921"><clipPath
       clipPathUnits="userSpaceOnUse"
       id="clipPath1931"><path
         d="M 0,512 H 512 V 0 H 0 Z"
         id="path1929" /></clipPath></defs><g
     id="g1923"
     transform="matrix(1.3333333,0,0,-1.3333333,0,682.66667)"><g
       id="g1925"><g
         id="g1927"
         clip-path="url(#clipPath1931)"><g
           id="g1933"
           transform="translate(47.1333,318.1338)"><path
             d="m 0,0 c 8.288,0 15,-6.723 15,-15 0,-8.278 -6.712,-15 -15,-15 -8.269,0 -15,6.722 -15,15 0,8.277 6.731,15 15,15"
             style="fill:#000000;fill-opacity:1;fill-rule:evenodd;stroke:none"
             id="path1935" /></g><g
           id="g1937"
           transform="translate(47.1333,61.0664)"><path
             d="m 0,0 c 8.288,0 15,-6.721 15,-15 0,-8.278 -6.712,-15 -15,-15 -8.269,0 -15,6.722 -15,15 0,8.279 6.731,15 15,15"
             style="fill:#000000;fill-opacity:1;fill-rule:evenodd;stroke:none"
             id="path1939" /></g><g
           id="g1941"
           transform="translate(464.8662,318.1338)"><path
             d="m 0,0 c 8.288,0 15,-6.723 15,-15 0,-8.278 -6.712,-15 -15,-15 -8.269,0 -15,6.722 -15,15 0,8.277 6.731,15 15,15"
             style="fill:#000000;fill-opacity:1;fill-rule:evenodd;stroke:none"
             id="path1943" /></g><g
           id="g1945"
           transform="translate(464.8662,61.0664)"><path
             d="m 0,0 c 8.288,0 15,-6.721 15,-15 0,-8.278 -6.712,-15 -15,-15 -8.269,0 -15,6.722 -15,15 0,8.279 6.731,15 15,15"
             style="fill:#000000;fill-opacity:1;fill-rule:evenodd;stroke:none"
             id="path1947" /></g><g
           id="g1949"
           transform="translate(400.5996,239.9336)"><path
             d="M 0,0 C 0,17.747 -14.38,32.133 -32.133,32.133 H -257.066 C -274.8,32.133 -289.2,17.747 -289.2,0 V -32.134 H 0 Z"
             style="fill:none;stroke:#000000;stroke-width:30;stroke-linecap:round;stroke-linejoin:round;stroke-miterlimit:10;stroke-dasharray:none;stroke-opacity:1"
             id="path1951" /></g><g
           id="g1953"
           transform="translate(400.5996,111.4004)"><path
             d="M 0,0 C 0,-17.747 -14.38,-32.134 -32.133,-32.134 H -257.066 C -274.8,-32.134 -289.2,-17.747 -289.2,0 V 32.133 H 0 Z"
             style="fill:none;stroke:#000000;stroke-width:30;stroke-linecap:round;stroke-linejoin:round;stroke-miterlimit:10;stroke-dasharray:none;stroke-opacity:1"
             id="path1955" /></g><g
           id="g1957"
           transform="translate(432.7334,175.667)"><path
             d="m 0,0 c 0,17.746 -14.38,32.133 -32.134,32.133 h -289.199 c -8.516,0 -16.69,-3.386 -22.715,-9.411 -6.025,-6.027 -9.419,-14.2 -9.419,-22.722 0,-17.747 14.4,-32.134 32.134,-32.134 H -32.134 C -14.38,-32.134 0,-17.747 0,0 Z"
             style="fill:none;stroke:#000000;stroke-width:30;stroke-linecap:round;stroke-linejoin:round;stroke-miterlimit:10;stroke-dasharray:none;stroke-opacity:1"
             id="path1959" /></g><path
           d="M 15,432.733 H 497 V 497 H 15 Z"
           style="fill:none;stroke:#000000;stroke-width:30;stroke-linecap:round;stroke-linejoin:round;stroke-miterlimit:10;stroke-dasharray:none;stroke-opacity:1"
           id="path1961" /><g
           id="g1963"
           transform="translate(256,432.7334)"><path
             d="M 0,0 V -96.4"
             style="fill:none;stroke:#000000;stroke-width:30;stroke-linecap:round;stroke-linejoin:round;stroke-miterlimit:10;stroke-dasharray:none;stroke-opacity:1"
             id="path1965" /></g><g
           id="g1967"
           transform="translate(368.4668,304.2002)"><path
             d="M 0,0 C 0,17.747 -14.38,32.133 -32.134,32.133 H -192.8 c -17.734,0 -32.134,-14.386 -32.134,-32.133 V -32.134 H 0 Z"
             style="fill:none;stroke:#000000;stroke-width:30;stroke-linecap:round;stroke-linejoin:round;stroke-miterlimit:10;stroke-dasharray:none;stroke-opacity:1"
             id="path1969" /></g><g
           id="g1971"
           transform="translate(368.4668,47.1338)"><path
             d="M 0,0 C 0,-17.748 -14.38,-32.134 -32.134,-32.134 H -192.8 c -17.734,0 -32.134,14.386 -32.134,32.134 V 32.133 H 0 Z"
             style="fill:none;stroke:#000000;stroke-width:30;stroke-linecap:round;stroke-linejoin:round;stroke-miterlimit:10;stroke-dasharray:none;stroke-opacity:1"
             id="path1973" /></g></g></g></g></svg>
