<?xml version="1.0" encoding="UTF-8" standalone="no"?>
<!-- Created with Inkscape (http://www.inkscape.org/) -->

<svg
   version="1.1"
   id="svg1401"
   xml:space="preserve"
   width="682.66669"
   height="682.66669"
   viewBox="0 0 682.66669 682.66669"
   xmlns="http://www.w3.org/2000/svg"
   xmlns:svg="http://www.w3.org/2000/svg"><defs
     id="defs1405"><clipPath
       clipPathUnits="userSpaceOnUse"
       id="clipPath1415"><path
         d="M 0,512 H 512 V 0 H 0 Z"
         id="path1413" /></clipPath></defs><g
     id="g1407"
     transform="matrix(1.3333333,0,0,-1.3333333,0,682.66667)"><g
       id="g1409"><g
         id="g1411"
         clip-path="url(#clipPath1415)"><g
           id="g1417"
           transform="translate(318.5073,219.5127)"><path
             d="m 0,0 -1.507,1.507 v -164.469 c 0,-16.321 13.23,-29.551 29.55,-29.551 h 0.9 c 16.32,0 29.55,13.23 29.55,29.55 v 80.9 c 0,16.32 13.23,29.55 29.55,29.55 h 0.899 c 16.321,0 29.551,-13.23 29.551,-29.55 v -20.899 c 0,-16.321 13.23,-29.551 29.55,-29.551 16.817,0 30.45,13.633 30.45,30.45 v 249.55 h -0.024"
             style="fill:none;stroke:#000000;stroke-width:30;stroke-linecap:round;stroke-linejoin:round;stroke-miterlimit:10;stroke-dasharray:none;stroke-opacity:1"
             id="path1419" /></g><g
           id="g1421"
           transform="translate(360.9341,261.939)"><path
             d="m 0,0 -98.995,98.995 c -11.716,11.716 -30.711,11.716 -42.426,0 -11.716,-11.716 -11.716,-30.711 0,-42.426 l 98.995,-98.995 c 11.715,-11.716 30.71,-11.716 42.426,0 C 11.716,-30.71 11.716,-11.716 0,0 Z"
             style="fill:none;stroke:#000000;stroke-width:30;stroke-linecap:round;stroke-linejoin:round;stroke-miterlimit:10;stroke-dasharray:none;stroke-opacity:1"
             id="path1423" /></g><g
           id="g1425"
           transform="translate(488.2134,389.2183)"><path
             d="m 0,0 -98.995,98.995 c -11.716,11.715 -30.711,11.715 -42.426,0 -11.716,-11.716 -11.716,-30.711 0,-42.427 l 98.994,-98.994 c 11.716,-11.716 30.711,-11.716 42.427,0 C 11.715,-30.71 11.715,-11.716 0,0 Z"
             style="fill:none;stroke:#000000;stroke-width:30;stroke-linecap:round;stroke-linejoin:round;stroke-miterlimit:10;stroke-dasharray:none;stroke-opacity:1"
             id="path1427" /></g><g
           id="g1429"
           transform="translate(424.5737,283.1523)"><path
             d="m 0,0 -141.421,141.421 c -11.716,11.716 -30.711,11.716 -42.427,0 v 0 c -11.715,-11.715 -11.715,-30.711 0,-42.426 L -42.427,-42.427 c 11.716,-11.715 30.711,-11.715 42.427,0 v 10e-4 C 11.716,-30.711 11.716,-11.716 0,0 Z"
             style="fill:none;stroke:#000000;stroke-width:30;stroke-linecap:round;stroke-linejoin:round;stroke-miterlimit:10;stroke-dasharray:none;stroke-opacity:1"
             id="path1431" /></g><g
           id="g1433"
           transform="translate(467,325.5786)"><path
             d="m 0,0 -141.421,141.421 c -11.716,11.716 -30.711,11.716 -42.427,0 -11.715,-11.715 -11.715,-30.71 0,-42.426 L -42.426,-42.426 c 11.716,-11.716 30.71,-11.716 42.426,0 C 11.716,-30.71 11.716,-11.716 0,0 Z"
             style="fill:none;stroke:#000000;stroke-width:30;stroke-linecap:round;stroke-linejoin:round;stroke-miterlimit:10;stroke-dasharray:none;stroke-opacity:1"
             id="path1435" /></g><g
           id="g1437"
           transform="translate(247.7969,290.2231)"><path
             d="m 0,0 -224.01,-224.01 c -11.716,-11.716 -11.716,-30.711 0,-42.427 11.716,-11.715 30.711,-11.715 42.427,0 L 42.426,-42.426 Z"
             style="fill:none;stroke:#000000;stroke-width:30;stroke-linecap:round;stroke-linejoin:round;stroke-miterlimit:10;stroke-dasharray:none;stroke-opacity:1"
             id="path1439" /></g></g></g></g></svg>
