<?xml version="1.0" encoding="UTF-8" standalone="no"?>
<!-- Created with Inkscape (http://www.inkscape.org/) -->

<svg
   version="1.1"
   id="svg1635"
   xml:space="preserve"
   width="682.66669"
   height="682.66669"
   viewBox="0 0 682.66669 682.66669"
   xmlns="http://www.w3.org/2000/svg"
   xmlns:svg="http://www.w3.org/2000/svg"><defs
     id="defs1639"><clipPath
       clipPathUnits="userSpaceOnUse"
       id="clipPath1649"><path
         d="M 0,512 H 512 V 0 H 0 Z"
         id="path1647" /></clipPath></defs><g
     id="g1641"
     transform="matrix(1.3333333,0,0,-1.3333333,0,682.66667)"><g
       id="g1643"><g
         id="g1645"
         clip-path="url(#clipPath1649)"><g
           id="g1651"
           transform="translate(316.041,248.4985)"><path
             d="m 0,0 c 0,-33.137 -26.863,-60 -60,-60 -33.138,0 -60,26.863 -60,60 0,33.137 26.862,60 60,60 C -26.863,60 0,33.137 0,0 Z"
             style="fill:none;stroke:#000000;stroke-width:30;stroke-linecap:round;stroke-linejoin:round;stroke-miterlimit:10;stroke-dasharray:none;stroke-opacity:1"
             id="path1653" /></g><g
           id="g1655"
           transform="translate(472.3574,318.7837)"><path
             d="m 0,0 c 4.353,11.592 5.283,24.36 1.313,36.573 -9.492,29.215 -40.873,45.205 -70.089,35.712 -33.402,-10.853 -62.669,-30.967 -85.569,-57.272 17.943,29.908 28.029,63.957 28.029,99.078 0,30.72 -24.905,55.624 -55.624,55.624 -12.842,0 -24.698,-4.83 -34.377,-12.55 -9.679,7.72 -21.535,12.55 -34.376,12.55 -30.72,0 -55.624,-24.904 -55.624,-55.624 0,-35.121 10.086,-69.17 28.028,-99.078 -22.899,26.305 -52.167,46.419 -85.569,57.272 -29.216,9.493 -60.597,-6.497 -70.089,-35.712 -3.97,-12.213 -3.039,-24.981 1.313,-36.573 -16.266,-10.735 -24.483,-27.104 -24.723,-45.285 -0.314,-23.724 14.128,-45.903 37.878,-53.619 33.399,-10.853 68.898,-11.784 102.884,-3.965 -32.091,-13.649 -60.263,-35.266 -80.906,-63.678 -18.059,-24.853 -12.549,-59.64 12.304,-77.696 10.389,-7.549 22.821,-10.609 35.188,-10.052 3.294,-11.935 10.047,-22.811 20.434,-30.361 24.853,-18.056 59.639,-12.546 77.696,12.307 20.645,28.416 32.499,61.89 35.562,96.632 3.064,-34.742 14.918,-68.216 35.563,-96.632 18.056,-24.853 52.842,-30.363 77.695,-12.307 10.388,7.55 17.141,18.426 20.435,30.361 12.367,-0.557 24.798,2.503 35.187,10.052 24.853,18.056 30.363,52.843 12.305,77.696 -20.643,28.412 -48.814,50.029 -80.905,63.678 33.986,-7.819 69.482,-6.888 102.883,3.965 23.75,7.716 38.111,29.895 37.797,53.619 C 24.402,-27.112 16.275,-10.741 0,0 Z"
             style="fill:none;stroke:#000000;stroke-width:30;stroke-linecap:round;stroke-linejoin:round;stroke-miterlimit:10;stroke-dasharray:none;stroke-opacity:1"
             id="path1657" /></g><g
           id="g1659"
           transform="translate(398.6992,294.8511)"><path
             d="M 0,0 -85.596,-27.812"
             style="fill:none;stroke:#000000;stroke-width:30;stroke-linecap:round;stroke-linejoin:round;stroke-miterlimit:10;stroke-dasharray:none;stroke-opacity:1"
             id="path1661" /></g><g
           id="g1663"
           transform="translate(198.9771,229.9575)"><path
             d="M 0,0 -43.229,-14.046"
             style="fill:none;stroke:#000000;stroke-width:30;stroke-linecap:round;stroke-linejoin:round;stroke-miterlimit:10;stroke-dasharray:none;stroke-opacity:1"
             id="path1665" /></g><g
           id="g1667"
           transform="translate(344.208,127.146)"><path
             d="M 0,0 -52.9,72.812"
             style="fill:none;stroke:#000000;stroke-width:30;stroke-linecap:round;stroke-linejoin:round;stroke-miterlimit:10;stroke-dasharray:none;stroke-opacity:1"
             id="path1669" /></g><g
           id="g1671"
           transform="translate(220.7734,297.0396)"><path
             d="M 0,0 -26.708,36.76"
             style="fill:none;stroke:#000000;stroke-width:30;stroke-linecap:round;stroke-linejoin:round;stroke-miterlimit:10;stroke-dasharray:none;stroke-opacity:1"
             id="path1673" /></g><g
           id="g1675"
           transform="translate(167.873,127.146)"><path
             d="M 0,0 52.9,72.812"
             style="fill:none;stroke:#000000;stroke-width:30;stroke-linecap:round;stroke-linejoin:round;stroke-miterlimit:10;stroke-dasharray:none;stroke-opacity:1"
             id="path1677" /></g><g
           id="g1679"
           transform="translate(291.3076,297.0396)"><path
             d="M 0,0 26.708,36.76"
             style="fill:none;stroke:#000000;stroke-width:30;stroke-linecap:round;stroke-linejoin:round;stroke-miterlimit:10;stroke-dasharray:none;stroke-opacity:1"
             id="path1681" /></g><g
           id="g1683"
           transform="translate(113.3823,294.8511)"><path
             d="M 0,0 85.595,-27.812"
             style="fill:none;stroke:#000000;stroke-width:30;stroke-linecap:round;stroke-linejoin:round;stroke-miterlimit:10;stroke-dasharray:none;stroke-opacity:1"
             id="path1685" /></g><g
           id="g1687"
           transform="translate(313.1035,229.9575)"><path
             d="M 0,0 43.226,-14.044"
             style="fill:none;stroke:#000000;stroke-width:30;stroke-linecap:round;stroke-linejoin:round;stroke-miterlimit:10;stroke-dasharray:none;stroke-opacity:1"
             id="path1689" /></g><g
           id="g1691"
           transform="translate(256.0405,398.4985)"><path
             d="M 0,0 V -90"
             style="fill:none;stroke:#000000;stroke-width:30;stroke-linecap:round;stroke-linejoin:round;stroke-miterlimit:10;stroke-dasharray:none;stroke-opacity:1"
             id="path1693" /></g><g
           id="g1695"
           transform="translate(256.0405,188.4985)"><path
             d="M 0,0 V -45.432"
             style="fill:none;stroke:#000000;stroke-width:30;stroke-linecap:round;stroke-linejoin:round;stroke-miterlimit:10;stroke-dasharray:none;stroke-opacity:1"
             id="path1697" /></g></g></g></g></svg>
