<?xml version="1.0" encoding="UTF-8" standalone="no"?>
<!-- Created with Inkscape (http://www.inkscape.org/) -->

<svg
   version="1.1"
   id="svg2097"
   xml:space="preserve"
   width="682.66669"
   height="682.66669"
   viewBox="0 0 682.66669 682.66669"
   xmlns="http://www.w3.org/2000/svg"
   xmlns:svg="http://www.w3.org/2000/svg"><defs
     id="defs2101"><clipPath
       clipPathUnits="userSpaceOnUse"
       id="clipPath2111"><path
         d="M 0,512 H 512 V 0 H 0 Z"
         id="path2109" /></clipPath></defs><g
     id="g2103"
     transform="matrix(1.3333333,0,0,-1.3333333,0,682.66667)"><g
       id="g2105"><g
         id="g2107"
         clip-path="url(#clipPath2111)"><g
           id="g2113"
           transform="translate(481.1665,203.9619)"><path
             d="m 0,0 c -6.139,0.282 -16.362,1.59 -27.32,7.32 -17.607,9.207 -25.844,23.936 -28.66,29.641 -3.961,-4.334 -15.528,-15.845 -34.642,-20 -16.733,-3.637 -30.305,0.309 -35.981,2.32 -1.095,-5.921 -4.463,-19.646 -15.98,-32.32 -13.155,-14.476 -28.907,-18.736 -34.641,-20 3.532,-5.292 12.17,-19.789 11.34,-39.641 -0.517,-12.356 -4.496,-21.863 -7.321,-27.32 6.139,-0.283 16.362,-1.591 27.321,-7.321 17.606,-9.206 25.843,-23.936 28.66,-29.641 3.961,4.335 15.527,15.846 34.641,20 16.733,3.638 30.305,-0.309 35.98,-2.32 1.096,5.921 4.464,19.647 15.981,32.32 13.155,14.476 28.907,18.737 34.642,20 -3.533,5.292 -12.17,19.79 -11.34,39.641 C -6.804,-14.965 -2.825,-5.458 0,0 Z"
             style="fill:none;stroke:#000000;stroke-width:30;stroke-linecap:round;stroke-linejoin:round;stroke-miterlimit:10;stroke-dasharray:none;stroke-opacity:1"
             id="path2115" /></g><g
           id="g2117"
           transform="translate(256,73.9619)"><path
             d="M 0,0 155.885,90"
             style="fill:none;stroke:#000000;stroke-width:30;stroke-linecap:round;stroke-linejoin:round;stroke-miterlimit:10;stroke-dasharray:none;stroke-opacity:1"
             id="path2119" /></g><g
           id="g2121"
           transform="translate(30.8335,203.9619)"><path
             d="m 0,0 c 6.139,0.282 16.362,1.59 27.32,7.32 17.607,9.207 25.844,23.936 28.66,29.641 3.961,-4.334 15.528,-15.845 34.642,-20 16.733,-3.637 30.305,0.309 35.981,2.32 1.095,-5.921 4.463,-19.646 15.98,-32.32 13.155,-14.476 28.907,-18.736 34.641,-20 -3.532,-5.292 -12.17,-19.789 -11.34,-39.641 0.517,-12.356 4.496,-21.863 7.321,-27.32 -6.139,-0.283 -16.362,-1.591 -27.321,-7.321 -17.606,-9.206 -25.843,-23.936 -28.66,-29.641 -3.961,4.335 -15.527,15.846 -34.641,20 -16.733,3.638 -30.305,-0.309 -35.98,-2.32 -1.096,5.921 -4.464,19.647 -15.981,32.32 -13.155,14.476 -28.907,18.737 -34.642,20 3.533,5.292 12.17,19.79 11.34,39.641 C 6.804,-14.965 2.825,-5.458 0,0 Z"
             style="fill:none;stroke:#000000;stroke-width:30;stroke-linecap:round;stroke-linejoin:round;stroke-miterlimit:10;stroke-dasharray:none;stroke-opacity:1"
             id="path2123" /></g><g
           id="g2125"
           transform="translate(256,73.9619)"><path
             d="M 0,0 -155.885,90"
             style="fill:none;stroke:#000000;stroke-width:30;stroke-linecap:round;stroke-linejoin:round;stroke-miterlimit:10;stroke-dasharray:none;stroke-opacity:1"
             id="path2127" /></g><g
           id="g2129"
           transform="translate(256,497)"><path
             d="M 0,0 V 0 C -24.799,0 -42.483,-24.054 -35.086,-47.724 L 0,-160 35.086,-47.724 C 42.483,-24.054 24.799,0 0,0 Z"
             style="fill:none;stroke:#000000;stroke-width:30;stroke-linecap:round;stroke-linejoin:round;stroke-miterlimit:10;stroke-dasharray:none;stroke-opacity:1"
             id="path2131" /></g><g
           id="g2133"
           transform="translate(369.1372,356.2285)"><path
             d="m 0,0 v 0 c -17.536,17.535 -47.049,13.031 -58.556,-8.937 l -54.581,-104.201 104.2,54.582 C 13.032,-47.049 17.536,-17.536 0,0 Z"
             style="fill:none;stroke:#000000;stroke-width:30;stroke-linecap:round;stroke-linejoin:round;stroke-miterlimit:10;stroke-dasharray:none;stroke-opacity:1"
             id="path2135" /></g><g
           id="g2137"
           transform="translate(142.8628,356.2285)"><path
             d="m 0,0 v 0 c 17.536,17.535 47.049,13.031 58.556,-8.937 l 54.581,-104.201 -104.2,54.582 C -13.032,-47.049 -17.536,-17.536 0,0 Z"
             style="fill:none;stroke:#000000;stroke-width:30;stroke-linecap:round;stroke-linejoin:round;stroke-miterlimit:10;stroke-dasharray:none;stroke-opacity:1"
             id="path2139" /></g><g
           id="g2141"
           transform="translate(256,15)"><path
             d="M 0,0 V 322"
             style="fill:none;stroke:#000000;stroke-width:30;stroke-linecap:round;stroke-linejoin:round;stroke-miterlimit:10;stroke-dasharray:none;stroke-opacity:1"
             id="path2143" /></g></g></g></g></svg>
