<svg id="Capa_1" enable-background="new 0 0 512 512" height="512" viewBox="0 0 512 512" width="512" xmlns="http://www.w3.org/2000/svg"><g><path d="m417.026 161.106v-63.453h7.312c8.284 0 15-6.716 15-15s-6.716-15-15-15h-15.696l5.194-51.138c.429-4.22-.949-8.425-3.793-11.572-2.845-3.147-6.888-4.943-11.13-4.943h-84.278c-4.242 0-8.285 1.796-11.13 4.943-2.844 3.147-4.222 7.352-3.793 11.572l5.194 51.138h-15.696c-8.284 0-15 6.716-15 15s6.716 15 15 15h7.312v63.453c-29.559 7.971-51.084 34.987-51.084 66.766v269.128c0 8.284 6.716 15 15 15h192.672c8.284 0 15-6.716 15-15v-269.128c0-31.779-21.525-58.795-51.084-66.766zm-141.588 95.248h162.672v167.275h-162.672zm106.875-226.354-3.824 37.653h-43.429l-3.825-37.653zm-69.953 158.784c7.945-.445 14.161-7.018 14.161-14.977v-76.154h60.505v76.154c0 7.958 6.216 14.532 14.161 14.977 20.197 1.131 36.117 17.498 36.886 37.57h-162.598c.768-20.072 16.688-36.44 36.885-37.57zm-36.922 293.216v-28.371h162.672v28.371z"/><path d="m376.96 279.983c-7.164 0-14.045 1.745-20.187 5.038-6.141-3.293-13.021-5.038-20.186-5.038-23.852 0-43.257 19.661-43.257 43.827 0 11.482 4.418 22.313 12.439 30.496 13.536 13.809 39.171 39.96 40.313 41.128 2.22 2.293 5.145 3.848 8.374 4.372.801.13 1.604.194 2.403.194 3.944 0 7.771-1.558 10.605-4.394.055-.054.109-.11.163-.165 1.376-1.406 40.321-41.135 40.321-41.135 7.909-8.068 12.265-18.899 12.265-30.496.003-24.166-19.401-43.827-43.253-43.827zm9.567 53.322-29.667 30.265-29.666-30.265c-2.563-2.615-3.863-5.81-3.863-9.495 0-7.625 5.947-13.827 13.257-13.827 3.531 0 6.856 1.438 9.363 4.05 2.829 2.947 6.736 4.613 10.821 4.613h.001c4.084 0 7.992-1.666 10.821-4.612 2.508-2.612 5.834-4.051 9.365-4.051 7.31 0 13.256 6.203 13.256 13.827.001 3.804-1.24 6.999-3.688 9.495z"/><path d="m186.692 194.338h-127.802c-8.284 0-15 6.716-15 15v111.986c0 38.377 27.546 70.426 63.901 77.453v83.223h-33.502c-8.284 0-15 6.716-15 15s6.716 15 15 15h97.005c8.284 0 15-6.716 15-15s-6.716-15-15-15h-33.503v-83.223c36.355-7.028 63.901-39.077 63.901-77.453v-111.986c0-8.284-6.715-15-15-15zm-15 30v43.479h-97.802v-43.479zm0 96.986c0 26.964-21.938 48.901-48.901 48.901s-48.901-21.937-48.901-48.901v-23.507h97.803v23.507z"/></g></svg>