<?xml version="1.0" encoding="iso-8859-1"?>
<!-- Generator: Adobe Illustrator 19.0.0, SVG Export Plug-In . SVG Version: 6.00 Build 0)  -->
<svg version="1.1" id="Layer_1" xmlns="http://www.w3.org/2000/svg" xmlns:xlink="http://www.w3.org/1999/xlink" x="0px" y="0px"
	 viewBox="0 0 512 512" style="enable-background:new 0 0 512 512;" xml:space="preserve">
<g>
	<g>
		<path d="M467,0H45C20.187,0,0,20.187,0,45c0,19.555,12.541,36.228,30,42.42c0,10.112,0,398.259,0,409.58c0,8.284,6.716,15,15,15
			h60c5.682,0,10.876-3.21,13.416-8.292l13.416-26.832c7.673-15.344,23.096-24.876,40.25-24.876h167.836
			c17.154,0,32.577,9.532,40.249,24.876l13.417,26.833C396.125,508.79,401.318,512,407,512h60c8.284,0,15-6.716,15-15
			c0-15.49,0-387.307,0-409.323c17.628-5.683,30-21.222,30-40.677C512,21.523,491.393,0,467,0z M95.729,482H60v-30h52.059
			C106.997,458.788,105.568,462.322,95.729,482z M452,482h-35.729c-9.815-19.629-11.257-23.197-16.329-30H452V482z M452,422
			c-5.118,0-381.913,0-392,0v-92h78.197l12.224,50.527C152.049,387.259,158.074,392,165,392h182c6.926,0,12.951-4.741,14.579-11.473
			L373.803,330H452V422z M169.062,330h173.876l-7.742,32H176.804L169.062,330z M452,300H60v-90h78.289l12.16,48.638
			C152.117,265.316,158.117,270,165,270h182c6.883,0,12.883-4.684,14.552-11.362L373.711,210H452V300z M169.211,210h173.577l-7.5,30
			H176.712L169.211,210z M452,180H60V90h78.289l12.16,48.638C152.117,145.316,158.117,150,165,150h182
			c6.883,0,12.883-4.684,14.552-11.362L373.711,90H452V180z M169.211,90h173.577l-7.5,30H176.712L169.211,90z M467,60H45
			c-8.271,0-15-6.729-15-15s6.729-15,15-15h422c7.71,0,15,8.262,15,17C482,55.932,474.225,60,467,60z"/>
	</g>
</g>
<g>
</g>
<g>
</g>
<g>
</g>
<g>
</g>
<g>
</g>
<g>
</g>
<g>
</g>
<g>
</g>
<g>
</g>
<g>
</g>
<g>
</g>
<g>
</g>
<g>
</g>
<g>
</g>
<g>
</g>
</svg>
